<svg xmlns="http://www.w3.org/2000/svg" viewBox="0 0 144.71 239.28"><g fill="#ebebeb"><path d="M8.79 165.61a4.36 4.36 0 0 1 1.7 1.98v-2.53h4.25v13.97H10.5v-2.53c-.37.83-.94 1.5-1.7 1.98-.77.48-1.7.72-2.76.72a5.65 5.65 0 0 1-5.24-3.35 8.61 8.61 0 0 1-.79-3.8c0-1.47.26-2.75.79-3.82a5.62 5.62 0 0 1 5.24-3.34c1.07 0 1.99.24 2.75.72zm-3.6 3.93c-.56.6-.84 1.44-.84 2.5s.29 1.9.85 2.5c.55.6 1.3.9 2.21.9.9 0 1.64-.3 2.21-.92a3.5 3.5 0 0 0 .87-2.48c0-1.05-.29-1.88-.87-2.49a2.91 2.91 0 0 0-2.21-.91c-.92 0-1.66.3-2.21.9zM31.65 165.06v13.97h-4.3v-2.53c-.4.82-1 1.47-1.8 1.95a5.2 5.2 0 0 1-2.76.73c-1.6 0-2.88-.53-3.82-1.6s-1.41-2.54-1.41-4.41v-8.11h4.25v7.58c0 .96.25 1.7.74 2.22.5.52 1.16.79 2 .79.86 0 1.54-.28 2.04-.83.5-.55.75-1.33.75-2.35v-7.41h4.31zM43.79 166.21a5.77 5.77 0 0 1 1.99 3.5h-4.01a2.21 2.21 0 0 0-.79-1.33 2.4 2.4 0 0 0-1.54-.5c-.48 0-.85.11-1.1.32-.25.21-.37.5-.37.9 0 .42.22.75.69.97.45.21 1.17.43 2.16.65 1.07.25 1.94.5 2.63.76.68.26 1.27.68 1.77 1.26.5.59.76 1.37.76 2.36 0 .8-.22 1.5-.66 2.13a4.29 4.29 0 0 1-1.87 1.45c-.82.35-1.79.52-2.9.52-1.9 0-3.4-.41-4.54-1.25a5.28 5.28 0 0 1-2.08-3.58h4.13c.07.6.33 1.06.77 1.38.44.32 1.01.47 1.71.47.49 0 .85-.1 1.1-.33.25-.23.38-.52.38-.9 0-.48-.23-.82-.7-1.03-.45-.2-1.2-.43-2.23-.66a17.9 17.9 0 0 1-2.55-.7 4.2 4.2 0 0 1-1.73-1.22 3.37 3.37 0 0 1-.72-2.29c0-1.25.47-2.26 1.42-3.04.95-.78 2.3-1.16 4.03-1.16a6.4 6.4 0 0 1 4.25 1.32zM56.35 175.35v3.68h-1.93c-1.64 0-2.9-.4-3.82-1.22-.9-.8-1.36-2.14-1.36-4.01v-5.14h-1.88v-3.6h1.88v-3.43h4.28v3.43h2.8v3.6h-2.8v5.21c0 .55.11.94.34 1.15.22.22.6.33 1.14.33h1.35zM65.1 165.66c.84-.5 1.75-.75 2.74-.75v4.58H66.6c-1.13 0-2.02.24-2.64.73-.63.48-.94 1.3-.94 2.45v6.36h-4.28v-13.97h4.28v2.63a6.08 6.08 0 0 1 2.07-2.03zM77.7 165.61a4.36 4.36 0 0 1 1.7 1.98v-2.53h4.26v13.97H79.4v-2.53c-.37.83-.93 1.5-1.7 1.98-.77.48-1.69.72-2.76.72a5.65 5.65 0 0 1-5.24-3.35 8.61 8.61 0 0 1-.79-3.8c0-1.47.27-2.75.8-3.82a5.66 5.66 0 0 1 5.24-3.34c1.06 0 1.98.24 2.75.72zm-3.6 3.93c-.55.6-.83 1.44-.83 2.5s.28 1.9.84 2.5c.56.6 1.3.9 2.21.9.9 0 1.64-.3 2.22-.92a3.5 3.5 0 0 0 .86-2.48c0-1.05-.29-1.88-.86-2.49a2.91 2.91 0 0 0-2.22-.91c-.92 0-1.65.3-2.21.9zM90.9 160.5v18.53H86.6V160.5h4.28zM94.2 159.51a2.64 2.64 0 0 1 1.86-.63c.77 0 1.38.21 1.85.63.47.43.7.97.7 1.62 0 .64-.23 1.17-.7 1.59-.47.42-1.08.64-1.85.64s-1.39-.22-1.85-.64c-.47-.42-.7-.95-.7-1.59 0-.65.23-1.19.7-1.62zm3.99 5.55v13.97H93.9v-13.97h4.28zM109.19 165.61a4.36 4.36 0 0 1 1.7 1.98v-2.53h4.26v13.97h-4.26v-2.53c-.36.83-.93 1.5-1.7 1.98-.77.48-1.69.72-2.75.72a5.65 5.65 0 0 1-5.25-3.35 8.61 8.61 0 0 1-.79-3.8c0-1.47.27-2.75.8-3.82a5.66 5.66 0 0 1 5.24-3.34c1.06 0 1.98.24 2.75.72zm-3.6 3.93c-.55.6-.83 1.44-.83 2.5s.28 1.9.84 2.5c.56.6 1.3.9 2.21.9.9 0 1.64-.3 2.22-.92a3.5 3.5 0 0 0 .86-2.48c0-1.05-.29-1.88-.86-2.49a2.91 2.91 0 0 0-2.22-.91c-.92 0-1.65.3-2.21.9zM130.73 166.51c.94 1.07 1.42 2.54 1.42 4.4v8.12h-4.29v-7.61c0-.94-.24-1.67-.73-2.2a2.57 2.57 0 0 0-1.97-.78c-.87 0-1.56.28-2.06.83-.51.55-.77 1.33-.77 2.35v7.4h-4.28v-13.96h4.28v2.55c.4-.83 1-1.49 1.8-1.98.78-.48 1.71-.72 2.78-.72 1.6 0 2.88.53 3.82 1.6zM7.07 195.7c.84-.5 1.76-.75 2.74-.75v4.58H8.6c-1.14 0-2.02.24-2.64.73-.63.48-.94 1.3-.94 2.45v6.36H.73V195.1H5v2.63a6.06 6.06 0 0 1 2.06-2.03zM24.91 202.86h-9.69c.05 1.05.32 1.8.8 2.26.49.46 1.1.7 1.86.7.63 0 1.16-.17 1.57-.48.42-.32.7-.73.83-1.23h4.53a5.96 5.96 0 0 1-1.2 2.64 6.43 6.43 0 0 1-2.35 1.83c-.95.44-2.01.66-3.18.66a7.5 7.5 0 0 1-3.64-.86 6.18 6.18 0 0 1-2.5-2.5 7.73 7.73 0 0 1-.9-3.8c0-1.47.3-2.74.9-3.81a6.09 6.09 0 0 1 2.48-2.48 7.59 7.59 0 0 1 3.66-.87c1.38 0 2.6.29 3.65.85a6.01 6.01 0 0 1 2.44 2.4 7.12 7.12 0 0 1 .74 4.69zm-4.94-3.87a2.71 2.71 0 0 0-1.9-.69c-.78 0-1.43.24-1.95.7-.51.47-.8 1.15-.87 2.06h5.46c.01-.92-.23-1.61-.74-2.07zM36.68 196.25a5.77 5.77 0 0 1 2 3.5h-4.01a2.21 2.21 0 0 0-.79-1.33 2.4 2.4 0 0 0-1.54-.5c-.48 0-.85.11-1.1.32-.25.21-.38.5-.38.89 0 .43.23.76.7.97.45.22 1.17.44 2.16.66 1.06.25 1.94.5 2.63.76.68.26 1.27.68 1.77 1.26.5.59.75 1.37.75 2.36 0 .8-.21 1.5-.65 2.13a4.29 4.29 0 0 1-1.88 1.45c-.81.35-1.78.52-2.9.52-1.89 0-3.4-.41-4.53-1.25a5.28 5.28 0 0 1-2.08-3.58h4.13c.07.6.32 1.06.76 1.38.45.32 1.02.47 1.72.47.48 0 .85-.1 1.1-.33.25-.23.38-.53.38-.9 0-.48-.23-.82-.7-1.03-.45-.21-1.2-.43-2.23-.66a17.9 17.9 0 0 1-2.56-.7 4.2 4.2 0 0 1-1.72-1.22 3.37 3.37 0 0 1-.73-2.29c0-1.25.48-2.26 1.43-3.04.95-.78 2.3-1.17 4.03-1.17a6.4 6.4 0 0 1 4.24 1.33zM52.92 195.79c.91.57 1.63 1.4 2.15 2.48a8.6 8.6 0 0 1 .8 3.81c0 1.45-.27 2.72-.8 3.8a5.65 5.65 0 0 1-5.24 3.36 5.04 5.04 0 0 1-2.75-.72 4.2 4.2 0 0 1-1.68-1.98v9.19h-4.28V195.1h4.28v2.53c.35-.84.9-1.5 1.68-1.98a5.05 5.05 0 0 1 2.75-.73c1.15 0 2.18.3 3.1.87zm-6.68 3.8a3.49 3.49 0 0 0-.87 2.5c0 1.03.3 1.85.87 2.47a2.9 2.9 0 0 0 2.21.93c.92 0 1.66-.3 2.22-.9.56-.6.84-1.44.84-2.5 0-1.07-.28-1.9-.84-2.5-.56-.6-1.3-.9-2.22-.9-.9-.01-1.64.3-2.21.9zM58.4 189.55a2.64 2.64 0 0 1 1.84-.63c.77 0 1.39.2 1.86.63.46.43.7.97.7 1.62 0 .63-.24 1.16-.7 1.59-.47.42-1.09.64-1.86.64-.76 0-1.38-.22-1.85-.64-.47-.43-.7-.96-.7-1.59 0-.65.23-1.19.7-1.62zm3.97 5.55v13.97H58.1V195.1h4.28zM71.77 195.7c.85-.5 1.76-.75 2.74-.75v4.58H73.3c-1.14 0-2.02.24-2.64.73-.63.48-.94 1.3-.94 2.45v6.36h-4.28V195.1h4.28v2.63a6.07 6.07 0 0 1 2.06-2.03zM84.28 195.65a4.36 4.36 0 0 1 1.7 1.98v-2.53h4.26v13.97H86v-2.53c-.37.83-.94 1.49-1.7 1.97-.77.49-1.7.73-2.76.73a5.65 5.65 0 0 1-5.24-3.35 8.61 8.61 0 0 1-.8-3.8c0-1.48.27-2.75.8-3.83a5.66 5.66 0 0 1 5.24-3.34c1.07 0 1.98.25 2.75.73zm-3.59 3.93c-.56.6-.84 1.44-.84 2.5 0 1.07.28 1.9.84 2.5.56.6 1.3.9 2.22.9.9 0 1.64-.3 2.21-.92a3.5 3.5 0 0 0 .86-2.48c0-1.05-.28-1.88-.86-2.49a2.91 2.91 0 0 0-2.21-.91c-.92 0-1.66.3-2.22.9zM101.2 205.39v3.68h-1.93c-1.64 0-2.91-.4-3.82-1.22-.9-.8-1.36-2.15-1.36-4.01v-5.14H92.2v-3.6h1.88v-3.43h4.28v3.43h2.8v3.6h-2.8v5.21c0 .55.11.94.34 1.15.22.22.6.33 1.14.33h1.35zM113.63 195.79c1.1.57 1.95 1.4 2.58 2.49.63 1.08.94 2.35.94 3.8 0 1.45-.31 2.72-.94 3.8a6.33 6.33 0 0 1-2.58 2.5c-1.1.57-2.33.86-3.71.86a7.92 7.92 0 0 1-3.74-.86 6.3 6.3 0 0 1-2.59-2.5 7.48 7.48 0 0 1-.94-3.8c0-1.45.32-2.72.94-3.8a6.28 6.28 0 0 1 2.6-2.5 7.94 7.94 0 0 1 3.72-.86c1.4 0 2.63.3 3.72.87zm-5.78 3.73c-.56.59-.84 1.45-.84 2.56s.28 1.97.84 2.56c.56.58 1.25.87 2.06.87.82 0 1.5-.29 2.06-.87.55-.59.82-1.44.82-2.56s-.27-1.97-.82-2.56a2.69 2.69 0 0 0-2.06-.9c-.81 0-1.5.3-2.06.9zM125.08 195.7c.84-.5 1.76-.75 2.74-.75v4.58h-1.22c-1.14 0-2.02.24-2.64.73-.63.48-.94 1.3-.94 2.45v6.36h-4.29V195.1h4.29v2.63a6.07 6.07 0 0 1 2.06-2.03zM133.5 195.1l3.35 8.56 3.13-8.56h4.73L136 215.73h-4.7l3.27-7.19-5.85-13.44h4.78zM11.57 226.45a6.62 6.62 0 0 1 2.3 4.1H9.34a2.4 2.4 0 0 0-.83-1.4c-.42-.34-.94-.5-1.58-.5-.75 0-1.37.29-1.85.88s-.73 1.46-.73 2.6c0 1.13.25 1.99.73 2.58.48.6 1.1.89 1.85.89.64 0 1.16-.17 1.58-.5.42-.33.7-.8.83-1.4h4.53a6.61 6.61 0 0 1-2.3 4.1 6.95 6.95 0 0 1-4.54 1.48 7.5 7.5 0 0 1-3.64-.86 6.17 6.17 0 0 1-2.49-2.5 7.7 7.7 0 0 1-.9-3.8c0-1.47.3-2.74.89-3.82a6.09 6.09 0 0 1 2.49-2.47 7.57 7.57 0 0 1 3.65-.87c1.8 0 3.32.5 4.54 1.5zM26.35 225.83c1.09.57 1.95 1.4 2.57 2.49.63 1.08.94 2.35.94 3.8 0 1.45-.3 2.72-.94 3.8a6.33 6.33 0 0 1-2.57 2.5c-1.1.57-2.34.86-3.72.86s-2.63-.29-3.73-.86a6.29 6.29 0 0 1-2.59-2.5 7.48 7.48 0 0 1-.94-3.8c0-1.45.31-2.72.94-3.8a6.28 6.28 0 0 1 2.59-2.5c1.1-.57 2.35-.86 3.73-.86s2.62.3 3.72.87zm-5.79 3.72c-.55.6-.83 1.45-.83 2.57s.28 1.97.84 2.56c.55.58 1.24.87 2.06.87s1.5-.3 2.05-.87.83-1.44.83-2.56-.28-1.97-.83-2.56c-.55-.6-1.23-.9-2.05-.9s-1.5.3-2.06.9zM45.88 225.14v13.97h-4.31v-2.53c-.4.81-1 1.46-1.79 1.95a5.2 5.2 0 0 1-2.77.72c-1.6 0-2.87-.53-3.81-1.6-.95-1.07-1.42-2.53-1.42-4.4v-8.11h4.26v7.58c0 .95.24 1.7.74 2.21.49.53 1.15.8 1.99.8.86 0 1.55-.28 2.05-.83.5-.55.75-1.34.75-2.36v-7.4h4.3zM61.52 226.59c.95 1.07 1.42 2.54 1.42 4.4v8.11h-4.28v-7.6c0-.94-.25-1.67-.74-2.2a2.57 2.57 0 0 0-1.97-.78c-.86 0-1.55.27-2.06.82-.5.55-.76 1.34-.76 2.36v7.4h-4.29v-13.96h4.29v2.55c.4-.83 1-1.5 1.79-1.98s1.72-.72 2.79-.72c1.6 0 2.87.53 3.81 1.6zM76.7 226.45a6.62 6.62 0 0 1 2.3 4.1h-4.53a2.4 2.4 0 0 0-.83-1.4c-.41-.34-.94-.5-1.57-.5-.75 0-1.37.29-1.86.88-.48.6-.72 1.46-.72 2.6 0 1.13.24 1.99.72 2.58.49.6 1.1.89 1.86.89.63 0 1.16-.17 1.57-.5.42-.33.7-.8.83-1.4H79a6.61 6.61 0 0 1-2.3 4.1 6.95 6.95 0 0 1-4.53 1.48 7.5 7.5 0 0 1-3.64-.86 6.17 6.17 0 0 1-2.5-2.5 7.73 7.73 0 0 1-.9-3.8c0-1.47.3-2.74.9-3.82a6.09 6.09 0 0 1 2.48-2.47 7.57 7.57 0 0 1 3.66-.87c1.8 0 3.31.5 4.53 1.5zM81.53 219.6a2.64 2.64 0 0 1 1.85-.65c.77 0 1.39.22 1.86.64.46.43.7.97.7 1.62 0 .63-.24 1.16-.7 1.59-.47.42-1.09.64-1.86.64-.76 0-1.38-.22-1.85-.64-.47-.43-.7-.96-.7-1.6 0-.64.23-1.18.7-1.6zm3.98 5.54v13.97h-4.28v-13.97h4.28zM92.75 220.58v18.53h-4.29v-18.53h4.29zM126.33 87.97a56 56 0 0 0-38.8-14.56v10.11c12.55 0 22.44 3.58 32.56 12.46 13.64 11.98 14.5 24.47 14.5 49h10.12c0-32.1-3.02-43.1-18.38-57z"/><path d="M114.26 128.76c-.55 5.24-3.87 6.12-5.94 6.12-8.84 0-10.7-9.49-10.7-17.45V105.3c6.17 2.28 12.03 6.96 14.78 13.28.01 0 6.31-.84 10.04-2.16-5.26-13.46-18.97-23.13-34.91-22.79v24.02c.07 17.93 8.54 27.34 20.79 27.34 8.44 0 16.63-6.63 16.13-18.42-3.1.86-7.62 1.85-10.19 2.19zM24.63 95.98c10.11-8.88 19.96-12.46 32.56-12.46V71.78c-7.33-5.34-13.4-15.22-13.4-29.4 0-20.16 12.79-32.27 28.56-32.27h.01c15.78 0 29.27 11.75 28.51 33.83 3.4.55 7.08 1.3 10.04 2.12C112.4 17.69 95.13 0 72.35 0c-22.4 0-38.67 17.82-38.67 42.38 0 12.87 4.36 24.17 11.47 32.13 0 0 .03-.05.15-.03a56.06 56.06 0 0 0-26.91 13.5C3.03 101.87 0 112.87 0 144.97h10.11c0-24.52.87-37.02 14.51-49z"/><path d="M92.95 63.42a86.5 86.5 0 0 1 12.72 2.1c-.05.31 2.75-5.4 3.66-9.56-2.5-.7-25.14-6.74-31.91 1.63v-4.4H67.3V145h10.12V81.3c0-11.12.9-13.25 3.42-15.64 2.67-2.53 7.85-2.5 12.11-2.25zM20.22 127.24c0 11.62 7.72 17.75 16.17 17.75 4.03 0 8.68-1.9 10.7-5.48V145h10.1V93.63c-23.1 0-36.97 17.76-36.97 33.6zm16.17 7.64c-2.26 0-6.06-1-6.06-7.64 0-10.31 7.79-18.62 16.75-21.94v12.13c0 7.97-1.86 17.45-10.69 17.45z"/></g></svg>