<svg xmlns="http://www.w3.org/2000/svg" viewBox="0 0 163.712 173.095"><path fill="#EBEBEB" d="M97.463 62.219a18.253 18.253 0 0 0 2.816-9.735c0-10.159-8.264-18.423-18.423-18.423-10.159 0-18.423 8.265-18.423 18.423 0 2.899.683 5.639 1.883 8.081 7.199-4.257 13.392-7.023 13.392-7.023 7.11-2.987 7.464-.512 18.755 8.677zM41.663 107.994l-.112-.002-.105-.002-.007-.001c-.421-.008-.861-.022-1.293-.033 10.835 10.377 25.522 16.764 41.709 16.764a60.167 60.167 0 0 0 21.286-3.875c-6.314-.552-14.53-2.547-22.93-5.473-10.352-3.606-20.643-7.277-38.548-7.378zM29.676 94.657a60.355 60.355 0 0 0 4.636 6.848 103.918 103.918 0 0 1 9.226-4.561c-5.051.411-10.181-.035-13.862-2.287zM32.367 66.639c-2.812 1.538-7.04 4.182-10.224 6.316.242 1.698.559 3.371.939 5.021 5.522-3.603 8.691-10.009 9.285-11.337z"/><path fill="#EBEBEB" d="m54.958 92.857.163-.039c.195-.054.393-.115.587-.168 4.013-2.572 8.808-6.569 7.678-14.342-.997-6.857 5.065-14.924 9.735-19.685-4.852 2.507-11.5 6.377-18.119 11.62-9.823 7.781-24.968 14.506-29.247 16.331.321.81.658 1.612 1.012 2.405 4.441 9.141 20.163 5.827 28.191 3.878zM35.43 65.75c-1.087-.486-2.922 8.766-11.999 13.735a59.662 59.662 0 0 0 1.56 5.067c3.078-1.443 13.251-6.296 21.263-11.068-4.34-2.951-6.098-5.621-10.824-7.734zM83.834 100.718c-8.455.072-12.835 4.207-25.2 6.218 9.179 1.093 16.94 4.208 28.822 7.917 9.468 2.956 15.702 4.097 19.175 4.542a60.45 60.45 0 0 0 19.046-13.564c-2.644 1.083-6.151 1.829-10.908 1.829-9.374 0-20.573-7.03-30.935-6.942z"/><path fill="#EBEBEB" d="M121.1 94.305c-9.323.805-14.286 5.164-24.565 1.677-25.782-8.747-45.72-.511-61.022 7.026.504.604 1.018 1.2 1.546 1.784 3.496 2.428 21.049 1.218 29.374-2.162 13.38-5.433 20.016-6.018 31.64-1.559 13.9 5.332 19.633 5.315 26.34 2.163 2.296-1.079 4.469-3.062 6.345-5.199.563-.758 3.057-4.828-9.658-3.73zM81.856 4.063c-33.319 0-60.329 27.01-60.329 60.329 0 2.186.123 4.343.35 6.469 4.531-2.943 11.324-6.937 12.648-7.052 3.807-.331 7.966 4.774 13.568 8.559 2.141-1.332 4.057-2.636 5.535-3.833 3.079-2.495 6.524-4.821 9.854-6.864a20.418 20.418 0 0 1-2.18-9.186c0-11.334 9.221-20.555 20.555-20.555 11.333 0 20.555 9.221 20.555 20.555 0 4.083-1.219 7.874-3.283 11.074.999.794 2.066 1.627 3.229 2.511 2.827 2.148 6.722 4.396 10.933 6.548 10.425-6.64 17.206-8.783 17.215-8.787 1.598-.542 6.4 4.808 11.287 7.361.251-2.233.392-4.5.392-6.8 0-33.319-27.01-60.329-60.329-60.329z"/><path fill="#EBEBEB" d="M81.856 0C46.35 0 17.465 28.886 17.465 64.392s28.886 64.392 64.391 64.392c35.506 0 64.392-28.886 64.392-64.392S117.362 0 81.856 0zm0 126.783c-34.458 0-62.391-27.934-62.391-62.391S47.398 2 81.856 2s62.391 27.934 62.391 62.391-27.933 62.392-62.391 62.392z"/><path fill="#EBEBEB" d="M122.374 76.938a311.156 311.156 0 0 0 16.615 6.823 59.893 59.893 0 0 0 2.565-10.683c-5.636-2.839-9.087-7.432-10.494-7.346-.717.045-6.622 5.257-8.686 11.206zM124.174 92.01c4.703-.012 8.117 1.053 8.893 3.148a55.055 55.055 0 0 0 3.33-5.111c-2.925-.569-5.884-.089-12.223 1.963zM126.633 67.378c-3.141 1.532-8.803 4.457-11.202 5.947-.088.054-.21.139-.315.209 1.781.88 3.595 1.74 5.396 2.563.888-2.641 3.339-6.326 6.121-8.719z"/><path fill="#EBEBEB" d="M80.523 55.167s-.373.146-1.041.433c-5.411 2.803-15.287 15.462-14.016 22.29 1.006 5.404-.712 9.917-5.369 13.716 17.946-3.762 31.006.129 37.059 2.364 6.561 2.423 11.841.699 17.475-.669h-.002c9.054-2.344 15.39-6.169 22.589-4.927a59.39 59.39 0 0 0 .895-2.197c-5.492-2.153-27.434-11.001-37.537-18.766-16.499-12.681-15.543-14.27-20.053-12.244zM67.855 167.453a2.309 2.309 0 0 0-.401-.038c-.087 0-.181.153-.274.465-.088.306-.219.673-.384 1.094-.164.415-.39.781-.686 1.093-.988 1.055-2.387 1.585-4.198 1.585-1.515 0-2.833-.405-3.936-1.219a7.144 7.144 0 0 1-2.431-3.072c-.511-1.203-.768-2.564-.768-4.072 0-.984.164-1.935.494-2.859a8.225 8.225 0 0 1 1.389-2.471 6.956 6.956 0 0 1 2.069-1.738c.79-.427 1.63-.64 2.525-.64 1.191 0 2.19.181 3.008.546.812.361 1.437.864 1.877 1.503.258.399.427.722.51.968.082.245.148.487.203.727.055.087.176.137.357.137.384 0 .576-.137.576-.41l.054-3.936a30.47 30.47 0 0 0-3.375-.519 33.828 33.828 0 0 0-3.293-.164c-1.263 0-2.437.246-3.524.738a9.071 9.071 0 0 0-2.87 2.034 9.524 9.524 0 0 0-1.921 3.006 9.75 9.75 0 0 0-.687 3.652c0 1.219.225 2.373.675 3.455a8.95 8.95 0 0 0 4.638 4.8 8.19 8.19 0 0 0 3.386.71c3.019 0 5.209-.405 6.559-1.202.055-.038.132-.24.236-.601.099-.366.203-.787.313-1.274.11-.481.203-.924.275-1.323.077-.405.109-.656.109-.765l-.137-.082a1.01 1.01 0 0 0-.368-.128zM94.444 171.952c-.143 0-.351-.044-.615-.126a3.994 3.994 0 0 1-.768-.327c-.247-.137-.406-.296-.483-.476-.088-.24-.203-.519-.341-.847a62.82 62.82 0 0 1-.455-1.12l-5.489-14.431-.247-.082c-.291 0-.5.072-.631.219a2.998 2.998 0 0 0-.385.602c-.087.197-.148.339-.175.421s-.055.18-.083.289a5.56 5.56 0 0 1-.209.574l-4.775 12.218a18.236 18.236 0 0 1-.67 1.558 6.366 6.366 0 0 1-.62 1.011c-.127.164-.362.289-.713.382-.346.088-.631.137-.851.137-.072 0-.11.125-.11.383 0 .197.038.333.11.41.423-.038.873-.076 1.361-.125.483-.044.982-.05 1.493-.011l2.827.136c.039-.093.049-.246.044-.464-.011-.219-.044-.328-.099-.328-.164 0-.428-.044-.795-.126-.363-.082-.631-.186-.796-.312-.143-.109-.22-.295-.22-.546 0-.186.033-.432.099-.738.061-.312.187-.695.368-1.148l1.181-3.007.137-.082c.697-.038 1.333-.071 1.91-.098a32.39 32.39 0 0 1 1.575-.038c.681 0 1.372.028 2.086.082.055 0 .11.033.165.109l1.235 3.39c.077.18.137.431.192.749.055.322.082.595.082.836 0 .071-.006.142-.011.219a1.698 1.698 0 0 1-.044.219c-.055.142-.247.262-.577.355-.329.088-.604.137-.823.137-.072 0-.115.115-.121.339-.011.229.022.377.094.453l3.183-.136c.093 0 .39.011.895.038.499.028 1.213.06 2.124.098a.893.893 0 0 0 .044-.153c.005-.044.011-.088.011-.12 0-.354-.033-.523-.11-.523zm-6.888-7.489c-.84.055-1.674.082-2.497.082-.181 0-.434-.006-.752-.016-.324-.005-.719-.022-1.196-.038-.033 0-.055-.038-.055-.11l2.36-6.095 2.223 6.041-.083.136zM116.549 155.893c-1.405-.809-3.106-1.214-5.104-1.214-.182 0-.445.005-.796.011-.346.011-.785.017-1.318.017l-2.662.027c-.613 0-1.189-.02-1.721-.016-2.739.019-2.832-.446-3.101-.487-.195-.03-.329.597-.122.865.514.648 3.051.33 3.475.976.163.248.224.552.251.957.028.399.038.864.038 1.394v10.331c0 1.509-.06 2.366-.192 2.569-.055.11-.203.208-.45.301-.247.087-.51.17-.785.23a3.022 3.022 0 0 1-.659.098c-.054 0-.082.125-.082.383 0 .219.028.355.082.409l3.321-.082c.368-.021.779-.021 1.234-.016.461.011.961.022 1.509.044l1.949.054c1.976.055 3.672-.327 5.093-1.148a8.419 8.419 0 0 0 3.266-3.361c.758-1.422 1.137-3.007 1.137-4.756 0-1.585-.373-3.044-1.126-4.374-.745-1.333-1.826-2.398-3.237-3.212zm-4.693 15.594c-.236 0-.549-.016-.933-.044-.384-.028-.774-.06-1.164-.11a8.174 8.174 0 0 1-1.005-.164c-.274-.061-.428-.142-.467-.23a5.22 5.22 0 0 1-.411-2.077v-10.823c0-.842.121-1.416.357-1.722.219-.295 1.317-.437 3.293-.437h.137c1.427 0 2.623.333 3.584 1.011.961.672 1.685 1.574 2.179 2.706.494 1.126.741 2.384.741 3.772.001 5.413-2.101 8.118-6.311 8.118zM135.306 155.936c.038-.093.176-.18.412-.262.242-.082.494-.153.768-.219.274-.06.466-.093.576-.093.077 0 .109-.132.109-.383 0-.131-.016-.267-.054-.41-.911.033-1.636.065-2.168.093-.527.028-.868.044-1.015.044l-3.293-.137c-.072.071-.11.219-.11.437 0 .235.038.356.11.356.164 0 .384.027.659.082.274.055.532.12.768.202.242.082.378.18.411.29.077.235.127.557.154.968.027.41.038.896.038 1.465v10.605c0 .563-.011 1.044-.038 1.448a4.666 4.666 0 0 1-.154.984c-.033.087-.169.18-.411.273a4.033 4.033 0 0 1-.768.202c-.274.05-.494.071-.659.071-.072 0-.11.126-.11.383 0 .197.038.333.11.41l3.293-.137c.148 0 .489.011 1.015.038.532.028 1.257.06 2.168.098.038-.147.054-.274.054-.383 0-.273-.032-.41-.109-.41a3.51 3.51 0 0 1-.576-.081 5.344 5.344 0 0 1-.768-.219c-.236-.093-.373-.175-.412-.245-.164-.64-.247-1.487-.247-2.542v-10.385c-.001-1.078.082-1.926.247-2.543zM163.602 171.952c-.143 0-.351-.044-.615-.126a4.03 4.03 0 0 1-.768-.327c-.247-.137-.406-.296-.483-.476-.088-.24-.203-.519-.341-.847a62.82 62.82 0 0 1-.455-1.12l-5.489-14.431-.247-.082c-.291 0-.5.072-.631.219a2.998 2.998 0 0 0-.385.602c-.087.197-.148.339-.175.421s-.055.18-.083.289c-.027.11-.098.301-.208.574L149 168.762c-.436 1-.746 1.688-1.052 2.176-.856 1.403-2.488 1.383-3.576 1.005-.329-.114-.227.573.005.728.178.119.858.349 1.627.414.833.07 1.782-.179 2.593-.908a4.46 4.46 0 0 0 .499-.538c.026-.033.048-.068.073-.102.103-.135.206-.271.298-.415l-.009-.004c.024-.038.054-.073.077-.112.048-.094.099-.192.139-.275.15-.307.49-1.096.622-1.41.046-.123.091-.241.131-.341l1.127-2.904.137-.082c.697-.038 1.333-.071 1.91-.098a32.39 32.39 0 0 1 1.575-.038c.681 0 1.372.028 2.086.082.055 0 .11.032.165.109l1.235 3.39c.077.18.137.431.192.749.054.322.082.595.082.836 0 .072-.005.142-.01.219a1.887 1.887 0 0 1-.044.219c-.055.142-.247.262-.577.355-.329.088-.604.137-.823.137-.072 0-.115.115-.121.339-.011.229.022.377.093.453l3.183-.136c.093 0 .39.011.895.038.499.028 1.213.06 2.124.098.022-.054.033-.103.045-.153.005-.044.01-.088.01-.12.001-.352-.032-.521-.109-.521zm-6.888-7.489a38.27 38.27 0 0 1-2.497.082c-.181 0-.434-.006-.752-.016-.324-.006-.719-.022-1.196-.038-.033 0-.055-.038-.055-.11l2.36-6.095 2.223 6.041-.083.136zM46.979 171.504c-1.134.68-3.114.873-4.945-.254-.717-.45-1.464-1.093-2.475-2.195-1.207-1.312-2.256-2.919-3.156-4.811-.072-.109-.017-.202.164-.273.988-.459 1.773-1.105 2.349-1.941.577-.842.862-1.639.862-2.405 0-1.077-.285-1.99-.862-2.733a5.395 5.395 0 0 0-2.223-1.695 7.233 7.233 0 0 0-2.843-.574c-.51 0-1.152.022-1.921.066-.768.049-1.416.06-1.948.044l-3.293-.054c-.072.071-.11.224-.11.465 0 .219.038.328.11.328.164 0 .39.027.675.082.28.055.55.126.796.219.246.088.389.192.423.301.076.235.126.552.154.957.028.399.038.864.038 1.394v10.331c0 1.509-.06 2.366-.192 2.569-.055.11-.204.202-.45.284a6.765 6.765 0 0 1-.768.207 3.434 3.434 0 0 1-.675.083c-.054 0-.082.115-.082.355 0 .273.028.437.082.491l3.348-.136c.275-.022.708-.011 1.307.028.592.033 1.35.071 2.261.109.038-.147.054-.283.054-.409 0-.257-.033-.383-.109-.383-.143 0-.384-.033-.713-.098a3.974 3.974 0 0 1-.917-.284c-.286-.131-.461-.268-.538-.41-.142-.383-.22-1.175-.22-2.377v-4.018c0-.202.06-.328.181-.383.115-.054.28-.082.477-.082.516 0 .923.072 1.224.219.302.142.565.361.796.639.225.284.488.634.779 1.055.604.875 1.021 1.481 1.252 1.831.225.344.417.617.56.82 1.223 1.684 2.578 2.821 4.063 3.424.011.007.017.014.03.02.746.35 1.85.631 3.523.631s2.778-.502 2.938-.706c.172-.222.288-.917-.006-.731zm-11.383-8.817c-.467.289-.922.437-1.361.437h-.686c-1.592 0-2.387-.268-2.387-.793v-3.307c0-.859.016-1.563.044-2.121.027-.552.121-.853.286-.886.439-.131 1.081-.191 1.921-.191 2.564 0 3.842 1.263 3.842 3.799 0 .689-.159 1.301-.478 1.831-.325.526-.714.935-1.181 1.231zM17.619 171.952c-.143 0-.351-.044-.615-.126-.096-.029-.188-.066-.28-.103a4.123 4.123 0 0 1-.237-.102c-.084-.039-.169-.077-.251-.123-.067-.037-.111-.08-.165-.12a1.029 1.029 0 0 1-.211-.204c-.038-.05-.083-.098-.106-.152-.088-.24-.203-.519-.341-.847l-.165-.4-.116-.285-.175-.435-5.489-14.431-.247-.082c-.291 0-.5.072-.631.219a3 3 0 0 0-.472.805c-.018.041-.031.075-.044.108-.016.04-.034.083-.043.11-.027.082-.055.18-.083.289a2.413 2.413 0 0 1-.059.183c-.012.034-.025.072-.041.112-.031.083-.064.17-.109.279l-3.093 7.913c-.965-.002-2.247-.126-3.069-1.02a.53.53 0 0 0-.046-.051c-.145-.134-.465.475-.258.743.202.394.644.726 1.187.992.47.254 1.05.469 1.692.6l-1.189 3.041a21.617 21.617 0 0 1-.655 1.528 6.366 6.366 0 0 1-.634 1.04.754.754 0 0 1-.154.141 1.716 1.716 0 0 1-.559.241c-.346.088-.632.137-.851.137-.062 0-.098.102-.106.298-.002.029-.004.052-.004.085 0 .025.006.04.007.063.008.159.04.28.102.347l.548-.049c.26-.023.529-.048.814-.076.2-.018.404-.025.609-.03.042-.001.084-.006.127-.006.249-.002.501.006.756.025l.66.032 2.167.105c.004-.01.005-.029.009-.041.019-.063.029-.15.032-.256.002-.054.005-.102.003-.167-.002-.042-.006-.076-.009-.109a.473.473 0 0 0-.045-.182c-.013-.022-.027-.037-.045-.037-.105 0-.256-.02-.445-.054a9.758 9.758 0 0 1-.351-.072c-.32-.072-.562-.163-.729-.269-.022-.015-.048-.028-.067-.043-.143-.109-.22-.295-.22-.546 0-.186.033-.432.099-.738.018-.094.054-.208.084-.315.041-.148.093-.309.156-.482.042-.116.078-.224.128-.351l.012-.031 1.168-2.976.137-.082.564-.03c.455-.012.847-.036 1.212-.062l.134-.007a32.39 32.39 0 0 1 1.575-.038c.634 0 1.279.026 1.941.074l.193.024a.239.239 0 0 1 .104.081l1.241 3.385.006.017c.077.18.137.431.192.749.01.058.014.108.022.163.033.224.053.427.056.608l.003.065c0 .034-.003.07-.005.104l-.006.114a1.698 1.698 0 0 1-.044.219c-.034.089-.129.168-.271.239a1.686 1.686 0 0 1-.305.116c-.329.088-.604.137-.824.137-.036 0-.065.031-.086.091a.854.854 0 0 0-.035.248c-.011.229.022.377.093.453l3.183-.136c.074 0 .282.007.615.024l.28.014.356.019a153.874 153.874 0 0 0 1.768.08c.015-.037.022-.07.03-.103.004-.016.011-.034.014-.05l.006-.065c.002-.019.005-.04.005-.055.005-.352-.028-.521-.105-.521zm-11.174-7.456-.161-.006c-.033 0-.055-.038-.055-.11l2.325-6.003.035-.092.043.118 2.168 5.913c-1.42-.069-3.079.094-4.355.18z"/></svg>