<svg xmlns="http://www.w3.org/2000/svg" xml:space="preserve" viewBox="0 0 319.7 70.8"><g fill="#ebebeb"><path d="M232.2 33.6h10.5V13.8h9.7V7.1h-30v6.7h9.8v19.8zM204.1 51.9h-.1l-10.6-14.7h-12v26.4h10.1V48.8l11.2 14.8h11.5V37.2h-10l-.1 14.7zM135 34.6c6.4 0 10.4-1 13-3 2.5-2 3.7-4.9 4.4-8.4h-11.7c-1 3.2-2.8 4.5-6.1 4.5-3.8 0-6.4-2.1-6.4-7.5s2.7-7.6 7-7.6a5.3 5.3 0 0 1 5.6 4.7h11.8C151.3 6.8 141.6 6 135 6s-18 .4-18 14.2 11.6 14.4 18 14.4zM163.6 33.6l1.2-3h10.9l1.1 3H188L176.7 7h-12.8l-11.3 26.5 11 .1zm6.5-18.5 3.2 9h-6.2l3-9zM255.1 63.6h57.4v-6.4h-46.9v-3.6h47v-6.4h-47v-3.6h47v-6.4H255l.1 26.4zM234.8 43a9.49 9.49 0 0 1 3.6.6 3.5 3.5 0 0 1 2 2.8h11.8c-.8-6.9-6.4-10-18-10-8 0-17.3 2.5-17.3 14.2 0 12.2 10 14 17.3 14 6 0 9.5-.8 12.2-3.3l1.2 2.5h4.5V48.5h-14.8v6h4.3c-.7 2-2.4 3.3-5.8 3.3-5.2 0-7.8-2.6-7.8-7.5-.2-5.3 2.6-7.3 6.8-7.3zM312.5 27.2h-17.7v-3.7h17.7v-6.4h-17.7v-3.4h17.7V7h-28.1v26.5h28.1v-6.3zM281.7 26.4h-16.2V7.1H255v26.5h26.7v-7.2zM205.2 28a8.2 8.2 0 0 1-3.7-.5 2.4 2.4 0 0 1-1.1-2h-12.7c0 8 8.9 9 16.9 9 11.8 0 17-3.1 17-9.5 0-4.5-3.2-7-8.6-7.7l-12.5-1.9c-1-.1-1.3-.6-1.3-1.3 0-1.2 1-1.9 4.2-1.9a7.4 7.4 0 0 1 3.2.6 2.2 2.2 0 0 1 1.6 2.2h12.2c-.4-5.7-5.2-8.8-17-8.8-8.6 0-15.4 2-15.4 8.8 0 3.7 2.2 6.7 7.3 7.4l11.9 1.7c1.5.3 1.9 1 1.9 1.8.1 1.3-.7 2.1-4 2.1h.1zM17.1 18.7h.2l11 14.9h11.5V7h-10v14.7h-.2L19 7H7.1v26.5h10V18.7zM166.7 37.2h10.5v26.4h-10.5V37.2zM91.5 33.6l3.7-14.7h.1l3.5 14.7h10.3L116.8 7h-10l-3.5 16.1-4-16h-8.2l-4 16-3.4-16H73.5l7.7 26.4 10.3.1z"/><path d="M0 0v70.8h319.7V0H0zm316 67.3H3.6V3.6h312.6v63.7h-.2z"/><path d="M17.6 54.2H71v-6.5H17.6v-4.1H71v-6.4H7v26.4h10.5l.1-9.4zM71 27.2H53.4v-3.7h17.8v-6.4H53.3v-3.4h17.8V7H42.9v26.5H71v-6.3zM84.1 55.5H149c2 0 2.6 1.2 2.8 3.2.1 3 .1 4.2.6 5h11.4a5.8 5.8 0 0 1-1.3-3.1l-.4-5.8a4.2 4.2 0 0 0-3-4v-.2c3-.9 4-3.7 4-6.1 0-3-1.6-5.6-3.6-6.4-1.5-.8-3.2-1-6.3-1H73.7v26.4H84l.1-8zm0-11.6h64.7c1.7 0 3 .4 3 2.5 0 1.7-.8 2.4-2.9 2.4H84.1v-4.9z"/></g></svg>