<svg
    xmlns="http://www.w3.org/2000/svg"
	viewBox="0 0 171.13 131.16"
>
	<path
		fill="#ebebeb"
		d="M52.15 121.06H48.6V131h2.33v-3.67h1.23c1.12 0 1.98-.25 2.58-.75a2.96 2.96 0 0 0 1.04-2.38 2.9 2.9 0 0 0-1.04-2.38c-.6-.5-1.47-.75-2.59-.75zm1.13 3.77c-.1.19-.21.33-.34.42-.25.18-.63.27-1.12.27h-.9v-2.66h.9c.49 0 .86.1 1.12.28.14.1.25.23.34.4.1.18.14.4.14.65s-.05.46-.15.64zM69.42 125.88c.36-.48.54-1.1.54-1.84 0-.48-.1-.91-.3-1.3-.2-.4-.46-.72-.8-.97a4.35 4.35 0 0 0-2.61-.7h-3.57v9.92H65v-3.8h.73l2.09 3.8h2.7l-2.52-4.1a2.71 2.71 0 0 0 1.4-1zm-2.31-.74c-.24.18-.64.27-1.2.27H65v-2.55h.93c.56 0 .96.09 1.19.26.33.24.5.58.5 1.01 0 .43-.17.77-.5 1zM85.57 122.28a4.93 4.93 0 0 0-1.68-1.02 5.93 5.93 0 0 0-2.06-.35c-.73 0-1.41.11-2.06.35a4.62 4.62 0 0 0-2.8 2.65c-.27.65-.4 1.36-.4 2.13 0 .78.13 1.49.4 2.12a4.66 4.66 0 0 0 2.8 2.65c.65.24 1.33.35 2.06.35s1.41-.11 2.06-.35a4.66 4.66 0 0 0 2.8-2.65c.27-.63.4-1.34.4-2.12 0-.77-.13-1.48-.4-2.13a4.65 4.65 0 0 0-1.12-1.63zm-1.03 4.9c-.13.35-.28.63-.45.85a2.55 2.55 0 0 1-1.39.94 3.08 3.08 0 0 1-2.57-.4 2.59 2.59 0 0 1-.72-.78c-.2-.33-.34-.66-.4-.98a3.6 3.6 0 0 1 .13-2.09 2.68 2.68 0 0 1 1.55-1.61c.36-.15.74-.22 1.14-.22.84 0 1.53.29 2.08.86.55.57.83 1.31.83 2.24 0 .45-.07.86-.2 1.2zM101.62 121.07l-2.04 6.53h-.03l-2.07-6.53h-2.93l-.76 9.92h2.29l.36-6.76h.04l2.15 6.76h1.84l2.13-6.76h.03l.39 6.76h2.29l-.74-9.92zM121 122.28a4.94 4.94 0 0 0-1.67-1.02 5.93 5.93 0 0 0-2.06-.35c-.73 0-1.42.11-2.06.35a4.6 4.6 0 0 0-2.8 2.65c-.27.65-.4 1.36-.4 2.13 0 .78.13 1.49.4 2.12a4.63 4.63 0 0 0 2.8 2.65c.64.24 1.33.35 2.06.35s1.41-.11 2.06-.35a4.65 4.65 0 0 0 2.8-2.65c.27-.63.4-1.34.4-2.12 0-.77-.13-1.48-.4-2.13a4.65 4.65 0 0 0-1.12-1.63zm-1.02 4.9c-.13.35-.28.63-.46.85a2.56 2.56 0 0 1-1.38.94 3.08 3.08 0 0 1-2.57-.4 2.56 2.56 0 0 1-.73-.78c-.2-.33-.34-.66-.4-.98-.05-.33-.08-.6-.08-.82 0-.47.07-.89.22-1.27a2.65 2.65 0 0 1 1.55-1.61c.36-.15.73-.22 1.14-.22.83 0 1.53.29 2.08.86.55.57.83 1.31.83 2.24 0 .45-.07.86-.2 1.2zM85.57 61.14c-11.08 0-19.18-3.74-24.2-7.08l-4.9 8.99c7.06 4.58 16.8 8.22 29.1 8.22 13.32 0 20.7-5.61 24.68-11.38 2.2-3.2 4.42-7.98 4.42-16.66V.43h-10.14v4.52C100.35 2.82 92.78 0 85.57 0c-17.92 0-29.1 11.13-29.1 25.46 0 20 18.79 25.55 29.1 25.55 6.61 0 8.83-2.4 8.83-5.29 0-2.8-1.92-4.92-8.54-5.06-10.4-.22-19.25-4.22-19.25-14.97v-.23c0-7.72 6.09-15.35 17.74-15.35 7.58 0 15.65 3.67 20.52 7.94 0 0-6.58 7.53-6.58 7.58-3.83-3.25-8.92-5.45-14.19-5.45-5.08 0-7.37 2.16-7.37 5.45v.1l.05.6c.4 2.84 3.37 3.94 9.32 4.2 10.61.45 18.43 5.1 18.43 15.2 0 7.84-5.36 15.41-18.96 15.41zM15.23 94.6h-.08a7.26 7.26 0 0 0-1.6-1.52 6.15 6.15 0 0 0-2.18-1 9.6 9.6 0 0 0-5.7.33 8.59 8.59 0 0 0-2.93 1.84c-.84.8-1.5 1.8-2 3s-.74 2.53-.74 4c0 1.49.25 2.83.74 4.02.5 1.2 1.16 2.2 2 3 .85.8 1.83 1.42 2.93 1.83 1.1.42 2.24.63 3.4.63 2.63 0 4.64-.91 6.05-2.73h.07v.62c0 .8-.1 1.55-.33 2.22-.22.68-.5 1.21-.83 1.6-.96 1.01-2.47 1.52-4.52 1.52-1.15 0-2.37-.24-3.69-.72-1.3-.48-2.29-.97-2.94-1.46l-2.57 4.17c.6.44 1.44.9 2.54 1.4a17.76 17.76 0 0 0 6.77 1.44c3.75 0 6.69-1.01 8.85-3.04 1.94-1.82 2.92-4.58 2.92-8.3v-15.3h-6.24l.08 2.45zm-1.13 10.03a4.2 4.2 0 0 1-3.23 1.34c-.99 0-1.85-.26-2.59-.77a4.03 4.03 0 0 1-1.52-1.88 5.8 5.8 0 0 1-.41-2.02c0-1.3.43-2.4 1.27-3.3a4.27 4.27 0 0 1 3.25-1.34c.99 0 1.84.26 2.57.76.73.5 1.23 1.13 1.5 1.87.27.74.41 1.41.41 2 0 1.33-.42 2.44-1.25 3.34zM34.55 91.8a10.9 10.9 0 0 0-6.58 2.02 9.08 9.08 0 0 0-3.32 4.71 11 11 0 0 0-.47 3.24c0 1.53.25 2.92.76 4.18a8.73 8.73 0 0 0 5.42 5.15c1.25.45 2.61.68 4.07.68 1.22 0 2.35-.11 3.4-.33 1.05-.22 2.02-.53 2.89-.94a9.78 9.78 0 0 0 2.82-1.85l-2.45-3.23c-.94.62-1.93 1.08-2.96 1.38-1.04.3-1.97.45-2.8.45-.6 0-1.27-.1-2-.31a3.97 3.97 0 0 1-1.93-1.29 4.29 4.29 0 0 1-.98-2.41h13.67l.08-2.07c0-2.77-.9-5.04-2.69-6.78-1.8-1.74-4.1-2.6-6.93-2.6zm-4.1 7.9c.03-.7.25-1.38.64-2.04a3.4 3.4 0 0 1 1.55-1.4 4.44 4.44 0 0 1 1.79-.42c.6 0 1.2.15 1.81.43.6.29 1.11.76 1.5 1.42.4.67.6 1.34.63 2.01h-7.92zM54.5 86.96h-6.27v5.22H45.5v4.72h2.73v7.44c0 1.43.1 2.59.33 3.49.22.9.56 1.61 1.03 2.16 1.04 1.2 2.6 1.79 4.68 1.79 1.3 0 2.78-.2 4.44-.62l-.31-4.87c-.63.23-1.25.35-1.87.35-.7 0-1.2-.16-1.49-.47a1.89 1.89 0 0 1-.44-.95c-.07-.38-.1-.85-.1-1.43V96.9h4.25v-4.71H54.5v-5.23zM84.33 105.43a5.3 5.3 0 0 0-1.55-3.9 7.78 7.78 0 0 0-2.5-1.44c-.73-.28-1.63-.58-2.72-.9a7.83 7.83 0 0 1-2.25-.93c-.38-.29-.56-.6-.56-.93 0-.94.76-1.4 2.3-1.4.73 0 1.56.19 2.51.58.95.39 1.72.82 2.32 1.28l2.03-3.66c-1.93-1.59-4.38-2.37-7.37-2.37a8.4 8.4 0 0 0-3.91.85 6.42 6.42 0 0 0-2.52 2.18 5.42 5.42 0 0 0-.85 3c0 1.17.28 2.2.85 3.06a5.27 5.27 0 0 0 2.42 1.97c.7.31 1.61.6 2.73.9a18.8 18.8 0 0 1 1.71.55c.41.14.82.36 1.2.63.4.27.59.58.59.92 0 1.09-.88 1.64-2.65 1.64-.78 0-1.73-.23-2.86-.69a9.94 9.94 0 0 1-2.83-1.65l-2.33 3.7c1.03.98 2.28 1.72 3.72 2.22 1.44.5 2.9.74 4.38.74 2.5 0 4.45-.56 5.88-1.68a5.74 5.74 0 0 0 2.26-4.67zM117.39 111.35V99.78c0-1.82-.26-3.3-.79-4.46a5.77 5.77 0 0 0-2.22-2.63c-.95-.6-2.18-.9-3.65-.9a6.67 6.67 0 0 0-6.12 3.5c-.89-2.33-2.8-3.5-5.73-3.5-1.14 0-2.18.3-3.12.9a6.83 6.83 0 0 0-2.18 2.18l-.08.04.04-2.77h-6.23v19.21h6.23v-9.86c0-1 .14-1.89.43-2.63a2.84 2.84 0 0 1 2.7-1.96c.46 0 .9.11 1.32.35.4.23.72.67.93 1.3.2.64.3 1.42.3 2.36v10.44h6.25v-9.86c0-1 .14-1.89.43-2.63a2.82 2.82 0 0 1 2.68-1.96c.52 0 .98.13 1.39.4.4.28.7.73.87 1.37.18.63.27 1.38.27 2.24v10.44h6.28zM136.56 94.02a7.66 7.66 0 0 0-2.9-1.66 13.87 13.87 0 0 0-4.26-.57 19.2 19.2 0 0 0-8.22 1.95l1.64 4.05c.85-.54 1.84-.97 2.95-1.27 1.12-.3 2.1-.44 2.93-.44 1.24 0 2.21.27 2.9.8a2.7 2.7 0 0 1 1.03 2.28v.42l-4.83.2c-1.2.05-2.27.23-3.21.54-.95.32-1.76.74-2.42 1.27s-1.14 1.16-1.42 1.87a5.86 5.86 0 0 0-.43 2.2c0 1.01.2 1.92.59 2.7.38.8.92 1.45 1.62 1.96.68.5 1.45.87 2.3 1.1.87.24 1.69.36 2.47.36a9.2 9.2 0 0 0 2.41-.4 7.5 7.5 0 0 0 3.08-2.06l.11 2.03h5.97v-10.83c0-1.53-.2-2.82-.58-3.86a7.1 7.1 0 0 0-1.73-2.64zm-3.89 12.03a3.6 3.6 0 0 1-1.22 1.19c-.6.38-1.25.56-1.97.56a3.3 3.3 0 0 1-2.1-.64 2.1 2.1 0 0 1-.83-1.73 2 2 0 0 1 .82-1.68 3.77 3.77 0 0 1 2.22-.66l3.08-.2v3.16zM167.56 106.64c-.7 0-1.2-.16-1.48-.47a1.87 1.87 0 0 1-.44-.96 8.4 8.4 0 0 1-.1-1.42v-6.6c3.3-.27 5.6-1.25 5.6-1.25l-1.4-4.37s-1.46.67-4.21.9v-5.5h-6.27v4.99a25.18 25.18 0 0 0-3.78-.28c-5.29 0-6.73 2.8-6.96 3.35v-2.89h-6.24v19.21h6.24v-8.97c0-4.3 3.5-5.9 6.5-5.9 1.6 0 2.82.21 4.24.42v7.44c0 1.43.1 2.59.33 3.49.22.9.57 1.61 1.04 2.16 1.04 1.2 2.6 1.8 4.67 1.8 1.3 0 2.78-.22 4.44-.63l-.3-4.87c-.63.23-1.26.35-1.88.35z"
	/>
</svg>