<svg xmlns="http://www.w3.org/2000/svg" viewBox="0 0 146.753 74.621"><path fill="#FFF" d="M146.555.191a1.108 1.108 0 0 0-.502-.129c-.21-.012-.415-.019-.613-.019h-2.081c-.347 0-.762-.012-1.245-.037-.483-.025-.836.024-1.059.148-.348.149-.632.434-.855.855a20.2 20.2 0 0 1-.631 1.115c-.521.868-1.028 1.728-1.523 2.583-.496.856-1.003 1.703-1.524 2.546-.223.346-.427.693-.613 1.041-.186.347-.39.693-.613 1.04-.075.1-.174.224-.297.372-.125.15-.273.21-.447.185a.789.789 0 0 1-.594-.427 11.225 11.225 0 0 0-.372-.65c-.322-.496-.62-.997-.892-1.505a21.248 21.248 0 0 0-.893-1.506 43.006 43.006 0 0 1-1.189-2.006 42.493 42.493 0 0 0-1.189-2.006 8.73 8.73 0 0 1-.539-.893c-.186-.347-.415-.581-.688-.707-.198-.098-.459-.148-.78-.148h-4.199a.21.21 0 0 1-.148.019.217.217 0 0 0-.149.019 1.743 1.743 0 0 0-.278.093.407.407 0 0 0-.204.205c-.1.173-.081.377.055.613.136.237.242.403.316.501.272.496.545.973.817 1.431l.855 1.431a203.877 203.877 0 0 1 1.821 3.047 96.354 96.354 0 0 0 1.858 3.047c.198.274.372.564.521.874.148.31.321.601.52.873.248.396.483.788.706 1.17.223.384.446.774.669 1.17.198.272.384.558.558.854.173.299.31.633.409 1.004.05.125.075.267.075.429v8.156c.024.273.037.508.037.706 0 .198.062.371.186.521a.753.753 0 0 0 .52.259c.223.026.471.037.744.037H136.394c.235 0 .428-.05.577-.148.297-.174.439-.533.427-1.078a64.115 64.115 0 0 1-.019-1.525v-6.28c0-.099.012-.187.038-.261a1.15 1.15 0 0 0 .018-.353 1.161 1.161 0 0 1 .019-.354c.1-.346.229-.656.39-.929.161-.272.34-.544.54-.818.247-.42.488-.835.724-1.245.235-.409.489-.811.762-1.208a229.29 229.29 0 0 0 2.397-4.013 139.93 139.93 0 0 1 2.434-4.014c.297-.496.588-.985.874-1.468.284-.482.576-.972.873-1.468.074-.123.161-.316.26-.577.094-.255.045-.447-.153-.572zM32.707 69.05v-1.002c0-.316-.088-.579-.264-.791-.105-.139-.326-.247-.659-.317a6.745 6.745 0 0 0-1.082-.131 13.602 13.602 0 0 0-1.212 0c-.423.018-.774.026-1.056.026H16.043c-.739 0-1.231-.228-1.477-.686a2.033 2.033 0 0 1-.132-.605 9.104 9.104 0 0 1-.026-.711v-.528a2.198 2.198 0 0 1-.079-.765c.018-.264.026-.537.026-.817V37.544c0-.405-.088-.731-.263-.977-.176-.246-.448-.376-.817-.396a26.19 26.19 0 0 0-1.134-.027H7.658a.287.287 0 0 1-.211.027.306.306 0 0 0-.211.026c-.422.105-.703.283-.844.527-.105.177-.167.422-.185.738-.018.315-.026.633-.026.95V72.292c0 .336.07.607.21.817.176.281.448.449.818.501.369.053.799.079 1.292.079h22.834c.35 0 .615-.07.791-.211.211-.105.387-.299.527-.579.07-.177.096-.386.08-.634a10.352 10.352 0 0 1-.026-.792V69.05zM68.511 53.231a2.222 2.222 0 0 1-.026-.606 1.685 1.685 0 0 0-.079-.661 2.07 2.07 0 0 1-.105-.658c0-.229-.035-.465-.105-.713a14.728 14.728 0 0 1-.264-1.134c-.07-.367-.157-.728-.265-1.082-.175-.526-.341-1.017-.5-1.475-.157-.457-.341-.93-.552-1.425a11.26 11.26 0 0 0-1.002-1.871c-.389-.58-.775-1.15-1.161-1.715-.141-.175-.3-.36-.474-.551a17.97 17.97 0 0 0-.529-.557 7.237 7.237 0 0 0-1.212-1.237 21.095 21.095 0 0 0-1.423-1.082c-1.442-1.02-3.078-1.818-4.904-2.4-1.828-.58-3.991-.834-6.486-.764-.07.037-.168.037-.29 0-.125-.034-.22-.034-.291 0l-1.583.159a2.625 2.625 0 0 1-.501.052c-.156 0-.325.035-.501.105a20.71 20.71 0 0 1-1.502.37c-.51.104-.993.246-1.45.421-1.969.809-3.639 1.775-5.01 2.899-1.371 1.126-2.584 2.533-3.639 4.22a9.678 9.678 0 0 0-.896 1.687 39.428 39.428 0 0 1-.79 1.792 9.979 9.979 0 0 0-.475 1.715c-.105.58-.246 1.167-.422 1.767-.071.176-.105.36-.105.553 0 .195-.036.378-.106.553-.07.212-.097.431-.078.661.017.228-.009.465-.08.71v.318a1.203 1.203 0 0 0 0 .5c.035.159.035.326 0 .501-.07.178-.105.448-.105.817 0 .368.036.642.105.817.035.211.035.43 0 .659a2.08 2.08 0 0 0 0 .659c.07.141.097.292.08.448-.019.158-.009.325.026.5.07.283.123.555.159.819.034.262.087.519.159.762.034.143.053.276.053.396 0 .125.034.275.105.451a34.9 34.9 0 0 1 .474 1.659c.14.547.317 1.065.528 1.557.914 2.108 2.1 3.927 3.559 5.457 1.458 1.529 3.243 2.752 5.352 3.665.387.178.782.335 1.187.476.403.14.799.281 1.186.42.281.071.562.133.845.185.281.054.562.114.842.185.281.07.545.113.791.13.246.02.511.062.792.135h.581c.175.032.341.042.5.025.156-.019.323-.009.501.025.105.036.333.062.686.081.351.016.597.007.737-.027l1.74-.158c.176-.035.36-.054.555-.054.192 0 .376-.034.555-.104l1.158-.212a7.358 7.358 0 0 0 1.162-.316c2.635-.878 4.85-2.135 6.643-3.77 1.793-1.634 3.218-3.682 4.272-6.142.246-.563.45-1.143.606-1.741.159-.598.325-1.212.501-1.845.07-.247.124-.491.159-.738s.087-.493.157-.741a6.36 6.36 0 0 0 .106-1.157c0-.388.035-.757.105-1.109v-.684c.07-.212.098-.571.08-1.082-.019-.51-.061-.87-.131-1.081v-.419zm-8.175 2.635v.923c0 .159-.019.309-.051.449l-.159 1.266c-.14.457-.255.914-.342 1.371a5.544 5.544 0 0 1-.396 1.264c-.599 1.513-1.329 2.744-2.188 3.693-.864.948-2.049 1.722-3.561 2.318-.315.142-.65.239-1.001.291-.351.055-.705.115-1.056.186a.94.94 0 0 1-.472.078 1.611 1.611 0 0 0-.476.026h-1.107c-.211 0-.421-.034-.634-.104a1.561 1.561 0 0 0-.501-.027 1.035 1.035 0 0 1-.501-.079 46.291 46.291 0 0 1-1.397-.422 5.263 5.263 0 0 1-1.238-.581 16.98 16.98 0 0 1-.607-.315 2.403 2.403 0 0 1-.553-.423c-.843-.597-1.547-1.379-2.109-2.347a17.513 17.513 0 0 1-1.424-3.137 4.578 4.578 0 0 1-.29-1.107 8.959 8.959 0 0 0-.237-1.159c0-.141-.01-.271-.026-.396a2.595 2.595 0 0 1-.026-.395 1.8 1.8 0 0 1-.053-.449c0-.158-.019-.308-.053-.448v-.581c-.071-.175-.097-.501-.079-.975.017-.473.061-.798.132-.975a1.617 1.617 0 0 0 0-.581 1.05 1.05 0 0 1 .053-.58c.035-.141.052-.271.052-.396 0-.122.018-.255.053-.396.105-.387.185-.765.237-1.132.052-.371.132-.748.237-1.135.527-1.582 1.221-2.934 2.082-4.06.862-1.125 2.031-2.003 3.507-2.638.316-.14.66-.253 1.027-.341.37-.086.747-.166 1.135-.237a.979.979 0 0 1 .473-.079c.141.018.281.009.424-.026a.372.372 0 0 1 .236-.028c.086.02.166.01.237-.026 2.603 0 4.632.555 6.09 1.661 1.459 1.108 2.575 2.557 3.35 4.35.175.389.316.776.421 1.161l.316 1.161c.07.21.105.403.105.579.07.246.115.501.134.765.016.264.061.536.131.818.07.14.096.272.08.395-.019.125-.009.256.025.397v.895c.071.176.106.431.106.765s-.035.588-.106.763zM104.658 53.336H92.952c-.159 0-.291.019-.396.053h-.581c-.14 0-.315.035-.526.105-.246.105-.44.317-.581.633-.07.177-.115.387-.131.632-.019.248-.028.511-.028.791 0 .316-.007.661-.026 1.029a9.746 9.746 0 0 0 0 1.054c.019.334.062.642.134.923.067.281.191.494.367.633.105.071.23.115.37.133.141.018.281.043.421.079h.476c.21.072.44.096.686.078.246-.017.475-.026.686-.026H97.486c.335 0 .606.072.819.211.387.212.553.581.501 1.107a5.788 5.788 0 0 1-.291 1.371c-.389 1.021-.845 1.873-1.371 2.559-.527.686-1.231 1.292-2.109 1.818a6.154 6.154 0 0 1-1.213.501c-.424.124-.88.257-1.372.397a.688.688 0 0 1-.396.08 1.322 1.322 0 0 0-.45.024 1.132 1.132 0 0 1-.421.026 1.543 1.543 0 0 0-.475.026 3.015 3.015 0 0 1-.843.105c-.315 0-.581-.034-.791-.105a1.15 1.15 0 0 0-.552-.077 2.524 2.524 0 0 1-.608-.028 27.097 27.097 0 0 1-1.079-.318 8.494 8.494 0 0 1-.977-.369c-1.582-.704-2.794-1.677-3.64-2.927-.842-1.247-1.51-2.767-2.003-4.561a1.523 1.523 0 0 1-.052-.368c0-.105-.019-.228-.054-.37a8.324 8.324 0 0 1-.262-1.688 30.58 30.58 0 0 1-.054-1.792c0-.246-.009-.491-.025-.738a1.687 1.687 0 0 1 .08-.686v-.687c.07-.385.122-.772.157-1.159.035-.386.105-.772.21-1.16.246-.878.51-1.704.791-2.48a8.513 8.513 0 0 1 1.161-2.161 7.54 7.54 0 0 1 1.873-2.003 11.98 11.98 0 0 1 2.45-1.371c.21-.105.422-.175.635-.21.21-.035.438-.089.684-.16.351-.069.845-.13 1.477-.185.635-.051 1.162-.042 1.583.027.211 0 .37.019.475.053.176.036.37.063.581.08.211.018.403.06.578.131.951.283 1.758.649 2.428 1.106.491.353.913.749 1.264 1.187.352.44.686.906 1.001 1.397.176.352.326.722.45 1.107.121.388.341.686.66.897.21.176.482.274.817.291.332.02.692.024 1.081.024h3.428c.386 0 .737-.015 1.053-.05a.998.998 0 0 0 .74-.423c.175-.176.246-.448.21-.818a5.237 5.237 0 0 0-.159-.921c-.421-1.478-.967-2.776-1.634-3.903-1.337-2.109-3.2-3.832-5.59-5.168-2.392-1.334-5.36-1.968-8.911-1.898-.073.035-.169.035-.29 0-.125-.035-.22-.035-.291 0a1.66 1.66 0 0 1-.711.054 1.63 1.63 0 0 0-.712.052c-.178.071-.36.106-.555.106-.194 0-.377.035-.552.105-.46.105-.916.202-1.372.289-.457.088-.88.22-1.267.396-1.898.705-3.516 1.576-4.85 2.611-1.337 1.038-2.533 2.294-3.586 3.77-.283.423-.564.87-.845 1.347a12.24 12.24 0 0 0-.737 1.447c-.21.458-.396.925-.555 1.398-.157.474-.326.958-.501 1.451-.14.385-.246.762-.316 1.133-.071.369-.157.745-.263 1.134a3.6 3.6 0 0 0-.107.896c0 .315-.036.633-.106.948-.07.176-.096.38-.077.607.016.23.007.449-.028.659v.581c-.07.177-.105.448-.105.817 0 .369.035.642.105.818v.947c.035.177.044.325.028.449-.019.123.007.272.077.448.07.281.106.554.106.816 0 .265.035.519.107.766.068.176.106.325.106.449 0 .123.016.272.051.447.176.493.316.985.421 1.478.105.491.264.983.475 1.475.914 2.216 2.023 4.069 3.322 5.563 1.302 1.495 2.989 2.787 5.063 3.876a15.93 15.93 0 0 0 2.794 1.108c.246.071.492.131.738.184.246.053.494.114.739.184.281.072.562.124.842.159.281.035.563.088.845.159h.421c.176.035.342.051.501.051.16 0 .326.019.501.054h.526c.105.035.291.061.555.08.262.016.466.007.606-.025.316-.073.632-.108.947-.108.319 0 .616-.034.897-.104.175-.036.36-.062.555-.079.191-.019.376-.063.552-.133.529-.176 1.046-.35 1.557-.527a7.157 7.157 0 0 0 1.451-.685c.387-.245.738-.482 1.054-.712.316-.227.651-.483 1.001-.766.21-.174.412-.368.606-.578.194-.213.431-.352.711-.423.176-.033.316-.007.423.078.105.09.193.169.263.239.176.281.3.614.37 1.002.07.387.175.738.316 1.053.21.494.571.766 1.082.818.507.053 1.114.079 1.818.079h.871c.297 0 .552-.053.763-.159.456-.175.696-.57.714-1.187.017-.615.026-1.256.026-1.925V54.919c0-.455-.089-.825-.265-1.106-.24-.319-.741-.477-1.498-.477zM146.396 53.231a2.183 2.183 0 0 1-.026-.606 1.686 1.686 0 0 0-.08-.661 2.07 2.07 0 0 1-.105-.658c0-.229-.035-.465-.105-.713a15.226 15.226 0 0 1-.265-1.134c-.07-.367-.157-.728-.264-1.082-.176-.526-.342-1.017-.501-1.475-.157-.457-.342-.93-.553-1.425a11.26 11.26 0 0 0-1.002-1.871c-.389-.58-.774-1.15-1.162-1.715-.14-.175-.299-.36-.472-.551-.178-.195-.354-.38-.529-.557a7.237 7.237 0 0 0-1.212-1.237 21.35 21.35 0 0 0-1.423-1.082c-1.442-1.02-3.078-1.818-4.903-2.4-1.829-.58-3.991-.834-6.486-.764-.07.037-.169.037-.291 0-.124-.034-.219-.034-.29 0l-1.582.159a2.641 2.641 0 0 1-.501.052c-.157 0-.325.035-.5.105-.492.142-.993.263-1.503.37a9.13 9.13 0 0 0-1.449.421c-1.971.809-3.64 1.775-5.012 2.899-1.37 1.126-2.584 2.533-3.638 4.22a9.746 9.746 0 0 0-.896 1.687 39.475 39.475 0 0 1-.792 1.792 9.979 9.979 0 0 0-.475 1.715 17.34 17.34 0 0 1-.421 1.767c-.07.176-.105.36-.105.553 0 .195-.035.378-.105.553-.07.212-.098.431-.08.661.018.228-.01.465-.08.71v.318a1.203 1.203 0 0 0 0 .5c.035.159.035.326 0 .501-.07.178-.105.448-.105.817 0 .368.035.642.105.817.035.211.035.43 0 .659a2.08 2.08 0 0 0 0 .659.79.79 0 0 1 .08.448c-.019.158-.01.325.025.5.07.283.124.555.159.819.035.262.086.519.159.762.033.143.052.276.052.396 0 .125.035.275.105.451.175.562.335 1.116.475 1.659.14.547.316 1.065.526 1.557.915 2.108 2.1 3.927 3.561 5.457 1.458 1.529 3.242 2.752 5.351 3.665.389.178.782.335 1.187.476.405.14.801.281 1.187.42.281.071.562.133.845.185.281.054.561.114.843.185.281.07.545.113.792.13.246.02.51.062.791.135h.58c.176.032.342.042.501.025.157-.019.323-.009.501.025.105.036.332.062.686.081.351.016.597.007.737-.027l1.739-.158a2.84 2.84 0 0 1 .555-.054c.192 0 .377-.034.555-.104l1.159-.212a7.346 7.346 0 0 0 1.161-.316c2.636-.878 4.85-2.135 6.643-3.77 1.792-1.634 3.219-3.682 4.271-6.142.246-.563.45-1.143.606-1.741.159-.598.325-1.212.501-1.845.07-.247.124-.491.159-.738s.086-.493.157-.741a6.36 6.36 0 0 0 .106-1.157c0-.388.035-.757.105-1.109v-.684c.07-.212.098-.571.08-1.082-.019-.51-.061-.87-.131-1.081v-.419zm-8.174 2.635v.923c0 .159-.019.309-.051.449l-.159 1.266c-.141.457-.255.914-.341 1.371a5.645 5.645 0 0 1-.396 1.264c-.599 1.513-1.33 2.744-2.188 3.693-.864.948-2.048 1.722-3.561 2.318a3.78 3.78 0 0 1-1.002.291 24.28 24.28 0 0 0-1.055.186.945.945 0 0 1-.473.078 1.603 1.603 0 0 0-.475.026h-1.107c-.21 0-.421-.034-.634-.104a1.562 1.562 0 0 0-.501-.027 1.033 1.033 0 0 1-.501-.079 46.291 46.291 0 0 1-1.397-.422 5.263 5.263 0 0 1-1.238-.581c-.21-.104-.415-.21-.606-.315a2.35 2.35 0 0 1-.555-.423c-.842-.597-1.547-1.379-2.109-2.347a17.51 17.51 0 0 1-1.423-3.137 4.673 4.673 0 0 1-.291-1.107 8.794 8.794 0 0 0-.237-1.159c0-.141-.009-.271-.025-.396a2.586 2.586 0 0 1-.028-.395 1.85 1.85 0 0 1-.051-.449c0-.158-.019-.308-.054-.448v-.581c-.07-.175-.096-.501-.08-.975.019-.473.061-.798.133-.975a1.617 1.617 0 0 0 0-.581 1.06 1.06 0 0 1 .051-.58c.035-.141.054-.271.054-.396 0-.122.017-.255.052-.396.105-.387.185-.765.238-1.132.052-.371.132-.748.237-1.135.526-1.582 1.222-2.934 2.083-4.06.861-1.125 2.029-2.003 3.506-2.638.316-.14.66-.253 1.028-.341.37-.086.747-.166 1.135-.237a.98.98 0 0 1 .473-.079c.141.018.281.009.424-.026a.374.374 0 0 1 .237-.028c.086.02.166.01.236-.026 2.603 0 4.632.555 6.091 1.661 1.458 1.108 2.575 2.557 3.349 4.35.175.389.316.776.421 1.161l.317 1.161c.07.21.105.403.105.579.07.246.115.501.133.765.017.264.061.536.131.818.071.14.097.272.08.395-.018.125-.009.256.026.397v.895c.07.176.105.431.105.765-.002.334-.037.588-.107.763zM9.263 15.026c.065.026.768.34.502 1.134-.101.267-.197.532-.305.803-.198.52-.396 1.051-.593 1.594a118.81 118.81 0 0 1-.593 1.595 2.939 2.939 0 0 0-.223.592c-.05.2-.124.397-.223.595a54.255 54.255 0 0 0-.648 1.743c-.21.593-.439 1.174-.687 1.742-.05.099-.098.223-.148.371s-.092.303-.129.463c-.037.161-.08.414.093.533.122.086.884.396 1.008.47.197.124 3.06 1.214 3.515 1.165.349-.038.445-.196.523-.41.098-.267.75-2.197.849-2.444.172-.445.327-.896.463-1.354.136-.457.302-.896.5-1.316.099-.247.186-.496.26-.741.005-.019.017-.032.023-.05l1.309-3.81c.106-.224.36-.521.951-.303h.003l4.393 1.616 2.535.934h.001c.744.274 1.251 1.585 1.265 1.621l.105.307.204.611c.148.371.291.754.426 1.15.136.395.265.79.39 1.186.098.223.179.445.241.668.062.222.154.433.278.63a.92.92 0 0 0 .594.444c.148.05.302.069.463.056.161-.013.34-.018.538-.018h1.742c.297 0 .674.012 1.131.035.457.025.785-.023.982-.147a.444.444 0 0 0 .259-.333 1.194 1.194 0 0 0-.018-.463 2.965 2.965 0 0 0-.148-.465 2.466 2.466 0 0 1-.13-.37.373.373 0 0 1-.074-.205.373.373 0 0 0-.074-.204 37.368 37.368 0 0 1-.89-2.336 46.087 46.087 0 0 0-.89-2.373 6.028 6.028 0 0 1-.185-.574 3.036 3.036 0 0 0-.223-.574l-.445-1.188-.445-1.186a.897.897 0 0 1-.093-.279.913.913 0 0 0-.093-.277 59.607 59.607 0 0 1-1.427-3.745 80.537 80.537 0 0 0-1.391-3.747 40.785 40.785 0 0 1-.557-1.463 45.956 45.956 0 0 0-.556-1.466c-.05-.147-.099-.297-.148-.445-.05-.148-.1-.296-.148-.445a30.612 30.612 0 0 1-.482-1.242c-.148-.407-.31-.821-.482-1.243A9.812 9.812 0 0 1 22.048 1a1.08 1.08 0 0 0-.537-.649c-.173-.124-.402-.179-.686-.167-.285.013-.563.019-.834.019h-3.263a.21.21 0 0 1-.148.019.216.216 0 0 0-.149.018c-.198.05-.358.111-.481.186a1.323 1.323 0 0 0-.463.687 6.98 6.98 0 0 1-.315.833c-.223.52-.433 1.051-.63 1.595a110.48 110.48 0 0 1-.594 1.594 2.707 2.707 0 0 0-.111.334c-.025.099-.062.21-.111.333a71.854 71.854 0 0 0-1.483 3.862l-.004-.001s-.253.894-1.131.572L6.102 8.394 3.017 7.259a7.546 7.546 0 0 0-.759-.238c-.244-.063-.446-.058-.609.016a1.062 1.062 0 0 0-.415.471 7.027 7.027 0 0 0-.302.715l-.52 1.413c-.07.189-.151.374-.246.555a1.41 1.41 0 0 0-.159.545c-.028.364.023.625.155.78.146.188.41.346.792.473.382.126.727.247 1.035.359l5.814 2.141 1.46.537zm8.67-6.331c.086-.347.228-.645.426-.891a.596.596 0 0 1 .148-.111.566.566 0 0 0 .148-.111c.149 0 .272.061.371.185.098.124.185.266.259.426.074.162.136.334.186.52.049.185.099.34.148.464.346.865.654 1.73.927 2.594.09.286.199.562.294.846.008.048.013.095.032.151.325 1-.231.953-.551.858l-.201-.074h-.001l-1.076-.396-.87-.32-.875-.322s-.579-.28-.419-.861c.221-.661.463-1.316.738-1.958.124-.321.229-.655.316-1zM33.209 25.139c-.013.409.019.711.093.909.124.296.328.463.612.501.284.037.636.056 1.057.056h8.64c.223 0 .482.012.779.035.296.025.543.014.742-.035a.402.402 0 0 1 .222-.019.405.405 0 0 0 .223-.019c.124-.024.235-.031.333-.018a.828.828 0 0 0 .297-.019c.124-.025.241-.038.353-.038.111 0 .229-.012.352-.036a6.56 6.56 0 0 1 .797-.168c.26-.036.513-.092.761-.166a14.328 14.328 0 0 0 1.724-.668 10.092 10.092 0 0 0 1.539-.89 9.22 9.22 0 0 0 2.225-2.15 12.95 12.95 0 0 0 1.558-2.818c.148-.371.271-.748.37-1.13.099-.384.21-.786.334-1.205a4.74 4.74 0 0 0 .148-.817c.024-.272.061-.543.111-.816.024-.123.031-.246.018-.371a.775.775 0 0 1 .056-.371c0-.147.006-.302.018-.464.012-.16.019-.327.019-.5 0-.05.006-.136.019-.26.013-.123.019-.259.019-.407 0-.149-.006-.285-.019-.408a2.97 2.97 0 0 1-.019-.297v-.408a.986.986 0 0 1-.055-.445 1.233 1.233 0 0 0-.056-.482 2.01 2.01 0 0 0-.019-.277 2.194 2.194 0 0 1-.019-.316 10.05 10.05 0 0 1-.167-1.038 3.934 3.934 0 0 0-.241-1.001 19.057 19.057 0 0 0-.667-1.834 12.28 12.28 0 0 0-.853-1.65 4.739 4.739 0 0 0-.426-.575 4.407 4.407 0 0 1-.427-.575l-.334-.297a4.337 4.337 0 0 0-.667-.667l-.222-.223a39.82 39.82 0 0 0-1.706-1.148 4.635 4.635 0 0 0-.779-.371 10.573 10.573 0 0 1-.815-.333 4.723 4.723 0 0 0-.927-.278c-.321-.061-.655-.13-1.001-.204a1.094 1.094 0 0 0-.426-.057.994.994 0 0 1-.427-.056.91.91 0 0 0-.408-.055.87.87 0 0 1-.408-.056h-.445a1.62 1.62 0 0 0-.427-.019 5.746 5.746 0 0 1-.463.019H34.23a.212.212 0 0 1-.149.019.214.214 0 0 0-.148.018c-.272.1-.457.223-.556.371-.124.197-.18.463-.167.797.012.334.019.648.019.947V24.12c0 .272-.007.611-.02 1.019zm5.767-6.062V8.731c0-.346.005-.692.019-1.038.012-.347.019-.679.019-1.001v-.74c0-.223.049-.397.148-.521a.502.502 0 0 1 .297-.24 5.87 5.87 0 0 0 .371-.13.52.52 0 0 1 .278 0c.111.024.19.012.241-.038h1.668c.148 0 .296-.005.445-.018.147-.012.283-.005.407.018h.815c.074.025.16.032.26.02a.788.788 0 0 1 .297.018c.197.048.376.08.538.092.161.013.339.031.538.056a13.54 13.54 0 0 1 1.334.37 6.407 6.407 0 0 1 1.762 1.094c.482.434.908.946 1.279 1.54.198.32.353.661.464 1.018l.352 1.132a.735.735 0 0 1 .056.351.716.716 0 0 0 .056.353c.049.199.081.421.093.668.012.248.043.482.093.704v.705c.049.124.074.321.074.593s-.024.47-.074.593v.37c-.05.199-.074.397-.074.594 0 .198-.025.383-.075.556v.297a8.02 8.02 0 0 0-.185.741c-.05.249-.125.47-.223.667-.371.916-.822 1.681-1.354 2.3-.532.616-1.255 1.111-2.169 1.483-.692.271-1.533.414-2.521.426a222.8 222.8 0 0 1-2.93.019c-.445 0-.877-.006-1.297-.019-.421-.012-.705-.167-.853-.463a1.413 1.413 0 0 1-.093-.427 6.19 6.19 0 0 1-.019-.5v-.371a.998.998 0 0 1-.056-.445c.012-.172.019-.333.019-.481zM71.866 26.605a.402.402 0 0 1 .222-.019.405.405 0 0 0 .223-.019 1.05 1.05 0 0 1 .334-.018.824.824 0 0 0 .296-.019c.124-.025.242-.038.353-.038.111 0 .228-.012.352-.036a6.56 6.56 0 0 1 .797-.168 5.09 5.09 0 0 0 .76-.166 14.328 14.328 0 0 0 1.724-.668 10.092 10.092 0 0 0 1.539-.89 9.198 9.198 0 0 0 2.224-2.15 12.91 12.91 0 0 0 1.558-2.818c.148-.371.271-.748.371-1.13.099-.384.21-.786.334-1.205.074-.272.124-.543.148-.817a9.18 9.18 0 0 1 .111-.816c.024-.123.031-.246.019-.371a.774.774 0 0 1 .055-.371c0-.147.006-.302.019-.464a6.19 6.19 0 0 0 .019-.5c0-.05.006-.136.019-.26a4.201 4.201 0 0 0 0-.815 2.97 2.97 0 0 1-.019-.297v-.408a1 1 0 0 1-.056-.445 1.233 1.233 0 0 0-.055-.482 2.01 2.01 0 0 0-.019-.277 2.194 2.194 0 0 1-.019-.316 10.05 10.05 0 0 1-.167-1.038 3.977 3.977 0 0 0-.241-1.001 19.057 19.057 0 0 0-.667-1.834 12.28 12.28 0 0 0-.853-1.65 4.58 4.58 0 0 0-.427-.576 4.399 4.399 0 0 1-.426-.575l-.333-.297a4.382 4.382 0 0 0-.667-.667l-.222-.223c-.52-.37-1.088-.754-1.706-1.148a4.635 4.635 0 0 0-.779-.371 10.76 10.76 0 0 1-.816-.333 4.682 4.682 0 0 0-.927-.278c-.321-.061-.655-.13-1.001-.204a1.094 1.094 0 0 0-.426-.057.996.996 0 0 1-.427-.056.913.913 0 0 0-.408-.055.866.866 0 0 1-.407-.056h-.445a1.625 1.625 0 0 0-.427-.019 5.746 5.746 0 0 1-.463.019h-9.975a.21.21 0 0 1-.148.019.213.213 0 0 0-.148.018c-.272.1-.458.223-.557.371-.124.197-.179.463-.167.797.012.334.019.648.019.947v21.764c0 .273-.006.612-.019 1.02-.012.409.019.711.093.909.124.296.327.463.612.501.284.037.636.056 1.057.056h8.639c.223 0 .482.012.779.035.296.025.542.014.741-.035zm-.927-4.84c-.99.013-1.965.019-2.929.019-.445 0-.878-.006-1.298-.019-.42-.012-.704-.167-.852-.463a1.383 1.383 0 0 1-.093-.427 6.19 6.19 0 0 1-.019-.5v-.371a.998.998 0 0 1-.056-.445c.012-.173.019-.334.019-.482V8.731c0-.346.006-.692.018-1.038.013-.347.019-.679.019-1.001v-.74c0-.223.049-.397.148-.521a.503.503 0 0 1 .296-.24c.123-.038.247-.082.371-.13a.52.52 0 0 1 .278 0c.111.024.191.012.241-.038h1.669c.148 0 .297-.005.445-.018.148-.012.284-.005.408.018h.815a.587.587 0 0 0 .259.02.785.785 0 0 1 .297.018c.198.048.377.08.538.092.161.013.339.031.538.056a13.264 13.264 0 0 1 1.334.37 6.407 6.407 0 0 1 1.762 1.094c.482.434.908.946 1.279 1.54.198.32.353.661.463 1.018l.353 1.132a.722.722 0 0 1 .055.351.716.716 0 0 0 .056.353c.049.199.08.421.093.668.012.248.043.482.093.704v.705c.049.124.074.321.074.593s-.025.47-.074.593v.37c-.05.199-.074.397-.074.594 0 .198-.025.383-.075.556v.297a8.362 8.362 0 0 0-.186.741c-.049.249-.124.47-.223.667-.371.916-.822 1.681-1.353 2.3-.532.616-1.255 1.111-2.169 1.483-.691.273-1.532.415-2.52.427zM110.876 18.992c.099-.248.18-.496.242-.745s.143-.485.243-.708c.124-.249.217-.498.28-.746.062-.249.143-.486.243-.708a.436.436 0 0 0 .074-.243c0-.086.024-.168.075-.243.124-.322.236-.646.335-.97.099-.322.211-.645.336-.968.075-.149.13-.3.168-.448.037-.149.08-.297.13-.447.148-.397.291-.796.428-1.193.137-.398.28-.783.429-1.157.049-.124.105-.254.168-.392.062-.135.143-.255.242-.354.024-.025.056-.061.093-.112.037-.049.093-.061.167-.036.149.048.224.173.224.371 0 .2.024.386.075.56.049.2.068.405.056.616-.013.211-.019.417-.019.614v.953c0 .311.012.641.037.988v12.12c0 .2.05.36.149.485.099.149.217.236.354.261.137.025.304.063.504.112H118.705c.273 0 .522-.006.746-.018a.932.932 0 0 0 .56-.206c.149-.124.229-.317.242-.579.012-.261.019-.527.019-.801V1.037c0-.411-.137-.691-.41-.839-.125-.1-.305-.149-.541-.149h-6.414c-.237 0-.429.062-.579.187a.972.972 0 0 0-.41.484l-.224.598c-.125.397-.249.79-.373 1.174-.125.387-.249.778-.373 1.176a2556.208 2556.208 0 0 1-2.983 9.173c-.2.572-.379 1.138-.541 1.697a33.11 33.11 0 0 1-.541 1.696 10.77 10.77 0 0 0-.224.672c-.075.249-.212.398-.411.448-.05.049-.1.062-.149.036l-.149-.073a.605.605 0 0 1-.261-.3l-.149-.372a15.717 15.717 0 0 1-.522-1.529 16.086 16.086 0 0 0-.522-1.529 94.865 94.865 0 0 1-1.659-4.812c-.51-1.616-1.05-3.207-1.622-4.773-.15-.423-.293-.839-.43-1.249a32.555 32.555 0 0 0-.429-1.212 57.516 57.516 0 0 1-.224-.691 1.017 1.017 0 0 0-.373-.54c-.224-.173-.541-.261-.951-.261H92.711a.207.207 0 0 1-.149.019.216.216 0 0 0-.149.018c-.298.075-.497.2-.597.373a1.42 1.42 0 0 0-.112.43 4.315 4.315 0 0 0-.037.577v23.532c0 .274.012.54.037.801.025.261.112.455.261.579a.929.929 0 0 0 .559.206c.228.01.476.016.75.016h1.938c.199 0 .398.006.597.019a1.61 1.61 0 0 0 .56-.056c.273-.05.46-.161.56-.336a.755.755 0 0 0 .149-.485V13.399c.024-.273.038-.547.038-.822v-.82c0-.199-.006-.392-.019-.577a1.553 1.553 0 0 1 .056-.541c.05-.174.075-.348.075-.523 0-.173.062-.297.186-.372.075-.05.137-.056.187-.019s.099.082.149.131c.149.224.286.51.41.858.273.594.509 1.217.708 1.862.199.647.411 1.282.634 1.903.199.522.385 1.057.56 1.604.174.545.36 1.069.56 1.565.124.249.217.498.28.747.062.249.143.497.242.745.024.05.043.113.056.187a.662.662 0 0 0 .056.186c.099.25.187.498.261.746.075.25.174.485.299.709.024.074.043.144.056.205.012.063.031.131.056.206.125.298.236.615.336.95.099.337.21.654.335.952l.112.335c.124.298.229.604.317.914.087.312.192.615.317.914.099.225.186.417.261.579.075.161.21.304.41.429.099.075.248.125.447.148.199.025.417.037.653.037.236 0 .472-.005.708-.018.236-.013.441-.019.615-.019h.858c.173-.049.323-.081.447-.093s.249-.068.373-.167a.93.93 0 0 0 .279-.373c.062-.148.131-.311.206-.485.124-.273.224-.553.299-.839.074-.285.173-.565.297-.84a.394.394 0 0 0 .075-.222.39.39 0 0 1 .075-.224 36.23 36.23 0 0 0 .746-2.183c.222-.733.484-1.46.782-2.182z"/></svg>