<svg xmlns="http://www.w3.org/2000/svg" viewBox="0 0 163.712 171.095"><g fill="#FFF"><path d="M67.855 165.453a2.309 2.309 0 0 0-.401-.038c-.087 0-.181.153-.274.465-.088.306-.219.673-.384 1.094-.164.415-.39.782-.686 1.093-.988 1.055-2.387 1.586-4.198 1.586-1.515 0-2.833-.405-3.936-1.219a7.144 7.144 0 0 1-2.431-3.072c-.511-1.203-.768-2.564-.768-4.072 0-.984.165-1.935.494-2.859a8.191 8.191 0 0 1 1.389-2.471 6.941 6.941 0 0 1 2.069-1.738 5.236 5.236 0 0 1 2.525-.639c1.191 0 2.19.18 3.008.546.812.361 1.437.864 1.877 1.504.258.399.428.722.51.968.082.245.148.487.203.726.055.088.176.137.357.137.384 0 .576-.137.576-.41l.054-3.935a30.236 30.236 0 0 0-3.375-.519 33.828 33.828 0 0 0-3.293-.164c-1.263 0-2.437.246-3.524.738a9.071 9.071 0 0 0-2.87 2.034 9.524 9.524 0 0 0-1.921 3.006 9.75 9.75 0 0 0-.687 3.652c0 1.219.225 2.372.675 3.455a8.95 8.95 0 0 0 4.638 4.8 8.19 8.19 0 0 0 3.386.71c3.019 0 5.209-.405 6.559-1.202.055-.038.132-.24.236-.601.099-.366.203-.787.313-1.274.11-.481.203-.924.275-1.323.077-.405.109-.656.109-.765l-.137-.082a.957.957 0 0 0-.368-.131zM94.444 169.952c-.143 0-.351-.044-.615-.126a3.998 3.998 0 0 1-.768-.328c-.247-.137-.406-.296-.483-.476a19.875 19.875 0 0 0-.341-.847 62.82 62.82 0 0 1-.455-1.12l-5.489-14.431-.247-.082c-.291 0-.5.071-.631.219a2.998 2.998 0 0 0-.385.602 5.876 5.876 0 0 0-.175.421c-.028.082-.055.18-.083.289-.028.11-.098.301-.209.574l-4.775 12.217a17.962 17.962 0 0 1-.67 1.558 6.366 6.366 0 0 1-.62 1.011c-.127.164-.362.289-.713.382-.346.088-.631.137-.851.137-.072 0-.11.125-.11.383 0 .197.038.333.11.41.423-.038.873-.076 1.361-.125a9.053 9.053 0 0 1 1.493-.011l2.827.137c.039-.093.05-.246.044-.464-.011-.219-.044-.328-.099-.328-.164 0-.428-.044-.795-.126-.363-.082-.631-.186-.796-.312-.143-.109-.22-.295-.22-.546 0-.186.033-.432.099-.738.061-.312.187-.694.368-1.148l1.181-3.007.137-.082c.697-.038 1.333-.071 1.91-.098a32.39 32.39 0 0 1 1.575-.038c.681 0 1.372.028 2.086.082.055 0 .11.033.165.109l1.235 3.389c.077.18.137.431.192.749.055.322.082.596.082.836 0 .071-.006.142-.011.218-.011.071-.022.142-.044.219-.055.142-.247.262-.577.355-.329.088-.604.137-.823.137-.072 0-.115.115-.121.339-.011.229.022.377.094.453l3.183-.137c.093 0 .39.011.895.038.499.028 1.213.06 2.124.098a.92.92 0 0 0 .044-.153c.005-.044.011-.088.011-.12 0-.35-.033-.519-.11-.519zm-6.888-7.489c-.84.055-1.674.082-2.497.082-.181 0-.434-.006-.752-.016-.324-.006-.719-.022-1.196-.038-.033 0-.055-.038-.055-.109l2.36-6.095 2.223 6.04-.083.136zM116.549 153.892c-1.405-.809-3.106-1.214-5.104-1.214-.182 0-.445.005-.796.011-.346.011-.785.017-1.318.017l-2.662.027c-.613 0-1.189-.02-1.721-.016-2.739.019-2.832-.446-3.101-.487-.195-.03-.329.597-.122.865.514.648 3.051.33 3.475.976.163.248.224.552.251.957.028.399.038.864.038 1.394v10.331c0 1.509-.06 2.367-.192 2.569-.055.11-.203.208-.45.301-.247.088-.51.17-.785.23a3.022 3.022 0 0 1-.659.098c-.054 0-.082.125-.082.383 0 .219.028.355.082.41l3.321-.082a18.69 18.69 0 0 1 1.235-.016c.461.011.961.022 1.509.044l1.949.054c1.976.055 3.672-.327 5.093-1.148a8.419 8.419 0 0 0 3.266-3.361c.758-1.422 1.137-3.007 1.137-4.756 0-1.585-.373-3.044-1.126-4.373-.746-1.334-1.827-2.4-3.238-3.214zm-4.693 15.595c-.236 0-.549-.016-.933-.044-.384-.028-.774-.06-1.164-.11a8.39 8.39 0 0 1-1.005-.163c-.274-.061-.428-.142-.467-.23a5.22 5.22 0 0 1-.411-2.077V156.04c0-.842.121-1.416.357-1.722.219-.295 1.317-.437 3.293-.437h.137c1.427 0 2.623.333 3.584 1.011.961.672 1.685 1.574 2.179 2.706.494 1.126.741 2.384.741 3.772.001 5.412-2.101 8.117-6.311 8.117zM135.306 153.936c.038-.093.176-.18.412-.262.242-.082.494-.153.768-.219.274-.06.466-.093.576-.093.077 0 .109-.132.109-.383 0-.131-.016-.267-.054-.41-.911.033-1.636.065-2.168.093-.527.028-.868.044-1.015.044l-3.293-.137c-.072.071-.11.218-.11.437 0 .235.038.356.11.356.165 0 .384.027.659.081.274.055.532.12.768.202.242.082.378.18.411.29.077.235.127.557.154.968.027.41.038.896.038 1.465v10.605c0 .562-.011 1.044-.038 1.449a4.666 4.666 0 0 1-.154.984c-.033.087-.169.18-.411.273a4.033 4.033 0 0 1-.768.202c-.274.05-.494.071-.659.071-.072 0-.11.126-.11.383 0 .197.038.333.11.41l3.293-.137c.148 0 .489.011 1.015.038.532.028 1.257.06 2.168.098.038-.147.054-.274.054-.383 0-.273-.032-.41-.109-.41a3.51 3.51 0 0 1-.576-.081 5.344 5.344 0 0 1-.768-.219c-.236-.093-.373-.175-.412-.245-.165-.64-.247-1.487-.247-2.542v-10.386c-.001-1.077.082-1.925.247-2.542zM163.602 169.952c-.143 0-.351-.044-.615-.126a3.972 3.972 0 0 1-.768-.328c-.247-.137-.406-.296-.483-.476a19.875 19.875 0 0 0-.341-.847 62.82 62.82 0 0 1-.455-1.12l-5.489-14.431-.247-.082c-.291 0-.5.071-.631.219a2.998 2.998 0 0 0-.385.602 5.876 5.876 0 0 0-.175.421c-.028.082-.055.18-.083.289-.028.11-.098.301-.209.574l-4.722 12.114c-.436 1-.746 1.688-1.052 2.176-.856 1.403-2.488 1.383-3.576 1.005-.329-.114-.227.573.005.728.178.119.858.349 1.627.414.833.07 1.782-.179 2.593-.909.182-.164.346-.346.499-.537.026-.033.048-.068.073-.102.103-.135.206-.271.298-.415l-.009-.004c.024-.038.054-.073.077-.112.048-.094.099-.192.139-.275.15-.307.49-1.096.622-1.41.046-.123.091-.241.131-.34l1.127-2.904.137-.082c.697-.038 1.333-.071 1.91-.098a32.39 32.39 0 0 1 1.575-.038c.681 0 1.372.028 2.086.082.055 0 .11.033.165.109l1.235 3.389c.077.18.137.431.192.749.054.322.082.596.082.836 0 .071-.006.142-.01.218a1.93 1.93 0 0 1-.044.219c-.055.142-.247.262-.577.355-.329.088-.604.137-.823.137-.072 0-.115.115-.121.339-.011.229.022.377.093.453l3.183-.137c.093 0 .39.011.895.038.499.028 1.213.06 2.124.098.022-.055.033-.103.045-.153.005-.044.01-.088.01-.12.002-.349-.031-.518-.108-.518zm-6.888-7.489a38.27 38.27 0 0 1-2.497.082c-.181 0-.434-.006-.752-.016-.324-.006-.719-.022-1.196-.038-.033 0-.055-.038-.055-.109l2.36-6.095 2.223 6.04-.083.136zM46.979 169.504c-1.134.68-3.114.873-4.945-.254-.717-.45-1.464-1.093-2.475-2.195-1.207-1.312-2.256-2.919-3.156-4.811-.072-.109-.017-.202.164-.273.988-.459 1.773-1.105 2.349-1.941.577-.842.862-1.64.862-2.405 0-1.077-.285-1.99-.862-2.733a5.395 5.395 0 0 0-2.223-1.695 7.233 7.233 0 0 0-2.843-.574c-.51 0-1.152.022-1.921.066-.768.049-1.416.06-1.948.044l-3.293-.054c-.072.071-.11.224-.11.465 0 .219.038.328.11.328.165 0 .39.028.675.082.28.055.55.126.796.219.246.088.389.192.423.301.076.235.126.552.154.957.028.399.038.864.038 1.394v10.331c0 1.509-.06 2.367-.192 2.569-.055.11-.204.202-.45.284a6.765 6.765 0 0 1-.768.207 3.434 3.434 0 0 1-.675.083c-.054 0-.082.115-.082.355 0 .273.028.437.082.492l3.348-.137c.275-.022.708-.011 1.307.028.592.033 1.35.071 2.261.109.038-.147.054-.284.054-.41 0-.257-.033-.383-.109-.383-.143 0-.384-.033-.713-.098a4.023 4.023 0 0 1-.917-.284c-.286-.132-.461-.268-.538-.41-.143-.383-.22-1.175-.22-2.377v-4.018c0-.202.06-.328.181-.383.115-.054.28-.082.477-.082.516 0 .923.072 1.224.219.302.142.565.361.796.639.225.284.488.634.779 1.055.604.875 1.021 1.481 1.252 1.831.225.345.417.618.56.82 1.223 1.684 2.578 2.821 4.063 3.424.011.006.017.014.03.02.746.35 1.85.631 3.522.631 1.672 0 2.778-.502 2.938-.706.173-.221.289-.916-.005-.73zm-11.383-8.817c-.467.289-.922.437-1.361.437h-.686c-1.592 0-2.387-.268-2.387-.793v-3.307c0-.859.016-1.563.044-2.121.028-.552.121-.852.286-.886.439-.131 1.081-.191 1.921-.191 2.564 0 3.842 1.263 3.842 3.799 0 .689-.159 1.301-.478 1.831-.325.526-.714.935-1.181 1.231zM17.619 169.952c-.143 0-.351-.044-.615-.126-.096-.029-.188-.066-.28-.103a4.123 4.123 0 0 1-.237-.102c-.084-.039-.168-.077-.251-.123-.067-.037-.111-.08-.165-.12a1.029 1.029 0 0 1-.211-.204c-.038-.05-.083-.098-.106-.152a19.875 19.875 0 0 0-.341-.847l-.165-.4-.116-.285-.175-.435-5.489-14.431-.247-.082c-.291 0-.5.071-.631.219a3 3 0 0 0-.472.805c-.018.041-.031.075-.044.108-.016.04-.034.083-.043.11-.028.082-.055.18-.083.289a2.413 2.413 0 0 1-.059.183c-.012.034-.025.072-.041.112-.031.083-.064.17-.109.279l-3.093 7.913c-.965-.002-2.247-.126-3.069-1.02a.53.53 0 0 0-.046-.051c-.145-.134-.465.475-.258.743.202.394.644.726 1.187.992.47.254 1.05.468 1.692.6l-1.189 3.041a21.617 21.617 0 0 1-.655 1.528l-.014.029a6.366 6.366 0 0 1-.62 1.011.754.754 0 0 1-.154.141 1.716 1.716 0 0 1-.559.241c-.346.088-.632.137-.851.137-.062 0-.098.102-.106.298-.002.028-.004.052-.004.085 0 .025.006.04.007.062.008.159.04.28.102.347l.548-.049c.261-.023.529-.048.814-.076.2-.018.404-.025.609-.03.043-.001.084-.006.127-.006.249-.002.501.006.756.025l.66.032 2.167.105c.004-.01.005-.029.009-.041.019-.063.029-.15.032-.256.002-.054.005-.102.003-.167-.002-.042-.006-.076-.009-.109a.468.468 0 0 0-.045-.182c-.013-.022-.028-.037-.045-.037-.105 0-.256-.02-.445-.054a9.17 9.17 0 0 1-.351-.071c-.32-.072-.562-.163-.729-.269-.022-.014-.048-.028-.067-.043-.143-.109-.22-.295-.22-.546 0-.186.033-.432.099-.738.018-.094.054-.208.084-.315.041-.148.093-.309.156-.482.042-.116.078-.224.128-.351l.012-.031 1.168-2.976.137-.082.564-.03c.455-.012.847-.036 1.212-.062l.134-.007a32.39 32.39 0 0 1 1.575-.038c.634 0 1.279.026 1.941.074l.193.024a.239.239 0 0 1 .104.081l1.241 3.385.006.017c.077.18.137.431.192.749.01.059.014.108.022.163.033.224.053.427.056.608l.003.065c0 .034-.003.07-.005.104l-.006.114c-.011.071-.022.142-.044.219-.034.089-.129.168-.271.239a1.686 1.686 0 0 1-.305.116c-.329.088-.604.137-.824.137-.036 0-.065.031-.086.091a.851.851 0 0 0-.035.247c-.011.229.022.377.093.453l3.183-.137c.074 0 .282.007.615.024l.28.014.356.019c.335.017.738.035 1.205.056l.563.024c.015-.037.022-.07.03-.103.004-.016.011-.033.014-.05l.006-.065c.002-.019.005-.04.005-.055.005-.35-.028-.519-.105-.519zM6.285 162.49c-.033 0-.055-.038-.055-.109l2.325-6.003.035-.091.043.117 2.168 5.913c-1.421-.069-3.08.093-4.356.18a7.869 7.869 0 0 0-.16-.007zM81.856 0C47.398 0 19.464 27.934 19.464 62.391c0 34.458 27.934 62.391 62.391 62.391s62.391-27.934 62.391-62.391C144.247 27.934 116.314 0 81.856 0zm0 2.062c33.319 0 60.329 27.01 60.329 60.329 0 2.3-.141 4.567-.392 6.8-4.887-2.553-9.689-7.903-11.287-7.361-.01.003-6.79 2.147-17.215 8.787-4.211-2.152-8.107-4.4-10.933-6.548a183.148 183.148 0 0 1-3.229-2.511c2.064-3.2 3.283-6.991 3.283-11.074 0-11.334-9.221-20.555-20.555-20.555S61.302 39.15 61.302 50.484c0 3.302.791 6.419 2.18 9.186-3.329 2.043-6.775 4.369-9.854 6.863-1.478 1.198-3.394 2.502-5.535 3.834-5.602-3.785-9.761-8.89-13.568-8.559-1.324.115-8.117 4.109-12.648 7.052a60.892 60.892 0 0 1-.35-6.469c0-33.318 27.01-60.329 60.329-60.329zm55.362 84.311c-7.199-1.242-13.535 2.583-22.589 4.927h.002c-5.634 1.368-10.914 3.092-17.475.669-6.053-2.235-19.114-6.127-37.059-2.364 4.657-3.799 6.375-8.311 5.369-13.716-1.271-6.828 8.605-19.487 14.016-22.29a45.453 45.453 0 0 1 1.041-.433c4.51-2.026 3.555-.437 20.054 12.243 10.103 7.764 32.045 16.612 37.537 18.766a59.454 59.454 0 0 1-.896 2.198zm-13.044 3.637c6.339-2.052 9.298-2.532 12.223-1.963a54.843 54.843 0 0 1-3.33 5.111c-.776-2.095-4.19-3.16-8.893-3.148zM65.316 58.564a18.267 18.267 0 0 1-1.883-8.081c0-10.159 8.265-18.423 18.423-18.423 10.159 0 18.423 8.265 18.423 18.423 0 3.578-1.042 6.907-2.816 9.735-11.292-9.189-11.646-11.664-18.755-8.678 0 .001-6.193 2.768-13.392 7.024zm49.8 12.97c.106-.07.228-.155.315-.209 2.399-1.49 8.062-4.415 11.202-5.947-2.783 2.392-5.233 6.078-6.122 8.719-1.8-.823-3.615-1.683-5.395-2.563zm-92.973-.579c3.184-2.135 7.412-4.778 10.224-6.316-.593 1.328-3.763 7.734-9.285 11.337a59.821 59.821 0 0 1-.939-5.021zM35.43 63.75c4.726 2.112 6.483 4.783 10.824 7.734-8.013 4.772-18.185 9.625-21.263 11.068a60.026 60.026 0 0 1-1.56-5.067c9.078-4.969 10.912-14.221 11.999-13.735zm19.573 4.494C61.622 63 68.27 59.13 73.122 56.623c-4.671 4.762-10.732 12.828-9.735 19.685 1.13 7.773-3.665 11.771-7.678 14.342-.194.052-.392.114-.587.168l-.163.038c-8.028 1.949-23.75 5.262-28.19-3.877a60.689 60.689 0 0 1-1.012-2.405c4.277-1.824 19.422-8.549 29.246-16.33zm-11.466 26.7a104.053 104.053 0 0 0-9.226 4.561 60.444 60.444 0 0 1-4.636-6.848c3.682 2.252 8.812 2.698 13.862 2.287zm52.997-.962c10.28 3.488 15.243-.872 24.565-1.677 12.716-1.098 10.222 2.972 9.657 3.729-1.875 2.137-4.049 4.12-6.345 5.199-6.707 3.152-12.44 3.169-26.34-2.163-11.624-4.459-18.26-3.873-31.64 1.559-8.326 3.38-25.878 4.59-29.374 2.162a62.5 62.5 0 0 1-1.546-1.784c15.303-7.537 35.241-15.773 61.023-7.025zM81.856 122.72c-16.187 0-30.874-6.388-41.709-16.764.432.011.872.026 1.293.033l.007.001.105.002.112.002c17.905.101 28.197 3.772 38.55 7.379 8.399 2.926 16.616 4.92 22.93 5.473a60.208 60.208 0 0 1-21.288 3.874zm24.775-5.325c-3.473-.445-9.708-1.587-19.175-4.542-11.881-3.709-19.642-6.824-28.822-7.917 12.365-2.011 16.745-6.146 25.2-6.218 10.362-.088 21.56 6.942 30.936 6.942 4.757 0 8.264-.746 10.908-1.829a60.455 60.455 0 0 1-19.047 13.564zm32.358-35.633a312.94 312.94 0 0 1-16.615-6.823c2.065-5.949 7.969-11.161 8.686-11.205 1.407-.086 4.858 4.506 10.494 7.346a60.01 60.01 0 0 1-2.565 10.682z"/></g></svg>