<svg xmlns="http://www.w3.org/2000/svg" viewBox="0 0 327.26 262.66"><g fill="#FFF"><path d="M28.38 211.27c0-7.37-4.6-9.8-7.5-10.86a8.88 8.88 0 0 0 4.9-8.32c0-3-1.53-6.19-3.71-8.14-3.78-3.36-8.62-3.36-13.46-3.36H0v43.66h11.68c2.84 0 7.97-.3 11.27-2.6a12.31 12.31 0 0 0 5.43-10.38zm-20.3-23.13h3.37c4.6 0 6.25 2.13 6.25 4.72 0 4.72-5.07 4.72-6.96 4.72H8.08v-9.44zm4.07 28.56H8.08v-11.56h4.25c7.08 0 7.97 4.07 7.97 5.84 0 5.72-6.55 5.72-8.15 5.72zM74.7 224.25l-11.86-16.1c2.18-.54 4.66-1.13 7.26-3.6 3.12-3.01 4.19-7.56 4.19-10.45a13.5 13.5 0 0 0-5.14-10.56c-2.48-2-5.6-2.95-10.62-2.95h-13.4v43.66h8.1v-16.7h.1l11.57 16.7h9.8zm-21.48-22.77v-13.34h5.2c6.3 0 7.78 4.19 7.78 6.6 0 2.31-1.12 6.74-7.79 6.74h-5.19zM133.93 202.54a22.78 22.78 0 0 0-22.83-22.84 22.78 22.78 0 0 0-22.84 22.84c0 12.5 10.27 22.6 22.84 22.6 12.56 0 22.83-10.1 22.83-22.6zm-37.59-.06c0-8.38 6.55-15.22 14.75-15.22s14.76 6.84 14.76 15.22c0 8.08-6.44 15.1-14.75 15.1s-14.76-7.02-14.76-15.1zM194.27 202.54a22.78 22.78 0 0 0-22.83-22.84 22.78 22.78 0 0 0-22.84 22.84c0 12.5 10.27 22.6 22.84 22.6s22.83-10.1 22.83-22.6zm-22.83 15.05c-8.32 0-14.75-7.03-14.75-15.1 0-8.39 6.55-15.23 14.75-15.23s14.75 6.84 14.75 15.22c0 8.08-6.43 15.1-14.75 15.1zM243.17 224.25l-16.46-22.18 16.46-21.48h-9.5l-13.63 18.88h-.12v-18.88h-8.08v43.66h8.08v-19.17h.12l13.63 19.17zM282.84 188.14v-7.55h-23.48v43.66h23.48v-7.55h-15.4v-10.33h14.76v-7.55h-14.76v-10.68zM327.04 211.21c0-9.5-7.85-12.27-11.45-13.45-4.43-1.48-7.26-2.3-7.26-6.08 0-2.6 1.95-4.42 4.49-4.42 2.18 0 4.54 1 4.9 4.9h8.25c-.4-8.92-7.84-12.46-12.92-12.46-7.37 0-12.8 5.5-12.8 12.45 0 9.2 7.02 11.27 10.38 12.57 5.43 2.07 8.32 2.9 8.32 7.38 0 3.3-2.83 5.48-6.02 5.48-2.48 0-5.37-1.47-5.78-5.84h-8.5c.48 9.62 8.62 13.4 14.23 13.4 6.84 0 14.16-4.49 14.16-13.93zM252.31 135.1a148.3 148.3 0 0 0-4.69-37.03l-.07-.25A71.05 71.05 0 0 0 257.8 86.6c-.68-2.16-1.4-4.3-2.18-6.43l-.46-1.22c-.96-2.59-2-5.14-3.08-7.66l-.15-.34a159.75 159.75 0 0 0-13-24 37.7 37.7 0 0 1-5.9 18.54 70.82 70.82 0 0 0-20.58.12 129.06 129.06 0 0 1 9.88 18.5l.06.14c.84 1.94 1.63 3.9 2.38 5.9l.23.6a127.58 127.58 0 0 1 2.24 6.66c2.48.26 4.88.76 7.19 1.48l.65.23c2.42.8 4.72 1.83 6.9 3.08l.01.08a141.47 141.47 0 0 1 3.6 41.05H81.82a140.77 140.77 0 0 1 3.6-41.05l.03-.08a37.68 37.68 0 0 1 6.89-3.08l.65-.23c2.31-.72 4.71-1.22 7.19-1.48l.33-1.09a128 128 0 0 1 1.9-5.56l.24-.62c.75-1.98 1.54-3.95 2.38-5.89l.06-.14c.86-2 1.78-3.96 2.74-5.9l.16-.32a127.27 127.27 0 0 1 6.98-12.28 70.26 70.26 0 0 0-20.58-.12 38.33 38.33 0 0 1-4.21-9.02 37.74 37.74 0 0 1-1.68-9.53 161.87 161.87 0 0 0-13 24.01l-.16.34c-1.09 2.52-2.12 5.07-3.08 7.66l-.46 1.22c-.77 2.12-1.5 4.27-2.19 6.43a69.51 69.51 0 0 0 10.25 11.23l-.07.25a148.32 148.32 0 0 0-3.9 52.23H251.52c.51-5 .78-10.07.78-15.2zM94.51 76.02a141.3 141.3 0 0 1 2.06-4.28 65.38 65.38 0 0 1 7.55-.47 133.4 133.4 0 0 0-3.32 6.59 56.78 56.78 0 0 0-7.54.95c.4-.94.82-1.87 1.25-2.8zm-4.22 10.16a50.17 50.17 0 0 1 7.55-1.54 156.16 156.16 0 0 0-2.6 6.98 44.04 44.04 0 0 0-7.55 2.3 142.59 142.59 0 0 1 2.6-7.74zm-6.2-18.45c.65-1.32 1.32-2.64 2-3.94a44.04 44.04 0 0 0 3.87 6.7 150.93 150.93 0 0 0-3.06 6.7 51.34 51.34 0 0 1-4.33-6.21c.5-1.1 1-2.17 1.53-3.25zm-7.25 17.62c.08-.26.18-.5.27-.76a153.3 153.3 0 0 1 2.4-6.45 57.64 57.64 0 0 0 4.7 5.83c-.64 1.71-1.23 3.45-1.8 5.19l-.55 1.68-.94-.93a64.88 64.88 0 0 1-4.08-4.56zm149.77-7.5a133.29 133.29 0 0 0-3.32-6.58 64.6 64.6 0 0 1 7.55.47 141.3 141.3 0 0 1 3.3 7.07 56.38 56.38 0 0 0-7.53-.95zm7.38 14.2c-.6-.16-1.2-.3-1.82-.43a134.9 134.9 0 0 0-2.6-6.98 49.98 49.98 0 0 1 7.55 1.54 139.4 139.4 0 0 1 2.6 7.73 43.84 43.84 0 0 0-5.73-1.87zm6.52-14.86a149.35 149.35 0 0 0-3.06-6.7 44.3 44.3 0 0 0 3.87-6.7 155.13 155.13 0 0 1 3.52 7.19 51.07 51.07 0 0 1-4.33 6.21zm5.04 13.64-.55-1.67c-.57-1.75-1.16-3.48-1.8-5.2a57.8 57.8 0 0 0 4.7-5.82 153.3 153.3 0 0 1 2.4 6.44l.27.77a64.64 64.64 0 0 1-5.02 5.48z"/><path d="M107.5 135.1a112.73 112.73 0 0 1 .32-8.5c.02-.43.06-.86.1-1.3.05-.64.1-1.3.17-1.95.02-.11.02-.22.03-.34l.02-.12c.23-2.18.52-4.34.87-6.48.12-.76.27-1.52.4-2.28.1-.47.17-.94.26-1.4l.26-1.2.24-1.14c.06-.32.12-.64.2-.96h106.67c.25 1.1.48 2.2.7 3.3l.14.79a115.93 115.93 0 0 1 1.39 9.37c.1.81.16 1.63.22 2.45l.11 1.27a116.68 116.68 0 0 1 .32 8.49l-.02 1.24h6.48l.02-1.24a124.65 124.65 0 0 0-2.72-25.67 122.08 122.08 0 0 0-9.54-27.63 122.14 122.14 0 0 0-11.55-19.07l-.12-.15c-.98-1.32-1.99-2.62-3.02-3.9l-.22-.26a131.9 131.9 0 0 0-3.16-3.76l-.02-.02v-.02l-.99-1.08c0-.02-.02-.03-.03-.04l-1.5-1.65a.2.2 0 0 1-.01-.02l-1.45-1.5c-.4-.42-.79-.85-1.2-1.26l-.48-.47-.25-.26-.52-.5-.04-.04a121.1 121.1 0 0 0-2.08-1.98l-.03-.03-.96-.89-.67-.61c-.3-.28-.62-.54-.93-.81l-1.24-1.1-.82-.68-.02-.02-1.65-1.36-.03-.02c-.63-.52-1.27-1.02-1.91-1.52l-.03-.02c-.62-.49-1.24-.97-1.87-1.44l-.03-.02c-.26-.2-.5-.4-.76-.58-.3-.23-.63-.44-.94-.67l-.04-.02c-.76-.55-1.52-1.1-2.3-1.63l-.03-.02-1.56-1.05c-.5-.33-.99-.68-1.5-1l1.02-.54c1.9-.96 3.82-1.86 5.77-2.72l1.56 1.08a128.03 128.03 0 0 1 4 2.97l.55.42a133.7 133.7 0 0 1 5.77 4.76l.77-.28c2.1-.72 4.24-1.38 6.4-1.98l1.14-.3c2.1-.56 4.23-1.04 6.39-1.46l1.12-.21a102.63 102.63 0 0 1 18.5-1.67c1.7 0 3.4.04 5.1.12a161.8 161.8 0 0 0-14.91-15.72 103.02 103.02 0 0 1 7.36-10.29l.67-.81a103.8 103.8 0 0 1 5.05-5.65c-.64-.02-1.29-.02-1.93-.03L223.16 0a135.95 135.95 0 0 0-14.41.77l-2.5.28a134.85 134.85 0 0 0-24.37 5.4l-1.05 1.97c-1.01 1.92-1.97 3.86-2.9 5.83l-.25.54-.37.8a133.82 133.82 0 0 0-3.18 7.65 123.12 123.12 0 0 0-10.42 5.2 120.68 120.68 0 0 0-10.43-5.2 133.87 133.87 0 0 0-3.18-7.66l-.37-.8-.25-.53a133.07 133.07 0 0 0-3.95-7.8A133.85 133.85 0 0 0 109.8.13c-1.84-.07-3.7-.12-5.55-.12l-1.34.02c-.65 0-1.3 0-1.94.02l.64.67c1.53 1.62 3 3.28 4.42 4.98l.66.82a102.27 102.27 0 0 1 7.37 10.28 161.28 161.28 0 0 0-14.92 15.73 104.36 104.36 0 0 1 16.83.54c2.28.26 4.54.6 6.77 1l1.13.22c2.15.42 4.28.9 6.38 1.45l1.14.31c2.17.6 4.3 1.25 6.4 1.98l.77.27a129.8 129.8 0 0 1 5.77-4.75l.55-.42.09-.07c1.28-.99 2.59-1.96 3.91-2.9l1.56-1.08c1.95.85 3.88 1.76 5.77 2.71l1.02.54-1.5 1c-.52.35-1.05.7-1.56 1.06l-.02.01c-.78.54-1.56 1.09-2.32 1.64l-.03.02-.94.66-.76.59-.02.01-1.89 1.45-.02.01-1.9 1.52-.03.02-1.66 1.37-.02.02-.82.68c-.42.35-.82.73-1.23 1.1l-.94.8-.67.62-.96.89-.03.03c-.7.65-1.4 1.31-2.08 1.98l-.03.04-.52.5-.26.26-.48.47-1.2 1.25-1.45 1.51v.01l-1.51 1.66-.03.03c-.33.37-.67.72-1 1.1l.01.01v.01c-1.1 1.24-2.16 2.5-3.2 3.79l-.2.23c-1.05 1.3-2.08 2.63-3.07 3.98l-.06.08a123.26 123.26 0 0 0-14.24 24.97 120.94 120.94 0 0 0-8.97 35.19 123.37 123.37 0 0 0-.6 12.21v1.24H107.52l-.02-1.24zM213.9 26.31a108.89 108.89 0 0 0-8.25 1.01 148.47 148.47 0 0 0-6.12-5.45 116.2 116.2 0 0 1 8.24-1.4 155.57 155.57 0 0 1 6.13 5.84zM200 13.88c1.07-1.89 2.21-3.74 3.4-5.57l.23-.35a128.4 128.4 0 0 1 8.58-1.01 115.94 115.94 0 0 0-3.77 5.49c-.33.5-.64 1.01-.95 1.52a120.51 120.51 0 0 0-8.3 1.37l.8-1.45zm-2.23 15.02a107.69 107.69 0 0 0-7.52 2.09 134.4 134.4 0 0 0-6.12-4.77 119 119 0 0 1 7.53-2.42 150.22 150.22 0 0 1 6.11 5.1zM183.43 17.8a128.28 128.28 0 0 1 2.9-5.93c2.68-.8 5.4-1.53 8.14-2.15l.53-.12-.21.35c-1.1 1.88-2.14 3.79-3.14 5.73-.28.54-.54 1.09-.81 1.64a120.64 120.64 0 0 0-8.37 2.62l.96-2.14zm-58 6.2c-1.25 1.09-2.47 2.2-3.68 3.33a108.4 108.4 0 0 0-8.24-1 159.66 159.66 0 0 1 6.13-5.86 115.5 115.5 0 0 1 8.24 1.4 155 155 0 0 0-2.46 2.13zm.7-9.07c-2.06-.37-4.12-.7-6.2-.96l-.96-1.52a109.66 109.66 0 0 0-3.77-5.49 128.25 128.25 0 0 1 8.58 1l.23.37c1.18 1.82 2.32 3.67 3.4 5.56l.82 1.45c-.7-.14-1.4-.28-2.1-.4zm15.03 12.89a137.74 137.74 0 0 0-4 3.17 104.82 104.82 0 0 0-7.52-2.08 142.67 142.67 0 0 1 6.11-5.1 115.44 115.44 0 0 1 7.53 2.42c-.72.52-1.42 1.05-2.13 1.59zm1.06-8.8c-1.86-.62-3.75-1.18-5.65-1.7-.27-.55-.53-1.1-.81-1.64-1-1.94-2.05-3.85-3.14-5.73l-.2-.35.52.12c2.75.62 5.46 1.35 8.13 2.15l.03.06a127.25 127.25 0 0 1 3.83 8.01c-.9-.32-1.8-.63-2.71-.92zm-25.65 71.17 11.4 4.72a37.35 37.35 0 0 0-1.6 8.05h-14.33a114.5 114.5 0 0 1 4.53-12.77zm80.47-12.74 4.62-4.63h.01c2.37 3.68 4.53 7.52 6.47 11.47l-11.19 4.64a37.55 37.55 0 0 0-4.56-6.83l4.65-4.65zm4 25.51a37.28 37.28 0 0 0-1.6-8.05l10.76-4.46.63-.26c1.76 4.14 3.27 8.4 4.54 12.77h-14.34zM135.01 82.1a37.58 37.58 0 0 0-4.56 6.83l-11.19-4.64c1.94-3.95 4.1-7.79 6.47-11.47l9.28 9.28zm62.93-14.72L187.82 77.5a37.52 37.52 0 0 0-6.83-4.56l1.07-2.6 5.01-12.09 1.1-2.64v-.02c3.51 3.7 6.78 7.64 9.78 11.78zM183.2 50.66l-3.16 7.63L175 70.46a37.32 37.32 0 0 0-8.06-1.6V37.95a116.5 116.5 0 0 1 16.26 12.7zm-22.73-12.72v30.92a37.3 37.3 0 0 0-8.06 1.6l-8.2-19.8c5.02-4.7 10.46-8.96 16.25-12.72zM139.24 55.6l7.18 17.35a37.57 37.57 0 0 0-6.82 4.56l-10.13-10.13h-.01c3-4.14 6.27-8.08 9.78-11.78z"/><path d="m137.85 133.31.4.37a37.5 37.5 0 0 0 3.2 2.66h44.51a37.67 37.67 0 0 0 6.8-6.48h-58.11a37.68 37.68 0 0 0 3.18 3.44l.02.01zM189.8 122.89h7.46a37.34 37.34 0 0 0 2.5-6.48h-72.12a37.38 37.38 0 0 0 2.51 6.48H189.81zM.15 247.45h4.88c2.76 0 3.79.43 4.6 1.1a5.08 5.08 0 0 1 1.75 3.94c0 1.52-.62 3.11-1.57 3.92-1.03.86-2.04 1.29-4.36 1.29H3.8v4.68H.15v-14.93zm3.65 6.9h1.55c.73 0 2.38 0 2.38-1.8 0-1.75-1.7-1.75-2.52-1.75H3.8v3.55zM21.29 247.45H26c2.62 0 3.63.33 4.6 1.07a5.17 5.17 0 0 1 1.83 4.07c0 1.72-.89 4.24-3.71 4.7l4.05 5.09h-4.35l-3.45-4.82h-.04v4.82h-3.65v-14.93zm3.65 7.5h1.35c2.24 0 2.5-1.4 2.5-2.13 0-1.35-.99-2.02-2.46-2.02h-1.4v4.15zM42.73 247.45h8.3v3.35h-4.65v2.32h4.5v3.35h-4.5v2.56h4.64v3.35h-8.29v-14.93zM62.27 247.45h4.9l2.97 9.82h.04l2.92-9.82h4.92v14.93h-3.5l.12-11.18-.04-.04-3.2 11.22H68.9l-3.19-11.22-.04.04.12 11.18h-3.5v-14.93zM89.25 247.45h3.81v14.93h-3.8v-14.93zM108.07 247.45v9.02c0 1 .06 2.84 1.93 2.84 1.9 0 1.9-1.65 1.9-2.84v-9.02h3.81v9.02c0 2.5-.54 3.6-1.5 4.57a5.58 5.58 0 0 1-4.17 1.62c-1.09 0-3.06-.26-4.3-1.6-1.22-1.35-1.48-2.4-1.48-4.6v-9h3.8zM126.2 247.45h4.9l2.96 9.82h.04l2.93-9.82h4.92v14.93h-3.51l.12-11.18-.04-.04-3.18 11.22h-2.53l-3.18-11.22-.04.04.12 11.18h-3.51v-14.93zM168.84 247.45h3.81v14.93h-3.8v-14.93zM183.63 247.45h4.9l2.97 9.82h.04l2.92-9.82h4.92v14.93h-3.5l.11-11.18-.04-.04-3.18 11.22h-2.52l-3.19-11.22-.04.04.12 11.18h-3.5v-14.93zM209.9 247.45h4.88c2.77 0 3.8.43 4.6 1.1a5.07 5.07 0 0 1 1.76 3.94 5.4 5.4 0 0 1-1.58 3.92c-1.03.86-2.03 1.29-4.35 1.29h-1.66v4.68h-3.65v-14.93zm3.65 6.9h1.55c.73 0 2.39 0 2.39-1.8 0-1.75-1.7-1.75-2.53-1.75h-1.4v3.55zM237.9 247.17a7.74 7.74 0 1 1-.02 15.49 7.7 7.7 0 0 1-7.85-7.56c0-1 .14-2.1.59-3.2a7.76 7.76 0 0 1 7.28-4.73zm.06 12.14c2.7 0 4.01-2.46 4.01-4.38 0-1.93-1.3-4.41-4.05-4.41-2.64 0-4.07 2.26-4.07 4.35 0 2.3 1.55 4.44 4.11 4.44zM255.23 247.45h4.72c2.63 0 3.63.33 4.6 1.07a5.17 5.17 0 0 1 1.84 4.07c0 1.72-.9 4.24-3.71 4.7l4.05 5.09h-4.36l-3.45-4.82h-.04v4.82h-3.65v-14.93zm3.65 7.5h1.36c2.23 0 2.5-1.4 2.5-2.13 0-1.35-1-2.02-2.46-2.02h-1.4v4.15zM279.28 250.8h-2.95v-3.35h9.68v3.35h-2.92v11.58h-3.81V250.8zM295.77 247.45h8.29v3.35h-4.64v2.32h4.5v3.35h-4.5v2.56h4.64v3.35h-8.3v-14.93zM314.35 247.45h4.95c1.67 0 4.65 0 6.59 2.79a7.63 7.63 0 0 1 1.37 4.63c0 4.08-2.02 7.5-7.68 7.5h-5.23v-14.92zm3.82 11.58h1.63c2.84 0 3.65-1.98 3.65-4.1 0-.84-.18-1.91-.73-2.76-.44-.66-1.2-1.37-2.9-1.37h-1.65v8.23z"/></g></svg>