<svg xmlns="http://www.w3.org/2000/svg" viewBox="0 0 266.39 64.4"><g fill="#FFF"><path d="M155.5 28.38a7.43 7.43 0 0 0 9.93 0 6.65 6.65 0 0 0 2.16-4.94 6.65 6.65 0 0 0-4.47-6.36 7.44 7.44 0 0 0-7.63 1.4 6.6 6.6 0 0 0-2.14 4.96 6.65 6.65 0 0 0 2.14 4.94zm2.55-6.64c.33-.5.72-.84 1.17-1.03.45-.18.86-.28 1.23-.28s.79.1 1.24.28a3.02 3.02 0 0 1 1.66 2.72c0 .42-.1.86-.29 1.33a2.86 2.86 0 0 1-2.61 1.66 2.87 2.87 0 0 1-2.61-1.66c-.19-.47-.28-.91-.28-1.32 0-.64.16-1.2.49-1.7zM95.77 53.2 81.28 34.39h-6.19v29.62h6.75V44.99l14.74 19.02h5.94V34.39h-6.75zM122.81 46.26c-.97-.9-2.1-1.58-3.4-2.07a11.35 11.35 0 0 0-4.04-.73c-1.43 0-2.88.28-4.36.84a9.42 9.42 0 0 0-3.76 2.58 9.95 9.95 0 0 0-2.13 3.57 11.83 11.83 0 0 0-.58 3.59c0 1.49.26 2.87.8 4.15a9.63 9.63 0 0 0 2.25 3.3c.98.94 2.13 1.66 3.46 2.16 1.34.5 2.78.75 4.32.75 1.7 0 3.35-.3 4.97-.9a9.69 9.69 0 0 0 3.85-2.45l-3.27-4.13a7.79 7.79 0 0 1-5.07 1.93 5.48 5.48 0 0 1-3.01-.8 3.88 3.88 0 0 1-1.68-2.2h14.66a29 29 0 0 0 .13-2.28 9.97 9.97 0 0 0-3.14-7.31zm-11.7 5.84c.15-.54.41-1.08.78-1.6.38-.54.88-.95 1.53-1.24a5.09 5.09 0 0 1 2.08-.42c1.15 0 2.11.3 2.89.92a3 3 0 0 1 1.2 2.34h-8.47zM150.68 43.98l-3.31 11.43-3.31-11.43h-5.12l-3.31 11.43-3.31-11.43h-6.88l7.18 20.03h5.42l3.48-12.38 3.65 12.38h5.42l6.97-20.03zM166.24 49.8a4.83 4.83 0 0 1 4.23.09c.74.36 1.3.82 1.7 1.4l4.9-3.1c-1-1.46-2.25-2.62-3.75-3.46a10.06 10.06 0 0 0-5.01-1.27c-1.44 0-2.83.24-4.17.73-1.35.49-2.54 1.2-3.57 2.13a9.99 9.99 0 0 0-3.31 7.59 10.18 10.18 0 0 0 6.88 9.74c1.34.5 2.73.75 4.17.75 1.83 0 3.5-.42 5-1.27 1.51-.84 2.76-2 3.77-3.46l-4.9-3.1c-.4.58-.97 1.05-1.7 1.4a4.81 4.81 0 0 1-4.24.09 3.83 3.83 0 0 1-1.82-1.6 4.74 4.74 0 0 1-.71-2.55c0-.92.23-1.76.7-2.52a3.83 3.83 0 0 1 1.83-1.59zM193.61 46.17a6.22 6.22 0 0 0-2.77-1.98 9.61 9.61 0 0 0-3.46-.69c-1.55 0-2.96.34-4.24 1.01a10.12 10.12 0 0 0-3.16 2.54 9.5 9.5 0 0 0-1.78 3.35c-.36 1.22-.54 2.4-.54 3.55 0 1.55.26 2.98.8 4.28a9.58 9.58 0 0 0 8.92 6.17c1.11 0 2.27-.23 3.46-.69a6.2 6.2 0 0 0 2.77-1.98v2.28h6.32V43.98h-6.32v2.19zm-.66 9.83a4.4 4.4 0 0 1-1.67 1.9 4.56 4.56 0 0 1-5.15 0 4.34 4.34 0 0 1-1.7-1.92 5.17 5.17 0 0 1-.48-2.03c0-.6.16-1.27.48-2.02.32-.75.9-1.4 1.7-1.92a4.67 4.67 0 0 1 2.58-.79c.56 0 1.21.16 1.95.45.73.3 1.38.85 1.94 1.65a4.48 4.48 0 0 1 .35 4.68zM214.34 52.06l-3.49-.95c-1.14-.28-1.72-.77-1.72-1.46 0-.4.2-.71.58-.94a2.7 2.7 0 0 1 1.4-.35c.63 0 1.15.17 1.55.5.4.33.6.8.6 1.4h6.02a5.95 5.95 0 0 0-2.67-5.25 8.75 8.75 0 0 0-2.77-1.18 11.08 11.08 0 0 0-6.3.2 7.4 7.4 0 0 0-2.83 1.6c-.75.7-1.26 1.38-1.53 2.02s-.4 1.24-.4 1.79c0 1.77.5 3.19 1.54 4.23a9.9 9.9 0 0 0 4.52 2.39l2.62.69c.92.2 1.47.4 1.68.62.2.22.3.44.3.67 0 .46-.24.82-.71 1.1-.48.27-1.06.4-1.74.4-.84 0-1.47-.22-1.9-.66a2.09 2.09 0 0 1-.64-1.49h-6.02a6.1 6.1 0 0 0 1.07 3.57c.72 1.03 1.74 1.87 3.08 2.5s2.86.94 4.58.94c.94 0 1.94-.12 2.98-.36 1.05-.25 2-.64 2.86-1.19a6.24 6.24 0 0 0 2.05-2.06c.5-.83.75-1.76.75-2.8 0-1.49-.49-2.73-1.46-3.74-.98-1-2.31-1.73-4-2.19zM236.2 35.99h6.36v28.02h-6.36zM266.39 53.56a9.95 9.95 0 0 0-3.14-7.3c-.98-.9-2.1-1.58-3.4-2.07a11.35 11.35 0 0 0-4.04-.73c-1.43 0-2.89.28-4.36.84a9.41 9.41 0 0 0-3.77 2.58 9.97 9.97 0 0 0-2.13 3.57 11.82 11.82 0 0 0-.58 3.59c0 1.49.27 2.87.8 4.15a9.63 9.63 0 0 0 5.72 5.46c1.33.5 2.77.75 4.32.75 1.7 0 3.35-.3 4.97-.9a9.69 9.69 0 0 0 3.84-2.45l-3.26-4.13a7.79 7.79 0 0 1-5.07 1.93 5.48 5.48 0 0 1-3.02-.8 3.88 3.88 0 0 1-1.67-2.2h14.66c.09-1 .13-1.77.13-2.29zm-14.8-1.46c.15-.54.4-1.08.78-1.6.37-.54.88-.95 1.52-1.24a5.1 5.1 0 0 1 2.1-.42c1.14 0 2.1.3 2.87.92a3 3 0 0 1 1.2 2.34h-8.46zM228.07 35.99h-6.37V54.36c0 3.12.82 5.5 2.45 7.17 1.63 1.65 3.9 2.48 6.82 2.48h2.54v-5.83h-1.2c-2.78 0-4.2-1.32-4.25-3.95v-5.48h5.45v-4.77h-5.44v-7.99zM122.7 30.05h2.54v-5.84h-1.2c-2.78 0-4.2-1.31-4.25-3.94v-5.5l.01.02h5.44V10h-5.44V2.03h-6.36V20.4c0 3.11.81 5.5 2.44 7.16 1.64 1.66 3.9 2.5 6.83 2.5zM128.8 34.07h-1.68v5.83h3s6.71.32 11.49-11.48c2.3-5.7 7.64-18.4 7.64-18.4h-6.84l-4.09 10.36L134.15 10h-7.05l7.91 17.68s-2.35 6.38-6.2 6.38zM37.5 24.64 19.01.65H0C1.23 34.7 32.9 32.33 37.5 64.02H58.6V.65H37.5v23.99zM0 40.57v23.45h19.19C18.56 51.19 5.2 48.09 0 40.56zM88.5 30.33c5.73 0 10.71-3.18 13.3-7.86l-5.64-3.1a8.5 8.5 0 0 1-7.49 4.55 8.65 8.65 0 0 1-8.54-8.76 8.65 8.65 0 0 1 8.54-8.75 8.5 8.5 0 0 1 7.49 4.54l5.63-3.1a15.16 15.16 0 1 0-13.28 22.48zM104.24 9.98h6.36v20.04h-6.36zM104.24 1.99h6.36v5.28h-6.36z"/><path d="M163.76 33.15h-1.1v3.82h1.97s4.39.2 7.52-7.52a569 569 0 0 1 1.35-3.3l2.27-5.42h4.3v-3.12h-3c.46-1.04 1.86-3.77 3.9-3.77h1.1V9.9h-1.97s-4.38-.1-7.51 7.62c-1.18 2.9-3.55 8.58-4.54 10.95l-.22.49s-1.54 4.18-4.07 4.18z"/></g></svg>