<svg xmlns="http://www.w3.org/2000/svg" viewBox="0 0 199.6 58.61"><path fill="#FFF" d="m51 15.04-.01-.13v-.02l-.06-.13-.02-.06a1.23 1.23 0 0 0-.12-.18l-.08-.1-.06-.03-.1-.08-.02-.02L26 .13l-.07-.02-.08-.04a.98.98 0 0 0-.32-.07h-.02a.91.91 0 0 0-.34.06l-.07.03-.1.04L.5 14.28v.01l-.04.02a.93.93 0 0 0-.13.1l-.03.03-.07.08a1.1 1.1 0 0 0-.12.2l-.04.07c0 .04-.03.07-.04.1v.02l-.02.17v.06l-.01.01v28.36l.02.09c.01.1.04.2.09.3v.03h.02c.03.07.07.12.1.16l.05.06.14.11.07.06 24.52 14.15.06.02.06.03.07.03c.1.03.2.06.31.06.1 0 .2-.02.3-.05l.07-.03.07-.03.06-.03 24.51-14.15.08-.06c.05-.03.09-.06.12-.1.04-.03.07-.08.1-.12l.06-.08a.98.98 0 0 0 .13-.42l.01-.09V15.11l-.01-.07zM49.03 41.7l-6-3.55 6-17.12V41.7zM25.53 56.04 12.18 39.6h27.45l-14.1 16.45zm-.1-42.41 14.6 23.97H11.8l13.62-23.97zm16.13 22.64L27.35 12.94l21.33 3.03-7.12 20.3zm-31.3 0-7.87-20.3 21.12-3.03-13.26 23.33zM2 20.5l6.83 17.63L2 41.8V20.5zm24.4-9.71.1-8.07 18.55 10.72-18.65-2.65zm-1.9-8.05-.1 8.05-18.41 2.64 18.5-10.69zM3.05 43.5l6.77-3.62 11.5 14.16L3.05 43.5zM30.08 53.8l11.94-13.93 6.02 3.56-17.96 10.38zM115.44 42.4c-.01-1.65-.05-1.97-.35-2.96a10.63 10.63 0 0 0-5.36-6.46 11.83 11.83 0 0 0-6.01-1.4c-3.5.01-5.98 1-8.29 3.3a7.74 7.74 0 0 0-1.81 2.35 16.3 16.3 0 0 0-.91 2.22c-.31 1.01-.34 1.27-.34 3.14s.03 2.13.34 3.15c1.32 4.36 4.95 7.23 9.76 7.71 1.18.12 2.47.06 3.85-.19a11.05 11.05 0 0 0 6.17-3.28 10.07 10.07 0 0 0 2.95-7.58zm-9.63 5.75c-1.45.49-3.24.39-4.58-.25-1.8-.87-2.9-2.89-2.89-5.3 0-3.7 2.05-5.94 5.43-5.94 2.85 0 4.87 1.56 5.5 4.23.74 3.16-.78 6.35-3.46 7.26z"/><path fill="#FFF" d="M87.56 44.89c-1.2-1.56-1.29-1.73-1.08-1.84.13-.07.6-.5 1.05-.94a5.7 5.7 0 0 0 1.59-2.75c.16-.7.16-2.23 0-2.93a5.8 5.8 0 0 0-2.98-3.72c-1.66-.77-1.74-.78-7.88-.83-3.1-.03-5.92-.03-6.29-.01l-.67.04 1.24.77c.69.42 1.35.92 1.47 1.11.22.32.24.76.27 8.37.02 4.41 0 8.2-.03 8.42-.12.62-.61 1.1-1.97 1.9l-1.25.73H83.25l-1.04-.6c-1.37-.76-1.83-1.11-2.08-1.56-.28-.52-.4-6-.12-6 .49 0 .78.34 6.01 6.7l1.19 1.45h9.16c-2.02-.81-4.93-3.24-8.81-8.31zm-5.68-3.93c-.54.16-1.8.2-1.93.06a20.8 20.8 0 0 1-.09-2.53v-2.45h1.03c.81 0 1.13.06 1.56.28.81.41 1.06.82 1.05 1.74 0 1.57-.57 2.58-1.62 2.9zM96.58 11.9v1.31l.03 4.46c-.04 9 .14 8-1.72 9.13l-1.36.83c-.12.08 1.85.13 5.76.13h5.94l-1.4-.84c-.92-.55-1.5-.99-1.64-1.23-.2-.34-.22-.78-.19-5.22l-.05-7.5c.05-5.25.18-4.87 1.05-5.41.32-.21.95-.58 1.4-.83l.8-.44H93.56l1.23.77c1.87 1.19 1.8.98 1.8 4.85z"/><path fill="#FFF" d="M104.77 17.04v.05c-.02 1 .05 2 .21 2.71a10.47 10.47 0 0 0 4.7 6.66l.27.16c1.27.77 2.71 1.3 4.3 1.56 1.14.18 3.45.15 4.9-.06 1.3-.18 3.9-.74 4-.86.05-.03.2-1.28.36-2.77l.36-3.3.08-.59-.74.5c-.96.66-2.85 1.54-3.87 1.8-1.11.29-3.27.39-4.24.2-2.3-.45-3.72-1.95-4.16-4.4-.04-.2-.05-.41-.07-.63a9.1 9.1 0 0 1 .07-2.3c.44-2.45 1.86-3.95 4.16-4.4.97-.19 3.13-.09 4.24.2 1.02.26 2.9 1.14 3.87 1.8l.74.5-.08-.6-.36-3.3a33.4 33.4 0 0 0-.35-2.76c-.12-.12-2.7-.68-4-.86a20.66 20.66 0 0 0-4.9-.06c-4.66.75-8.14 3.87-9.21 8.26-.17.67-.26 1.58-.28 2.5zM73.06 9.3c1.36 1.13 1.24.32 1.24 8.74 0 8.6.2 7.63-1.78 8.81-.7.42-1.3.8-1.35.84-.13.13 11.1.08 12.62-.05 2.75-.24 4.43-.9 6.5-2.58a10.23 10.23 0 0 0 3.58-8.03A10.37 10.37 0 0 0 85.8 6.59c-.65-.17-1.9-.23-6.27-.3-6.37-.12-7.3-.23-8.62-1-.2-.13-.4-.2-.46-.2l-.03.01c-.12.13.34 1.37.8 2.12.52.87.84 1.24 1.85 2.08zm7.14 7.66v-5.6l1.95.05c2.4.06 3.1.27 4.07 1.26 1.01 1.01 1.55 2.5 1.55 4.31 0 2.47-1 4.34-2.75 5.15-.75.34-.88.36-2.8.4l-2.02.04v-5.6zM126.23 26.89l-1.47.88h8.84c8.31 0 8.84-.01 8.9-.22.03-.12.38-1.64.76-3.38l.74-3.31c.02-.08-.47.2-1.1.63-.79.54-1.36.83-1.8.93-.38.08-1.97.13-3.87.13h-3.22v-3.24l3.1.04 3.1.04.44.43.44.42v-6.51l-.4.22c-.36.2-.82.23-3.54.26l-3.14.04v-2.87h2.93c1.67 0 3.15.06 3.45.13.3.08.89.4 1.33.74s.81.55.84.48c.04-.1-.43-5.26-.55-6.04l-.06-.4h-16.92l1.22.77c1.94 1.24 1.73.1 1.77 9.79.03 6.96 0 8.38-.14 8.73-.14.34-.46.6-1.65 1.3zM131.15 47.92c-.38.08-1.97.13-3.87.13h-3.22V36.88l.09-5.1h-9.07l1.22.79c1.94 1.23 1.73.1 1.77 9.78.03 6.96 0 8.38-.14 8.73-.15.34-.46.6-1.65 1.3l-1.47.89h8.84c8.3 0 8.84-.01 8.9-.22l.76-3.38.74-3.31c.03-.08-.47.2-1.1.64-.79.53-1.36.82-1.8.92zM150.4 47.92c-.39.08-1.98.13-3.88.13h-3.22V36.88l.1-5.1h-9.08l1.22.79c1.94 1.23 1.74.1 1.78 9.78.02 6.96 0 8.38-.15 8.73-.14.34-.46.6-1.65 1.3l-1.47.89h8.84c8.31 0 8.84-.01 8.9-.22.04-.12.38-1.64.76-3.38s.72-3.23.75-3.31c.02-.08-.47.2-1.1.64-.8.53-1.37.82-1.8.92zM169.64 47.92c-.38.08-1.97.13-3.87.13h-3.22V44.83l3.1.03 3.1.04.43.43.45.42v-6.51l-.4.22c-.36.2-.83.23-3.55.26l-3.13.04v-2.87h2.92c1.68 0 3.15.06 3.46.13.29.08.89.4 1.33.74.43.33.81.55.83.49.05-.12-.42-5.27-.54-6.05l-.07-.4h-16.91l1.22.77c1.94 1.24 1.73.1 1.77 9.79.03 6.96 0 8.38-.14 8.73-.15.34-.46.6-1.65 1.3l-1.47.89h8.84c8.3 0 8.84-.01 8.9-.22l.76-3.38.74-3.31c.03-.08-.47.2-1.1.64a5.7 5.7 0 0 1-1.8.92zM199.15 51.04c-.63.28-1.08.49-2.36.46-1.27-.03-3.41-1.62-4.5-2.74-.99-1.07-2.06-2.35-3.23-3.87-1.19-1.56-1.28-1.73-1.07-1.84.13-.07.6-.5 1.04-.94a5.7 5.7 0 0 0 1.6-2.75c.16-.7.16-2.23 0-2.93a5.8 5.8 0 0 0-2.99-3.72c-1.66-.77-1.73-.78-7.88-.83-3.09-.03-5.91-.03-6.28-.01l-.67.04 1.24.77c.68.42 1.34.92 1.47 1.11.22.32.23.76.27 8.37.02 4.41 0 8.2-.04 8.42-.11.62-.6 1.1-1.96 1.9l-1.25.73h12.23l-1.05-.6c-1.38-.76-1.84-1.11-2.08-1.56-.28-.52-.4-6-.13-6 .5 0 .8.34 6.02 6.7l1.19 1.45h7.32l-.05-.02c2.44-.14 3.1-1.28 3.34-1.68.27-.45.52-.78-.18-.46zm-15.76-10.08c-.54.16-1.8.2-1.94.06-.04-.04-.08-1.18-.08-2.53v-2.45h1.03c.81 0 1.13.06 1.56.28.8.41 1.06.82 1.05 1.74 0 1.57-.57 2.58-1.62 2.9z"/></svg>