<svg xmlns="http://www.w3.org/2000/svg" viewBox="0 0 253.78 95.78"><path fill="#FFF" d="M81.92 2.62c.15.85-.6 2.43-.84 2.78-.66.96-9.84 13.28-10.78 14.58-.5.7-4.06 5.38-4.8 6.52a192.05 192.05 0 0 0-5.14 8.41c-.8 1.48-2.75 5.11-3.39 7.07-.56 1.75-.6 2.56-1.85 3.35 0-.27-.09-.47-.15-.89l-.25-2.04c-.07-.55-.05-12.7-.78-17a91.67 91.67 0 0 0-1.27-5.6c-.62-2.39-1.59-4.12-1.89-4.72-1.25-2.52-4.48-5.87-4.79-6.24-2.43-2.87-5.36-5.03-6.14-8.62-.07-.31-.22-.4 0 .49.58 2.43 2.14 4.23 2.4 4.54l2.5 2.87c.29.34 2.24 2.6 2.88 3.43.61.79 1.48 2 2.05 2.82 1.6 2.3 2.8 7.38 3.3 10.35.16 1 .51 5.8.58 7.17.06 1.08.07 5.36.08 6.42 0 .32.43 6.41.43 7.27 0 .33-.6 1.04-1.2.6-1-.7-2.63-2.25-5.01-4.4-.79-.7-4.16-3.35-4.97-4.07-1.03-.91-4.56-4.17-5.24-4.93-2.02-2.23-5.23-6.35-6.03-9.03-.3-.95-.7-2.39-.94-3.36-.24-1.02-.8-3.95-.87-4.39l-.7-3.74c-.07-.4-.4-3.29-3.06-6-.64-.67-.23.05.55 1 2.32 2.84 2.26 6.47 3 10.16.09.47.7 5.1 1.88 7.63.29.61 1.03 2.45 2.52 4.43a91.1 91.1 0 0 0 3.58 4.47c2.91 3.26 12.5 10.95 12.87 11.36.92 1.01.71 1.05 1.14 1.54-.43.04-1.97-.22-4.06-1.16a19.2 19.2 0 0 0-5.34-2 50.3 50.3 0 0 0-7.72-1.28c-2.17-.18-3.84-.23-6.01-.43-1.47-.13-3.82-.1-5.3-.2-2.1-.16-3.74-.15-5.86-.25-2.18-.11-3.42.05-5.6-.02-1.24-.04-2.47-.08-3.71-.1-.65 0-1.3.06-1.95.04-.57-.03-1.13-.14-1.7-.2-.52-.07-1.05-.16-1.57-.2-.68-.05-2.09-.3-2.77-.32.07.33.87.77 1.71 1.03 1.13.34 1.56.79 2.38 1.65.57.6 1.23 1.13 1.87 1.66.4.33.91.42 1.43.48.5.05 1 .12 1.49.27.68.2 1.18.63 1.5 1.29a3.58 3.58 0 0 0 2.44 2c.53.13 1.09.2 1.63.32.37.09.66.31.82.67.16.36.35.73.45 1.11.27.97.96 1.55 1.8 1.98.4.2.82.35 1.23.54.52.24.93.6 1.01 1.22l.12.66c.06.27.07.58.2.81.44.72 1.01 1.3 1.82 1.61.72.27 1.3.7 1.7 1.38.37.64.8 1.24 1.25 1.83a4.2 4.2 0 0 0 3.86 1.86c.26-.02.57.15.78.33.38.3.68.73 1.07 1.02.42.32.88.6 1.37.78.42.15.9.19 1.35.18.64-.02 1.3-.07 1.92-.2 1.06-.21 2.1-.5 3.2-.53a7.55 7.55 0 0 0 1.6-.25 2.1 2.1 0 0 0 1.28-.93c.84-1.29 1.87-2.4 2.95-3.48a8.13 8.13 0 0 1 5.53-2.32c.4 0 2.2.02 2.9.3-1.4.63-2.79 1.4-3.59 2.23a14.4 14.4 0 0 1-2.82 2.22c-1.07.68-2.1 1.4-2.93 2.37-.57.66-1.25 1.24-1.91 1.82-.39.34-.84.6-1.25.92-.47.36-.77.82-.75 1.44v1.3c0 .58-.28 1.01-.7 1.38-.29.24-.61.48-.8.8-.21.35-.4.79-.42 1.2-.06.95.21 1.84.62 2.7.17.34.18.7.07 1.06-.07.24-.15.49-.15.73.04 1.2.3 2.33 1.08 3.3.19.23.38.48.55.73.32.47.49.99.43 1.57l-.15 1.5c-.07.62.17 1.08.73 1.3.55.23 1.1.42 1.66.61.65.22 1.24.51 1.63 1.11.38.57.75 1.14 1.17 1.67.7.89 1.66 1.02 2.7.86.23-.03.53-.04.7.08.52.34 1 .74 1.48 1.14.74.63 1.56 1.08 2.57.94.95-.12 1.9-.08 2.85.05.4.06.83.19 1.15.42.54.4 1.1.58 1.77.6.29 0 .57.18.85.28.23.08.47.18.7.23.41.08.87.03 1.21.2.49.26.95.2 1.44.19.29 0 .58.04.86.1.46.1.92.3 1.39.36 1.03.15 2.06.25 3.09.35.71.07 1.8 0 2.15-.5.54-.8-.24-2.22-.81-2.56a13.58 13.58 0 0 0-3.03-1.36c-1.28-.4-2.54-.86-3.82-1.29a4.83 4.83 0 0 1-1.9-1.12c-.63-.63-.75-1.19-.2-1.91l.79-1.04c.26-.35.4-.74.36-1.19-.02-.25-.04-.5-.04-.74 0-.57.2-1.02.7-1.36.42-.3.82-.62 1.22-.96.13-.1.24-.26.3-.42.22-.66.22-1.34.1-2.03-.12-.75-.33-1.5-.35-2.26-.03-1.48-.67-2.73-1.32-3.99-.43-.82-.94-1.61-1.33-2.45a28.4 28.4 0 0 1-1.04-2.7c-.28-.83-.37-1.34-.57-2.19-.09-.36-.28-1.62-.23-2.11.36.3 1.96 3.13 3.2 5.03a15.93 15.93 0 0 0 3.52 4.04c.09.07.27.17.36.18.1-.07.1-.22.1-.3 0-.23 0-.46-.07-.66-.53-1.69-.54-2.8-1-4.55-.38-1.42-1.25-3.84-1.58-5.34 1.36 1.65 1.88 3.16 2.34 4 .55 1.05 1.9 2.52 2.25 3.65.28.87-.07.76.3 1.6.24.6.63.83 1.35.9.43.04.76.21 1.04.52.42.5.84 1 1.27 1.48.57.64 1.23 1.08 2.15.98.42-.05.87-.03 1.26.08.6.18 1.18.46 1.76.73.8.37 1.6.64 2.48.62.3 0 .6.03.89 0 1.06-.1 1.92.84 2.28 1.62.4.87.46 1.83.3 2.75a46.64 46.64 0 0 1-1 4.23c-.35 1.24-.87 2.76-.18 3.52.75.84 1.97-.45 2.62-1.26.93-1.17 1.73-2.45 2.53-3.71.4-.63.68-1.32 1-2 .61-1.28 1.22-2.57 1.8-3.87.3-.62.5-1.28.8-1.9.76-1.53 1.76-2.71 2.16-4.4.28-1.2.16-2.16.19-3.4-.13-1.43.3-2.38.56-2.8.68-1.04-.16-2.53-.47-3.41-.18-.48-.36-.97-.2-1.51.23-.8 0-1.55-.34-2.22-1.62-2.24-.92-2.28-1.66-3.46-.2-.3-.61-.81-.93-1-.36-.22-1.12-.24-1.52-.38-.64-.21-1.04-.26-1.45-.84-.15-.21-.39-.97-.93-1.18-1.13-.61-2.24-.5-3.53-.57-1.3-.06-2.61-.1-3.91-.07-.8.01-1.6.17-2.4.23-1.38.12-2.78.19-4.1.64-.72.24-1.42.51-2.11.82-.67.3-1.32.63-2.1.53-.23-.03-.5-.01-.73.03l-4.26.87c-.07.02-.15 0-.26 0l.1-.2c.97-1.3 1.93-2.62 2.91-3.91.44-.57 1-1 1.65-1.3 1.27-.62 2.48-.51 3.84-.4.78.06 2.18.38 2.95.46 1.38.14 2.25-.04 3.63.04 1.63.1 3.11-.5 3.7-2.2.1-.26.25-.52.44-.73.58-.66 1.18-1.3 1.8-1.93.46-.46.74-.98.61-1.61a5.92 5.92 0 0 0-.53-1.63c-.5-.9-.44-1.72.12-2.56.27-.41.55-.84.7-1.3.32-1.07-.17-2-.72-2.86-.23-.36-.43-.7-.37-1.13.07-.46.17-.92.28-1.38.46-2 .36-3.52-.71-4.56-.33-.34-.4-.74-.28-1.18.06-.21.15-.42.24-.62.55-1.19.32-2.28-.44-3.27a2.61 2.61 0 0 1-.5-2.49c.23-.82.48-1.65.63-2.49.16-.89.04-1.76-.45-2.56a1.48 1.48 0 0 1-.05-1.46l.24-.51c.3-.75.52-1.5.22-2.3-.18-.49-.33-.98-.5-1.47a2.68 2.68 0 0 1 .02-1.4c.14-.73.36-1.03.44-1.77.02-.49-.1-2.03-.7-2.46zM71.68 21.05c.28-.57.5-.94 1-1.23 1.05-.5-.33 2.94-.9 5.2-.37 1.65-1.39 3.59-2.04 4.97a61.35 61.35 0 0 1-1.78 3.5c-.61 1.1-1.3 2.16-1.97 3.22-.55.88-1.12 1.74-1.68 2.6l-1.36 2.07c-.18.26-.33.54-.5.81-.65 1-1.29 2-1.95 2.98-.29.44-.59.87-.92 1.28-.1.12-.32.33-.49.2-.16-.13-.15-.32-.12-.46a8.04 8.04 0 0 1 1.22-3.06c.7-1.1 1.35-2.24 2.08-3.32.63-.94 1.36-1.83 2.01-2.76.5-.69.94-1.41 1.4-2.13.47-.76.98-1.52 1.41-2.31a48.6 48.6 0 0 0 1.62-3.3c.5-1.1.87-2.25 1.35-3.36.38-.9.68-1.8.85-2.75.14-.77.42-1.45.77-2.15zm-13.85 23c.06-.47.18-.86.3-1.32.1-.45.25-.89.43-1.31.32-.77.65-1.53 1.01-2.29.44-.89.9-1.77 1.36-2.65.46-.89 1.95-3.4 2.2-3.79.24-.37 1.24-2.1 1.55-2.56.07-.11 4.49-7.22 5.54-7.7.38-.16-.06 1.12-.28 1.75-.5 1.46-1.47 3.38-1.67 3.94-.21.57-.76 2.42-2.5 5.39-.41.71-1.73 2.66-1.94 2.94-.51.71-2.44 3.08-3.6 5.04-1.17 1.58-1.8 3.92-2.36 3.59-.26-.14-.08-.72-.04-1.03zm-.1 4.32c.05.09.02.3-.16.4-.18.09-.38.06-.46-.12-.08-.18-.02-.38.22-.52.25-.14.34.12.4.24zm.75 2.95c-.15.04-.41-.03-.5-.15-.13-.19-.08-.43.16-.56.22-.12.38-.04.46.14.11.26.13.5-.12.57zm1.45 2.05c.1.22-.14.45-.32.49-.19.03-.28-.06-.32-.14-.1-.18-.09-.42.15-.5.1-.03.4-.06.5.16zm-2.2 1.64c-.4.2-1.04-.04-1.22-.46-.14-.31.14-.94.49-1.11.28-.14 1.07.16 1.2.45a.87.87 0 0 1-.46 1.12zm1.48 1.3c0 .12 0 .24.02.35.06.34-.1.54-.4.69-.37.14-.68-.04-.97-.25-.27-.2-.2-.47-.07-.74l.12-.33c.14-.32.4-.46.74-.38.37.08.56.31.56.66zm-4.53-3.85c-.06-.16-.13-.32.08-.42.2-.09.5.03.6.18.1.15.05.39-.16.48-.22.1-.46-.08-.52-.24zm1.34 2.46c.06.14-.06.4-.2.46-.12.06-.44-.09-.48-.24-.04-.16-.03-.28.12-.35.15-.06.5-.01.56.13zm-2.59-4.47c-.1-.1-.12-.2-.1-.29.03-.08.1-.18.24-.19.15 0 .37.14.4.23.04.08.01.15-.03.19-.05.04-.4.18-.5.06zm1.04.45c-.03-.1-.1-.28.12-.4.21-.12.4 0 .48.19.08.19.06.36-.1.43-.17.08-.44.01-.5-.22zm1.28 2.18c.24-.11.4.01.5.23.13.25.05.5-.19.6-.27.11-.38-.09-.5-.27-.1-.24-.06-.45.19-.56zm1.16-.47c-.54.27-1.1 0-1.36-.62-.18-.4.04-1.17.37-1.3.83-.33 1.2-.2 1.53.58.3.71.2.96-.54 1.34zm-.2-2.92c-.08-.18 0-.37.23-.45.23-.08.5 0 .6.16.1.17-.1.38-.27.45s-.48.02-.56-.16zm-.97-2.58c-.04-.12-.08-.31.16-.42.24-.1.52.05.59.2.07.15-.15.36-.25.42-.22.12-.44.02-.5-.2zm-1.81.21a.69.69 0 0 1 0-.38c.03-.09.07-.1.13-.08.07.02.37.12.45.3.07.17-.05.29-.14.35-.2.14-.37.01-.44-.19zm.63.77.27-.18c.22-.12.34-.47.71-.28.49.23.97.5.97 1.09 0 .4-.05.86-.55 1.08-.29.13-.5.45-.87.36-.11-.03-.25-.06-.32-.14-.21-.26-.32-.31-.52-.72s-.2-.84.31-1.21zm-1.91.7c-.03-.23.1-.25.2-.31.22-.11.45-.05.54.19.07.18.16.42-.1.56-.17.1-.62-.2-.64-.43zM29.6 43.09c.34.05 2.13.24 2.67.3.13 0 3.03.3 4.34.47 1.1.15 2.17.35 3.25.52.16.03.33.03.5.07l1.97.43c.13.03.26.1.4.14.5.17 1 .3 1.48.53 1.21.56 2.33 1.37 3.61 1.7 2.2.56 3.57 1.95 2.69 1.68-1.17-.46-3.48-.8-4.7-1.01-1.7-.29-3.4-.65-5.1-.96-1.16-.21-2.33-.37-3.49-.6-1.75-.33-3.52-.66-5.25-1.08-.67-.17-1.28-.58-1.92-.89-.57-.27-1.13-.56-1.7-.84-1.54-.75-.04-.65 1.25-.46zm-24.8-.56c-.08.1-.39.11-.43-.04-.04-.13-.11-.28.02-.38.12-.1.25-.03.36.06.13.1.15.22.05.36zm1.46.1c.08.28-.14.45-.38.57-.27.14-.5.08-.65-.2-.12-.22.1-.74.4-.7.26.03.56.03.63.33zm1.3 1.19c-.32.12-.77-.01-.88-.26-.1-.26.11-.91.34-1.01.23-.1.6.11.72.43.16.4.08.74-.17.84zm2.67.78c-.15.28-.69.5-1.02.43-.55-.11-.8-.34-.88-.78-.02-.11-.03-.23-.06-.34-.14-.64-.05-.8.6-.92.3-.08.5-.37.92-.18.95.42.75 1.2.44 1.79zm2.33 2.49c-.42-.29-1.33-.94-1.35-1.88.13-1.8 2.29-2.29 2.66-2.3 2.25-.2 3.34.96 5.43 1.33 1.44.23 4.72 1.33 5.7 1.92-2.12-.23-3.25-.1-6.18 1.01-1.57.47-2.85.76-3.69.44-.44-.17-1.61.06-2.57-.52zm3.6 2.4c-.23-.23-.28-.42.94-.77.74-.19 1.48-.36 2.21-.58.4-.13 1-.54 1.78-.72.98-.23 1.36-.26 2.35-.33.94-.08 1.89-.14 2.84.05 1.03.21 2.08.29 3.1.46.48.08.94.25 1.4.38.89.24 1.77.5 2.66.71 1.4.34 2.82.63 4.23.96.97.23 1.93.52 2.9.75.86.2 1.74.32 2.6.5 2.12.46 4.28.69 6.34 1.43.58.21 1.2.31 1.81.47.23.06.44.16.66.25.26.1.43.29.35.57-.09.3-.35.4-.62.35-.92-.12-1.85-.24-2.76-.42-.99-.2-1.96-.48-2.95-.73l-4.04-1.03-6.3-1.6c-.77-.2-1.53-.46-2.32-.63-1.07-.23-2.15-.4-3.23-.59-.72-.12-1.44-.25-2.17-.32-.95-.09-1.92-.15-2.88-.16-.8 0-1.6.06-2.41.12-.47.04-.94.09-1.4.2-.5.13-.97.34-1.45.53l-1.37.56c-.78.34-1.66.19-2.26-.4zm4.19 4.5a9.14 9.14 0 0 0-1.58-1.88c-1.3-1.02.4-1.79 1.22-2.14.6-.26 1.92-.66 2.93-.74.45-.01 2.07 0 2.34-.02.52-.04 2.76.06 3.38.14.75.1 1.7.3 3.1.46-.14.07-.6.2-.75.26-.67.28-1.38.48-2 .86-.77.46-1.46 1.06-2.19 1.6-.92.7-1.83 1.4-2.88 1.9-.6.29-1.2.5-1.86.45a2.36 2.36 0 0 1-1.71-.9zm10.7 7.14c-.5.39-1.01.57-1.61.65-.61.08-1.2-.05-1.63-.44-.74-.67-1-1.16-2.57-1.68-.74-.26-.85-1.07-.42-1.6.36-.47.83-.86 1.28-1.25.36-.32.75-.6 1.13-.87 1.22-.87 2.4-1.78 3.85-2.25.66-.2 1.3-.5 1.97-.66a7.85 7.85 0 0 1 3.56 0c.16.02.3.1.53.18a9.23 9.23 0 0 0-4.06 4.22c-.4.78-.56 1.44-.86 2.15-.24.6-.6 1.12-1.16 1.55zm6.8.97c-.21.29-.56.5-.88.69-.57.35-1.2.54-1.88.49-.59-.05-1.2-.1-1.76-.27-.97-.29-1.54-1.04-1.02-2.15.1-.23 1.08-2.88 1.6-3.79a9.4 9.4 0 0 1 2.75-2.92c.36-.25.77-.44 1.17-.63.13-.06.31-.06.44-.02l3.51 1.28c.25.1.51.16.77.24l.04.12c-.16.13-.3.3-.48.39a7.66 7.66 0 0 0-3.89 5.56c-.1.34-.16.73-.37 1zm6.12-3.6c-.36.84-1.22 1.01-1.93 1.63-.74.64-1 1.57-2.1 2.23-.6.38-1.35-.01-1.14-1.02.14-.53.3-1.05.45-1.58a5.3 5.3 0 0 1 1.11-1.99c.76-.91 1.71-1.57 2.68-2.21.24-.16.47-.2.74-.09l.9.33c.32.13.38.26.19.57-.17.28-.41.52-.56.8-.22.44-.15.88-.34 1.33zm.83-.4c-.08-.27-.16-.47.01-.71.37-.55.7-1.15 1.46-.98l.54.13c.14.05.8.23.94.29-1.2.16-2.2.6-2.95 1.26zm6.04-1.92c-.77.1-1.5-.13-2.23-.3-1.47-.33-2.95-.6-4.4-.98-1.04-.27-2.04-.67-3.05-1.03-1.14-.4-2.26-.91-3.42-1.25-1.07-.3-1.9-.36-2.85-.46-.4-.05-.91-.04-1.32.02-.48.08-1.1.26-1.57.37-1 .24-1.71.7-2.58 1.25-.96.63-1.92 1.27-2.87 1.92-.58.4-1.12.85-1.7 1.24-.44.3-.9.56-1.45.59-.56.03-1.31-.9-1.17-1.44.03-.1.1-.2.19-.25.53-.31 1.14-.53 1.67-.84a15 15 0 0 0 2.6-1.67c1.1-.84 2.2-1.71 3.4-2.37 1.12-.62 2.34-1.09 3.7-.68 1.6.5 3.22.98 4.84 1.43.9.26 1.83.44 2.74.67l1.09.31c2.1.6 4.22 1.18 6.33 1.76.7.2 1.42.36 2.12.54.43.1.78.36.78.58 0 .21-.46.54-.85.59zm2.23 3.69c.15-.1.4.02.5.12.42.43.8.9 1.2 1.34.3.34.5.56.93 1 .42.43.36.87.14.79a1 1 0 0 1-.43-.3c-.75-.82-1.5-1.65-2.23-2.5-.09-.1-.25-.34-.1-.45zm-.77.26c.18-.02.22.16.31.25l2.92 3.22a1 1 0 0 1 .26.44c.02.11-.08.29-.18.36-.05.04-.28-.04-.33-.13-.37-.7-1.02-1.12-1.52-1.7-.5-.6-1-1.21-1.48-1.84-.12-.15-.16-.58.02-.6zm-4.7 13.62c.19-.06.3-.05.48-.03.08 0 .2.12.21.2.01.07 0 .19-.14.25-.12.05-.73.18-.84.2-.1.02-.17-.09-.19-.16-.02-.07.03-.19.08-.24a.9.9 0 0 1 .4-.22zm-.42-.46c-.03-.12.03-.27.14-.32.12-.05.25.06.3.16.07.16.02.31-.16.36-.18.04-.25-.1-.28-.2zm1.48 1.07c.1-.03.33 0 .38.14.06.13.08.2-.02.3-.1.1-.4.23-.56.3l-1 .32c-.22.07-.38.01-.46-.2-.08-.23.04-.37.24-.44.47-.15.94-.3 1.41-.42zm-1.35 1.53 1.57-.53.43-.17c.14-.05.31-.14.43-.1.19.06.4.2.48.35.1.23-.25.37-.64.5-.65.2-1.34.44-2.03.66-.21.07-.44.1-.53-.18-.07-.26.04-.44.3-.53zm.11 1.1 3.22-1.04c.2-.06.42-.12.5.14.03.13.06.3-.11.38-.17.07-2.35.78-3.46 1.16-.2.07-.41.09-.48-.18-.08-.28.08-.39.33-.47zm.22.96c.56-.13 1.11-.29 1.66-.46.75-.23 1.5-.5 2.25-.73.23-.07.52-.13.57.18.02.15-.04.34-.26.44-.22.1-1.32.35-1.92.53-.72.22-1.43.46-2.15.67-.17.06-.47.12-.56.03-.09-.1-.05-.24-.03-.35.04-.24.23-.26.44-.31zm.35 1.75 3.56 1.73 2.16 1.06c.32.16.41.47.24.82-.4-.17-.79-.33-1.17-.51a70.8 70.8 0 0 1-1.52-.74c-1-.5-2-.98-3-1.5a2.73 2.73 0 0 1-.66-.5c-.1-.11-.2-.33-.17-.45.02-.12.07-.16.14-.15.08 0 .28.17.42.24zm6.8 5.9c-.68-.22-1.83-.44-2.04-.7-.2-.27.29-.38.51-.3.31.12.61.25.92.34.12.04.76 0 .87.25.1.23-.05.47-.26.4zm.92 1.13c.01.04.03.07-.1.13-.12.05-.85-.2-1.26-.34-.55-.18-1.09-.4-1.64-.56-.25-.08-.52-.1-.78-.16-.1-.02-.22-.02-.3-.07-.08-.05-.17-.17-.16-.24.01-.07.14-.18.21-.18.41.03.83.04 1.22.14.57.14 1.13.33 1.67.54.34.12.66.3.98.48.07.04.14.22.16.26zm-1.75-2.65a.22.22 0 0 1 .28-.06c.16.08.27.18.29.26.02.08-.08.17-.16.18-.08.01-.3-.02-.4-.13s-.05-.19-.01-.25zm-3.86-1.55c-.43.2-.87.38-1.3.57-.23.1-.4.12-.48-.12-.1-.26.07-.33.3-.4l1.37-.5c.1-.05.34-.06.43.04.1.1-.07.3-.32.41zm-.79-.83c.22.35-.23.4-.49.48-.14.03-.34.12-.4.14-.05.01-.31.13-.44 0-.13-.11-.15-.3.23-.55.26-.17.93-.36 1.1-.08zm-.68 1.91c0-.06.08-.16.16-.2.65-.28 1.3-.55 1.97-.81.14-.06.3-.11.44-.08.1.02.25.16.26.25.01.1-.22.23-.28.23-.05 0-1.32.6-1.99.88-.12.05-.3.07-.43-.01-.13-.09-.13-.17-.13-.26zm.75.67c.23-.06 1.58-.7 2.38-1.06.03-.01.06-.04.1-.04.2-.06.47-.23.58.05.12.27-.2.28-.37.36-.78.37-1.58.72-2.37 1.08l-.13.06c-.2.05-.42.16-.53-.1-.1-.25.1-.3.34-.35zm.41.77c.32-.15.66-.24.98-.4.7-.32 1.38-.67 2.07-1 .07-.04.08-.07.22-.1s.36.03.38.16c.03.13-.1.25-.4.4-.3.15-1.75.8-2.62 1.22-.16.08-.36.12-.54.14-.09 0-.26-.02-.29-.13-.02-.12.11-.25.2-.29zm.9.9c.08-.03.18-.1.37-.01.2.09 1.03.31 1.54.47.9.28 2.4.8 3.29 1.13.09.03.63.18.67.41.03.23-.24.13-.34.12-.21-.03-.88-.14-1.7-.5-.73-.38-1.53-.51-2.3-.74a4.46 4.46 0 0 1-1.5-.64c-.08-.09-.1-.2-.02-.24zm3.09-4c-.11.02-.42-.03-.6-.12a99.54 99.54 0 0 1-4.71-2.4.72.72 0 0 1-.3-.34c-.03-.1.03-.15.08-.17s.4 0 .56.08l3.59 1.81c.37.2.75.39 1.11.6.14.1.32.3.35.38.04.07.03.12-.08.15zm-.58-1.18c-.15-.05-.3-.14-.44-.22l-2.68-1.51c-.12-.07-.28-.17-.32-.34-.04-.17.45-.38.67-.18.77.7 1.72 1.1 2.63 1.58.16.1.3.21.43.35.05.05.04.22 0 .28-.05.06-.2.07-.29.04zm-.33-1.22c-.46-.27-.93-.55-1.38-.84-.17-.11-.46-.21-.47-.46 0-.24.63-.26.91-.07.35.23.71.42 1.05.65.13.1.25.24.31.4.04.09-.02.26-.1.34-.05.05-.23.03-.31-.02zm-.33-1.52c-.1-.17 0-.27.07-.33a.3.3 0 0 1 .39 0c.18.16.3.32.3.42s-.16.2-.27.2c-.1-.01-.39-.13-.5-.3zm-.03-1.43c-.4-.31-.78-.65-1.18-.95-.6-.46-1.24-.87-1.8-1.36-.62-.54-1.17-1.14-1.74-1.74-.1-.1-.29-.32-.16-.46.13-.15.5-.06.66.11.9.98 1.96 1.76 3.04 2.52.55.38 1.18.92 1.55 1.28.38.36.18.78.04.8-.15.03-.3-.11-.4-.2zm.06-1.42c-.97-.78-1.95-1.56-2.91-2.35-.21-.17-.4-.4-.56-.63-.06-.08-.1-.24-.07-.32.03-.08.2-.16.28-.14.2.03.42.08.57.2.65.5 1.28 1.04 1.93 1.55.38.31.78.6 1.17.9.62.5.4 1.04-.03 1a.93.93 0 0 1-.38-.21zm.22-1.5a63.7 63.7 0 0 1-1.9-1.62c-.16-.14-.39-.34-.2-.56.18-.2.43-.1.63.07.6.5 1.2.99 1.78 1.49.08.07.17.13.26.27s-.04.34-.14.41c-.09.07-.33.03-.43-.06zm-.37-1.84c-.1-.1-.3-.32-.17-.44.13-.12.38.1.8.4.26.18.69.55.63.78-.06.28-.5-.08-.63-.18a4.22 4.22 0 0 1-.63-.56zm-.11-1.02c-1.33.02-2.6.34-3.9.6-.2.03-.4.08-.62.09-.1 0-.26 0-.31-.15-.05-.15.1-.25.19-.34.05-.06.17-.06.26-.08.93-.15 1.86-.3 2.78-.47.71-.12 1.42-.27 2.14-.38.14-.03.31 0 .43.08.22.14.17.4-.08.5-.3.05-.6.15-.9.15zm-2.43-3.53c.39-.13.71-.02.7.27 0 .3-1.96.86-2.13.55-.17-.3.16-.49.46-.56.33-.07.66-.15.97-.26zm-1.01-.2c-.12-.23.07-.46.3-.55.28-.13.64-.03.69.22.03.11-.09.2-.25.28-.15.06-.65.2-.74.04zm.53 1.4c.53-.12.9-.21 1.41-.35.12-.04.26-.06.38-.04.27.03.42.23.38.46-.02.14-.22.3-.37.34-.9.22-1.79.41-2.69.58a.65.65 0 0 1-.52-.2c-.13-.17.13-.52.42-.62.32-.12.74-.1 1-.16zm2.3.73c.2-.04.42-.06.62-.02.13.02.3.12.35.24.05.11-.09.23-.21.29-.13.06-1.07.23-1.57.32-.92.16-1.85.3-2.78.45-.18.03-.38.06-.4-.2-.01-.22.1-.35.35-.4l3.63-.68zm-1.04-2.3c-.15-.14-.34-.26-.47-.42-.07-.08-.19-.26-.08-.35a.4.4 0 0 1 .45-.03c.18.1.26.22.31.27 1.12 1.06 2.03 1.98 3.14 3.05.05.05.13.1.19.22.03.1 0 .2-.12.3-.06.06-.2.08-.34-.04l-3.08-3zm.7-.6c-.15-.14-.38-.35-.15-.48s.4-.07.54.08c.42.43.82.88 1.25 1.3.42.4.88.78 1.32 1.16.07.06.2.13.24.24.05.11 0 .35-.15.41-.15.07-.3 0-.39-.08-.9-.86-1.78-1.74-2.67-2.62zm1.04-.36a.63.63 0 0 1-.11-.16c-.03-.06.06-.15.17-.2.1-.04.34-.09.45.01.36.36.68.77 1.04 1.15.19.2.41.37.62.56.07.06.15.13.2.2.05.09.09.26-.04.37-.08.06-.23.14-.37.01-.66-.63-1.31-1.29-1.96-1.94zm1.27-.21c-.14-.17-.1-.3.1-.38.2-.09.4 0 .5.11.25.25.47.52.67.8.1.12.17.26.18.4 0 .08-.1.22-.18.26-.06.04-.17.05-.28-.06-.34-.36-.68-.74-1-1.13zm-3.84.03c-.1.05-.33-.06-.34-.2 0-.17.04-.2.12-.29.08-.1.24-.14.37-.17l3.79-.7.55-.1c.15 0 .32-.05.45.02.26.16.32.44-.13.53-.56.08-3.92.75-4.8.91zm.02-1.14c-.05-.13 0-.33.1-.4.11-.07.84-.19 1.2-.28l2.1-.5c.11-.04.23-.05.35-.06.23 0 .47.04.5.32.04.29-.22.26-.39.3l-2.89.6c-.2.04-.38.13-.58.15-.13 0-.32.01-.39-.14zm5.27.51c.13-.04.34-.12.43.08.09.2.06.4-.12.48-.17.08-.45.03-.53-.16-.08-.18.02-.34.22-.4zm-1.84-2.4c.1.26-.24.31-.47.38-.63.18-.88.24-1.4.4-.23.06-.46.15-.7.21-.1.03-.27.02-.31-.04-.06-.08-.08-.27-.02-.34a.83.83 0 0 1 .43-.39c.64-.19 1.3-.35 1.95-.47.15-.03.4 0 .52.26zm-1.61-.85c.3-.09.46-.15.54-.06.14.16.13.3-.05.37-.27.1-.76.3-.96.13-.2-.17.09-.34.47-.44zm-8.15 4.47a26.9 26.9 0 0 1 3.72-3.53 6.61 6.61 0 0 1 1.48-.86c-.2.41-.75 1.19-.92 1.44-.25.47-.84 1.3-1.08 1.67-.29.46-.44.78-.74 1.35-.3.6-.4 1.06-.84 1.38-1.2.89-2.85 1.98-3.09 2.13-.14.1-.42.35-.54.18-.27-.38.59-2.15 2.01-3.77zM39.95 78c.1-1.24-.13-2.53-.01-3.97a5.92 5.92 0 0 1 1.53-2.95c.56-.42.9-.68 1.48-1.07.3-.2 1.31-.99 2.12-1.25-.18.48-.77 2.28-.86 2.78-.15.9-.52 1.99-.58 3.36-.1.66-.15 1.31-.63 1.83-.35.36-.96 1.2-1.37 1.88-.32.58-.54 1.26-.7 1.43-.2.22-1.01-.76-.98-2.04zm4.59 8.5c-.77-.96-.27-1.95-.07-2.64.14-.52.39-1.05.55-1.07.2.75.62 1.8 1.55 3.6.72 1.35.59 1.08 1.29 2.24.7 1.16-2.01-.62-3.32-2.13zm-.46-3.42c-.38.71-.45 1.16-.84 1.47-.24.2-.45-.02-.61-.24-.31-.41-.58-.85-.8-1.18a4.03 4.03 0 0 1-.1-2.9 8.21 8.21 0 0 1 1.96-3.17c.03 1.25.44 2.62.79 3.74.32 1.04-.01 1.52-.4 2.28zM50 90.2a5.03 5.03 0 0 1-1.04-1.28 55.64 55.64 0 0 1-1.71-2.82 24.59 24.59 0 0 1-2.37-6.47 13.18 13.18 0 0 1-.07-6.95c.31-1.23.74-2.43 1.12-3.64.4-1.25.88-2.25 1.2-2.84.45-.82.87-1.7 1.32-2.5.4-.7.64-1.09.99-1.75.1-.21.69-1.02.98-.91.21.1-.12.7-.29 1.06-.09.18-2.06 4.2-2.2 4.54a22.11 22.11 0 0 0-1.41 5.29c-.24 2.17-.53 4.34-.3 6.54.17 1.69.53 3.64 1.15 5.13.94 2.21 2.23 4.2 2.93 5.08.53.68 1.35 1.89 2.45 2.75-1.15.1-2.2-.9-2.75-1.23zm1.22-2.22c-.08-.21.26-.5.5-.59.59-.3.76-.09.77-.02.03.12-.14.24-.36.39-.45.3-.84.43-.91.22zm.56.89c-.06-.14.1-.27.2-.35.38-.3.75-.63 1.17-.88.28-.17.69.17.7.28.01.12-.16.18-.25.25l-.96.71c-.13.09-.3.2-.44.2s-.35-.07-.42-.21zm.96 1c-.19-.25 1.5-1.76 1.74-1.57.23.2-1.55 1.83-1.74 1.58zm.74.71c-.24.01-.22-.36-.05-.51.38-.32.77-.61 1.15-.92.13-.1.26-.21.37-.33.22-.24.55-.43.72-.25.17.18.07.35-.12.46-.2.12-.42.22-.6.36-.19.12-.34.28-.5.42-.33.26-.73.76-.97.77zm.5.42c-.07-.3.97-.34 1.04-.03.08.31-.98.32-1.05.03zm3.04-.56c0 .06-.14.13-.2.12-.4-.07-.75.03-1.22-.02-.33-.06-.74.02-.83-.2-.08-.2.05-.24.12-.27.2-.1.37-.17.73-.17.5.05 1.25.05 1.36.24.1.18.06.2.04.3zm-.08-.87c-.27.06-.54-.04-.58-.3-.04-.26.37-.48.67-.4.13.03.27.22.3.34.04.2-.28.33-.4.36zM60.2 92c-.36.35-.82.37-1.26.28-.5-.1-.64-.41-.79-.96-.09-.33.16-.8.59-1.05.21-.12.84-.35 1.26-.12.56.34.97 1.02.2 1.85zm6.71 1.64c.16-.07.24-.02.3.13.07.16.05.43-.12.5-.17.08-.36.03-.44-.16-.09-.2.1-.4.26-.47zm-1.6.05c-.03-.14 0-.37.09-.46.15-.14.5.01.68.26.13.21-.13.34-.26.42-.22.13-.43 0-.5-.22zm-.9-.94c.24-.1.44-.03.54.22.14.27.06.52-.17.6-.13.04-.4-.11-.5-.25-.14-.19-.13-.45.13-.57zm-1.29-.46c.23-.13.46-.03.53.23.05.2.2.47-.1.62-.2.09-.44.06-.58-.31-.07-.27.02-.47.15-.54zm-1.47-.69c.25-.11.43-.03.59.32.07.19.16.4-.13.54-.41.2-.63.17-.76-.1-.14-.3-.02-.6.3-.76zm-1.75-7.4c-.52.71-.37 1.56-.96 2.12-.08-.1-.78-1.95-1.04-2.52-.45-1-1.03-3.47-1.04-3.68.43.25 1.02.86 1.28 1.09.52.47 1.43 1.2 1.78 1.81.23.4.22.78-.02 1.17zm1.9-4.38c.18.7-.35 1.35-.85 1.8-.35.31-.73.3-1.1 0L57.93 80c-.27-.23-.55-.44-.8-.68-.1-.1-.16-.26-.26-.42-.05-.18-.12-.38-.16-.59a13.77 13.77 0 0 1-.25-3.86c.01-.16.05-.75.14-.9.17.47.31.77.53 1.04.37.46.65.73 1.06 1.15.4.41.88.75 1.32 1.11.37.3 1.09.73 1.28 1.04.32.52.76.96 1.02 1.93zm-.29-4.13c.17.62-.17 1.5-.8 1.04a8.94 8.94 0 0 1-3.23-3.13 3.54 3.54 0 0 1-.5-1.77c-.03-.76.25-1.65.4-2.34.09-.33.26-1.54.43-2.15.34.55.4.98.62 1.81.29.98 1.35 2.87 1.46 3.08.17.3 1.3 2.4 1.63 3.46zm-4.2-10.54c-.03.8-.28 1.76-.44 2.64-.08.49-.18.97-.28 1.46-.12.55-.26 1.1-.36 1.65-.24 1.4-.48 2.79-.7 4.18-.28 1.84.08 6.38 2.22 10.81.4.8.67 1.89.38 2.45-.28-.16-.47-.45-.75-.92a33.66 33.66 0 0 1-2.53-5.82 22.78 22.78 0 0 1-.74-5.83c.09-1.11.25-2.22.39-3.33.02-.21.1-.41.15-.62l.84-3.43.55-2.27c.13-.5.29-1.01.4-1.53.07-.24.25-.99.37-1.57.39.61.52 1.45.5 2.13zm-1.41-3.6c-.13 0-.27-.16-.37-.27-.2-.2-.37-.43-.53-.66-.06-.09-.17-.26-.06-.35.12-.08.24-.03.33.01.27.15.66.45.8.8.04.22-.05.45-.17.46zm-3.79-9.97a.63.63 0 0 1-.78.27 27.95 27.95 0 0 0-4.75-1.22c-.86-.17-1.75-.25-2.61-.41-1.81-.34-3.62-.69-5.42-1.05-1.6-.33-3.2-.7-4.8-1.03a27 27 0 0 1-4.04-1.11l-4.25-1.56c-1.17-.43-2.34-.91-3.53-1.32-.8-.28-1.64-.48-2.47-.7-.33-.1-.61-.24-.76-.57-.12-.25 0-.45.28-.46.7 0 3.13.11 3.66.17 2.27.12 4.26.99 4.72 1.13.88.28 3.07 1.43 3.35 1.54.52.2 2.19.76 2.51.83l4.58.85c1.17.22 2.34.41 3.5.64 1.26.24 2.5.5 3.75.76 1.17.25 2.36.47 3.5.8.98.3 1.92.71 2.86 1.12.7.34.92 1.02.7 1.32zm2.58 3.65c-.03.09-.26.32-.42.34s-.23-.12-.25-.21c-.03-.11-.06-.28.07-.36.13-.08.48 0 .54.04.06.04.1.1.06.19zm-.74-1.2c-.1-.26 0-.5.26-.6.28-.1.71.03.8.26.12.3-.02.58-.36.72-.21.1-.58-.11-.7-.38zm2.12 2.7c-.26.06-.36-.04-.42-.18-.06-.14-.03-.4.18-.48.2-.1.4.19.45.3.03.09.05.28-.2.35zm1 1.11c-.16.04-.26-.05-.27-.12-.03-.1-.04-.26.1-.31.12-.06.28-.05.36.09.08.14-.05.3-.2.34zm-.41-1.65c-.04-.1-.03-.32.13-.39s.54-.01.62.17c.08.19-.17.34-.26.4-.21.11-.42.03-.5-.18zm1.12 2.2c-.05-.11-.1-.35.16-.45.26-.1.44-.03.58.16.14.2-.1.45-.3.48-.2.02-.39-.08-.44-.2zm.82 1.58a.36.36 0 0 1 .18-.4c.25-.13.4.07.52.27.1.18.09.35-.13.43-.26.1-.52-.08-.57-.3zm1.35 1.88c-.19.09-.35-.02-.43-.21-.09-.2-.04-.4.1-.45.16-.04.4.18.45.28.04.1.06.3-.12.38zm-.94-2.77c-.38-.4-.43-.72-.14-.98.08-.06.13-.13.3-.08.18.05.4.23.55.49.16.25.02.5-.18.66-.2.15-.38.07-.53-.1zm1.42 2.7c-.08-.19 0-.5.05-.56.06-.06.08-.06.14-.06.07.01.28.11.33.21.11.21.06.43-.18.52-.1.03-.26.07-.34-.11zm1.2 1.48c-.12.05-.3-.03-.33-.24-.04-.2-.01-.3.12-.36s.16-.02.26.14.05.41-.06.46zm-1.28-2.5c-.28.11-.46-.02-.58-.25-.11-.23.03-.63.25-.74.22-.1.48 0 .59.23.11.25-.02.65-.26.76zm1.06.2c-.05.05-.05.05-.14.05-.1 0-.32-.15-.36-.27-.04-.1-.09-.32.12-.41.21-.1.37.07.44.17.06.1 0 .4-.06.45zm-.66-1.48c-.13.04-.43.07-.57-.17-.14-.24.17-.5.29-.55.1-.04.36.08.44.2.13.2.07.45-.16.52zm-.69-1.7c-.19.1-.38.07-.48-.15-.13-.29.1-.44.3-.56.08-.04.19-.08.32.05.14.13.11.54-.14.66zm-.8-2.64c-.12.13-.53.09-.63-.16-.08-.2-.12-.42.12-.52.26-.1.47.07.57.29.05.1.07.26-.06.39zm-.9-2.2c-.13.03-.39-.06-.43-.16-.05-.13-.09-.46.11-.62.2-.17.44.16.5.26.14.22.03.45-.19.51zm2.22 3.5c-.16.08-.35-.15-.28-.36.02-.05.2-.12.25-.09.17.11.2.38.03.45zm-.33-1.24a.23.23 0 0 1-.31-.12c-.04-.11-.08-.28.07-.38.16-.1.5-.1.56.04.06.14-.14.38-.32.46zm-.97-2.76c-.14-.33-.02-.63.32-.79.29-.13.6-.05.7.19.12.24-.11.74-.41.89-.2.1-.5-.04-.6-.3zm1.4.19c.21-.1.45-.02.52.2a.62.62 0 0 1-.09.45c-.06.06-.1.06-.15.06a.63.63 0 0 1-.45-.33c-.1-.24.07-.33.17-.38zM70 68.12c.03.15.14 1.09.13 1.24-.14.9-1.37-.97-1.84-1.65-1.89-2.43-1.85-3.84-3.52-5.83-.96-.93-1.38-1.4-1.42-1.93.62.28 1.38.47 1.88.68.73.31 1.48.6 2.15 1.03.55.35 1.57.52 1.96 1.14.35.6.26 1.22.4 1.75.09.38.02 2.1.27 3.57zm5.8 5.27c-.58.08-.79-.2-1.25-.17-.72.04-1.66-.2-2.22-1.17-.38-.67-.83-1.33-1.1-2.05a8.35 8.35 0 0 1-.5-2.84c0-.8-.02-1.62-.05-2.43 0-.2-.07-.42-.1-.63l.02-.59c.68.47 1.23.9 1.83 1.24.6.33 1.01.82 1.42 1.35.53.69.86 1.48 1.09 2.32.34 1.25.52 3.7.86 4.97zm5.26 1.07c.25.96-.6.74-1.98.47-1.37-.27-1.57-.46-2.1-.98-.26-.25-.46-.9-.54-1.29-.1-.48-.17-1.06-.2-1.55-.06-1.04-.07-1.45-.4-2.44-.1-.3-.23-1.04-.4-1.56.11.05 1.6 1.63 2.23 2.4.3.35.6.7.86 1.08.5.75 2.28 2.91 2.53 3.87zm-1.95-4.28a41.33 41.33 0 0 0-3.9-4.27c-.79-.72-1.63-1.38-2.48-2.05-.37-.28-.79-.5-1.19-.75-1.03-.64-2.05-1.3-3.1-1.9-1.14-.62-2.2-.98-3.38-1.53-.45-.2-1.04-.53-1.51-.7-.3-.1-.75-.46-.88-1.02.87.26 1.77.5 2.66.78.6.2 1.2.42 1.77.69.95.45 1.88.93 2.8 1.42a35.02 35.02 0 0 1 7.1 4.94c.52.48 1.03.97 1.5 1.5a67.2 67.2 0 0 1 2.13 2.48c.5.6 1.17 1.67 1.61 2.32.87 1.45 1.1 2.6 1.49 3.62.16.42.35 1.5.34 1.65-.51-.27-.92-.17-1.4-1.1-.57-1.14-.88-2.58-2.2-4.3-.43-.6-.89-1.2-1.36-1.78zM64.11 57.02c-.06-.11.03-.45.16-.5.12-.06.33-.07.4.2.08.26.11.5-.07.58-.18.08-.41-.14-.49-.28zm1.06.2c-.17-.68-.09-1.1.17-1.17.26-.08.68 1.59.38 1.67-.3.09-.47-.23-.55-.5zm1.23.5c-.12-.52-.25-1.05-.34-1.58a.64.64 0 0 1 .13-.48c.15-.16.34-.13.47.14l.34 2.05c0 .07-.08.22-.15.24-.09.02-.22-.03-.3-.09-.08-.06-.12-.17-.15-.27zm2.2 1.14c-.02-.1.02-.34.17-.4.15-.06.36 0 .36.09.01.09-.05.33-.23.41-.18.08-.29 0-.3-.1zm6.17-2.05c.09 0 .15.03.15.11s-.05.23-.12.33c-.17.24-1.3.52-1.4.24-.08-.29 1.28-.69 1.37-.68zm-1.32-.3c.05-.1.3-.18.37-.1.08.08.12.13.07.21-.05.09-.28.18-.37.13a.17.17 0 0 1-.07-.24zm1.95.93c.14-.06.3-.13.44-.12.13.02.3.12.32.22.03.09-.01.2-.16.28-.15.08-1.47.61-2.16.88-.24.1-.45.02-.48-.23-.03-.18 0-.42.29-.44.64-.02 1.18-.34 1.75-.59zm3.52 2.74c.32-.08.64-.17.96-.22a.84.84 0 0 1 .5.06c.22.12.2.34-.02.46-.13.07-.29.11-.44.14l-1.1.22c-.23.04-.65.16-.64-.18s.43-.41.74-.48zm-.35-.43c-.13-.23.16-.44.36-.45.2-.01.63-.08.7.1s0 .26-.26.38c-.27.12-.66.2-.8-.03zm5.14 12c.17-.2.36-.38.55-.56.16-.16.3-.33.49-.45.1-.06.28-.23.42-.03.13.2-1.59 2.1-1.8 1.84-.2-.25.14-.58.34-.8zm-.78.13c-.14-.03.04-.7.28-.86.18-.13.57-.29.66-.08s-.8.97-.94.94zm.95 1.3c.1-.17 1.4-1.44 1.75-1.8.3-.3.65-.78.95-.87.3-.09.26.45.06.63-.34.32-.7.62-1.04.95-.3.28-.56.6-.86.88-.23.22-.67.57-.75.62-.08.04-.1.01-.12-.04-.02-.05-.1-.21.01-.38zm.9.54c.06-.03.38-.13.57-.13.85-.02 1.7-.01 2.55 0 .29 0 .97.36.72.47-.25.11-.7-.04-1-.04H85.4c-.2 0-.56-.05-.61-.12-.06-.07-.07-.14-.01-.18zm1.02-.66c-.24-.32.19-.28.47-.33.13-.03.5-.04.75-.07.25-.03 1.12-.01 1.33.2.1.09.03.25-.05.23-.07-.01-2.27.28-2.5-.03zm1.2-.89c-.22 0-.43-.23-.27-.3a.98.98 0 0 1 .5-.08c.14 0 .31.05.45.07.16.02.42.12.46.15.04.04.06.07.06.1 0 .05-.05.1-.1.1-.36 0-.87-.02-1.1-.04zm.86-.75c-.09.07-.15.1-.22.04-.08-.06-.15-.3-.09-.38.06-.1.17-.11.25-.05.08.07.14.32.06.39zm-.75-1.3c-1.32.07-2.65.05-3.96.2-.57.07-1.4.13-1.12-.23.12-.14.4-.12.5-.13l2.45-.26a58.5 58.5 0 0 1 1.72-.16c.17-.01.36 0 .52.05.08.04.2.21.18.28-.04.1-.18.24-.29.25zm-8.29-6.05c.28.2-.77 1.57-1 1.35-.22-.22.72-1.55 1-1.35zm-1.38.69c-.1 0-.17 0-.2-.1-.03-.09.05-.32.15-.36.1-.04.2 0 .23.1.02.1-.07.35-.18.36zm1.25.54c.18-.28.34-.57.54-.83.1-.13.78-.7.93-.74.24-.08.42-.06.34.18-.04.15-.7.88-.78 1-.2.32-.42.63-.64.93-.13.19-.35.57-.58.33-.23-.25.02-.6.2-.87zm1.91-.66c.45-.42.87-1.24 1.19-1.43.11-.07.17.07.18.16 0 .09-.1.27-.17.39-.33.53-.64 1.07-1 1.57-.25.34-.59.61-.87.93-.15.17-.26.36-.39.54-.13.2-.31.2-.45.05-.16-.18 1.05-1.77 1.51-2.2zm-.02 2.97c.09-.09.4-.13.44-.1.03.04.07.07.06.13 0 .06-.14.4-.34.55-.2.16-.32-.41-.16-.58zm.27 1.05c.37-.47.7-.9 1.05-1.39.12-.17.46-.56.7-.52.2.05.1.26 0 .38l-1.04 1.25c-.1.13-.19.28-.3.4a.77.77 0 0 1-.26.2c-.04.03-.14-.03-.17-.09-.01-.03-.01-.18.02-.23zm.8.36c.39-.32.62-.74.9-1.16.16-.27.62-.85.9-1.1.28-.27.86-.8.92-.51s-2.6 3.81-2.85 3.54c-.2-.3-.13-.57.12-.77zm4.04-2.08c.12-.01.39.05.4.2 0 .15-.21.2-.34.23-.45.1-1.3.27-1.37.27-.05 0-.11-.04-.1-.16 0-.12.15-.25.25-.28.38-.11.77-.2 1.16-.26zM87.03 69c-.11.14-.34.04-.5.04-.21 0-.43-.03-.65 0-.79.12-1.58.28-2.37.4-.13.02-.52.1-.58-.12-.07-.24 1.84-.57 2.24-.59.46-.02.92-.1 1.38-.14.22-.02.6.27.48.4zm-1.66-.7c-.43.11-.86.23-1.3.31-.12.03-.33.08-.4-.07-.06-.14.08-.35.18-.4.27-.12.57-.21.86-.25.61-.07 1.91-.24 1.96.1.05.34-.9.22-1.3.32zm.12-1.75c-.12.05-.42-.04-.44-.09s-.04-.09-.01-.14c.03-.05.3-.31.53-.37.25-.05.13.52-.08.6zm-.9-.84c-.82.25-1.65.46-2.46.72-.5.16-.98.38-1.48.55-.11.04-.28.13-.38 0-.1-.14 0-.35.08-.4.31-.18.64-.35.98-.45.87-.26 1.75-.47 2.62-.72.5-.17.9-.43 1.02-.29.2.21-.02.48-.38.59zm-.17-1.28c.05.33-.36.48-.65.6-.3.13-.63.13-.94.23-.16.05-1.01.3-1.16.25-.25-.08-.38-.2-.18-.35.12-.1 1.07-.33 1.21-.4l1.06-.4c.21-.07.6-.26.66.07zm-.7-.35-1.3.38-.4.14a.65.65 0 0 1-.27.02c-.04-.01-.08-.1-.08-.15 0-.03.06-.14.11-.15.47-.16.9-.3 1.37-.48.16-.06.58-.18.74-.03.12.13-.05.23-.17.27zm-.49-.51c-.13.1-.56.21-.7.16-.13-.06-.13-.2.01-.31.15-.11.62-.22.7-.12.09.1.12.17 0 .27zm-.56-1.14c0 .1-.12.25-.21.27-.98.23-1.97.46-2.96.66-.65.13-1.3.2-1.95.32-.96.2-.86-.35-.49-.43.99-.18 1.97-.34 2.95-.54.69-.15 1.36-.37 2.05-.54.13-.03.28-.06.4-.02.1.04.2.18.2.28zm-.83-.88c.06.25-.15.27-.32.31-1.27.3-2.53.58-3.79.86-.14.04-.31.17-.45-.01-.14-.18.28-.63.68-.69.84-.13 1.66-.3 2.49-.46.31-.06.61-.16.92-.24.22-.05.42-.03.47.23zm-1-.38-1.8.4c-.33.07-.67.17-1.01.26-.08.01-.26.03-.33-.1-.1-.2.07-.4.35-.45.89-.21 1.78-.42 2.67-.6.12-.03.35.05.4.14.1.22-.1.31-.28.35zm-2.63-2.02c0 .37-.76 1.8-1.36 2.79-.26.43-.5.88-.71 1.34-.1.22-.25.37-.49.27-.24-.1-.21-.33-.11-.52l.98-1.67c.42-.7 1.02-2.32 1.3-2.45.24-.11.41.03.4.24zm-4.3 2.7c.36-.57.74-1.14 1.14-1.7.06-.07.22-.23.35-.11.13.1.08.29.03.38-.33.58-.7 1.15-1.05 1.72-.03.05-.03.13-.15.16a.24.24 0 0 1-.25-.1c-.06-.1-.12-.27-.07-.35zm-.23-.06c-.07.06-.13.09-.18.02a.78.78 0 0 1-.14-.32c-.04-.3.6-1.26.85-1.12.26.14-.46 1.37-.53 1.42zm1.04.47c.4-.64.77-1.32 1.18-1.96.15-.25.36-.46.56-.66.05-.06.23-.09.28-.04.07.06.09.2.1.3 0 .08-.05.16-.09.23l-1.51 2.47c-.08.13-.1.31-.29.36-.19.05-.42-.4-.23-.7zm2.8-3.75-1.59.6c-.59.21-1.17.44-1.77.62a1 1 0 0 1-.56-.05c-.07-.02-.16-.14-.08-.29.07-.14.31-.26.5-.32.93-.33 1.88-.65 2.82-.96.17-.05.36-.12.53-.1a.4.4 0 0 1 .3.25c.01.08-.06.2-.14.25zm-4.79-1.6.19 4.05c0 .1-.03.25-.08.28a.42.42 0 0 1-.33-.02c-.28-.15-.3-.42-.3-.7 0-1.36-.06-3.28.14-4.02.1-.41.4 0 .38.4zm-.97.43.06 2.86c0 .13.07.33-.06.39s-.4.06-.45-.37c-.05-.43-.11-1.7-.14-2.54 0-.18.08-.37.15-.54.04-.07.17-.16.23-.15.08.01.15.13.2.21.02.04.01.1.01.14zm-.99.73c.06.48.13.96.15 1.44 0 .16 0 .43-.19.47-.18.03-.35-.24-.36-.37-.05-.51-.05-1.03-.03-1.55 0-.12.12-.31.2-.35.07-.03.11-.01.14.04.02.06.08.22.1.32zm-.93.07c.06.34.1.7.12 1.04 0 .08 0 .17-.2.23-.2.07-.29-.12-.3-.2-.06-.42-.01-1.24.16-1.32.18-.08.21.17.22.25zm13.14 28.83c-.19.04-.26-.09-.31-.18-.04-.08-.05-.26.08-.31.12-.06.4-.07.48.11.08.19-.06.34-.25.38zm.7-.72c-.19.08-.44.05-.5-.14-.05-.18.17-.46.37-.55.2-.09.26-.01.34.16.07.17-.04.45-.22.53zm.82-1.1c-.13.08-.33-.1-.36-.2-.04-.14-.1-.4.08-.47.17-.08.44.01.54.17.1.15-.13.43-.26.5zm.47-1.07c-.24.16-.43 0-.54-.23-.1-.21 0-.4.2-.5.24-.12.52.11.6.28s-.13.37-.26.45zm.6-1.2c-.24.1-.56 0-.66-.23-.1-.22.03-.5.27-.62.22-.1.65.07.76.3.1.22-.03.4-.37.55zm1.13-1.52c-.26.13-.62.08-.93.06-.18-.01-.36-.1-.52-.18a.45.45 0 0 1-.21-.22c-.25-.66.1-1.32.78-1.48.17-.04.35-.04.52-.05.36 0 .53.07.7.43.2.36.13 1.2-.35 1.44zm1.05-3.34c-.04.06-.21.13-.3.12-.7-.08-1.63-.21-2.06-.27-.42-.06-.53-.52-.2-.48a26.23 26.23 0 0 1 1.72.28c.28.06.79.14.83.2.05.05.04.1 0 .15zm.64-.74c-.27.04-1.27-.38-1.9-.31-.38.04-.78 0-1.17-.04-.35-.03-.75-.67-.25-.64.51.02 1.57.25 2.35.35.2.03.4-.06.59-.04.16.03.36.1.46.23.06.08.18.41-.08.45zm.14-1.55c-.03.26-.21.32-.43.3l-2.25-.19c-.24-.02-.47 0-.7-.02a1.1 1.1 0 0 1-.45-.14c-.05-.04-.07-.2-.04-.28.02-.06.16-.1.24-.09.83.04 1.66.11 2.5.12.28 0 1.15.05 1.13.3zm-.02-.75a54.6 54.6 0 0 1-3.8-.12c-.32-.07-.56-.3-.19-.38.37-.1 2.82.06 3.92.13.57.04.32.34.07.37zm3.1-7.42c-.04.19-.01.87 0 1.31.03.61-.46 2.06-.67 1.04-.2-.82-.28-1.3-.58-1.93-.15-.32-1.06-2.25-1.47-2.86 1.18.56 2.27.38 2.58.75.35.42.25 1.14.14 1.69zm-1.44-3.13c-.62-.12-1.22-.36-1.82-.56-.68-.23-1.01-.87-1.46-1.35-.61-.64-1.67-1.97-2.03-2.33a57.6 57.6 0 0 0 3.84-.09c1.23-.06 1.7.54 2.42 1.36.52.6 1.29 3.32-.95 2.97zm.2-6.56c.19.47 0 .83-.63 1.19-.6.28-1.36.3-2.13.36-.8.06-1.6.06-2.39.07-.93.02-1.48-.5-2.2-1-.78-.54-1.5-1.14-2.3-1.65-.78-.52-1.87-1.14-2.8-1.75.74-.11 2.38.02 3.5-.2 1.05-.12 2.87-.72 4.06-.74 2.34-.27 3.71 1.24 4.88 3.72zM73.6 52.45c.95-.04 1.4 0 2.34-.23 2.07-.65 5.14-.66 6.2-.5.65.1 3.32.28 2.92 1.18-.18.4-1.63.73-2.24.82-.56.09-1.11.19-1.67.27-1.1.17-2.01.26-3.13.15-.63-.05-.85.02-1.48.02-.87 0-2.6-.84-4.58-1.22.27-.3 1.36-.47 1.64-.49zm-.23 1.68c.42.1 2.3.92 2.82 1.2 1.08.6 3.64 2.13 3.85 2.28.96.69 1.95 1.35 2.9 2.05.73.54 3.31 3.49 3.96 4.33.43.56.83 1.14 1.21 1.73.14.23 2.96 5.67 2.26 7.86-.2.6-.75 2.17-1.02 2.14.08-.67.09-1.18.05-1.64-.07-.87-.1-2.39-1.01-4.77-.2-.42-.33-.87-.53-1.3a20.8 20.8 0 0 0-2.9-4.51 25.01 25.01 0 0 0-2.52-2.57c-.66-.6-1.4-1.1-2.13-1.63-.7-.52-1.42-1.04-2.16-1.51a24.5 24.5 0 0 0-4.17-2.17c-.92-.35-1.8-.81-2.71-1.18-.6-.23-1.8-.48-2.63-.57 1.77-.6 3.52-.03 4.73.26zm-5.1.28c.09-.09.44-.1.53 0 .09.1.15.3-.08.45-.23.15-.45.25-.58.1s.02-.44.13-.55zm.2 1.03c.42-.3.87-.55 1.33-.8.1-.05.33-.04.4 0 .06.05.07.1.03.15s-.14.18-.23.24c-.39.29-.77.58-1.18.84-.13.08-.37.21-.5.06-.12-.14.04-.42.15-.5zm-.1 1.26c.06-.1.3-.35.48-.47.7-.44 1.42-.87 2.15-1.28.11-.06.32-.1.44.02.13.12-.06.37-.16.44-.31.21-.67.35-1 .54-.4.24-.79.5-1.2.73-.2.1-.57.17-.63.16-.07 0-.12-.04-.07-.14zm.27.67c.28-.23.57-.45.9-.6.8-.4 1.12-.64 1.94-1.03.47-.25.76-.38.9-.27.23.18.16.3-.17.46-.76.39-1.08.6-1.84 1-.47.24-.9.53-1.37.79-.1.05-.25.17-.37.06-.12-.12-.06-.35.01-.4zm-1.28-2.35c.07.08.22.4.26.6.15.83.28 1.66.4 2.49.01.12-.03.33-.18.4-.16.07-.32-.2-.35-.32-.08-.37-.08-.75-.14-1.12-.07-.47-.17-.93-.23-1.4-.02-.2.05-.58.08-.64.02-.06.08-.1.16-.01zm-.48-.6c.22.37-2.1 1.67-2.23 1.46-.12-.2.36-.53.74-.76.54-.34 1.26-1.06 1.48-.7zm-2.95.8c.24-.18.4-.3.64-.46.19-.1.27-.33.42-.2.16.1.09.25-.24.5-.33.22-.75.62-1.15.88-.09.06-.16.14-.26.17-.07.03-.18.1-.25-.02-.06-.14.01-.24.07-.29.24-.2.5-.4.77-.58zm8.17-8.42c-.78-.04-1.55-.12-2.33-.13-.67-.01-1.35.05-2.03.1-.3 0-.62.02-.92.07-.47.1-1.98.4-2.02.38.07-.17.84-1.25 1.1-1.65a2.35 2.35 0 0 1 2.91-.83c1.04.45 2.05.95 3.05 1.45.2.1.35.3.59.51-.19.06-.27.1-.35.1zm4.37.46c-.77.12-1.55.2-2.25-.24-.25-.16-.48-.35-.7-.53-.42-.31-.8-.66-1.24-.93-.46-.28-.96-.5-1.45-.72-2.45-1.52-4-.55-4.3-.48a57.7 57.7 0 0 1 2.38-3.98c.1-.17.4-.28.63-.3a5.27 5.27 0 0 1 2.87.72c.82.45 1.63.89 2.34 1.52 1.88 1.31 3.02 1.5 3.58 1.65.31.08.66.01.98 0 .28 0 .84 0 1.09.54.22.5-.66 2.28-3.93 2.75zm5.46-8.23c-.12 1.04 1.23 1.85.16 3.39-.33.44-.8.5-1.11.52-.44.03-.9-.02-1.32.08-.45.12-1.23.09-1.65 0-1.35-.3-2.26-.86-3.46-1.57-1.08-.64-1.85-1.24-3.1-1.53-.45-.1-.9-.22-1.36-.28-.11-.01-.57 0-.79-.04.28-.38.48-.7.74-.98.49-.53 1-1.06 1.53-1.55.21-.2.51-.34.8-.41.6-.15 1.23-.22 1.84-.33.74-.14 1.45.05 2.16.2 2.2.46 4.66.27 5.26.29 1.48.01.4 1.38.3 2.21zm.26-6.77c.02.54.13 1.15.5 1.94.47 1.23-.82 1.53-2.54 1.87-.39.05-1.43.25-2.66-.12-2.95-.84-5.24.24-5.33.2.04-.08 1.4-1.32 2.5-1.93 1.3-.68 2.5-1.25 3.43-1.56.88-.3 4.1-1.4 4.1-.4zm-.83-2.38c.25.78.2.82-.58 1.03-.49.13-.94.37-1.4.55-.48.17-.96.3-1.44.47-.74.25-1.5.45-2.2.77-.56.24-1.04.64-1.58.93-.75.42-1.4.95-2 1.55-.68.67-1.44 1.25-1.92 2.11-.32.58-.87 1.02-1.24 1.57-.5.75-.93 1.54-1.4 2.32l-1.29 2.14c-.5.85-1.02 1.7-1.53 2.54l-.4.7c-.3.45-.58.9-.88 1.33-.24.34-.47.7-.74 1.02-.4.45-.83.87-1.23 1.31-.22.24-.46.24-.7.09-.35-.22-.4-.53-.26-.89.3-.82.91-1.44 1.4-2.13 1.2-1.67 2.4-3.33 3.4-5.13.32-.58.78-1.09 1.12-1.67.77-1.3 1.51-2.64 2.26-3.96.67-1.2 1.32-2.39 2-3.57.13-.22.34-.4.53-.57.9-.87 1.8-1.35 2.98-1.76.59-.18 1.23-.26 2.3-.33 1.14.06 3.33-.77 4.04-.97.29-.09.53.04.7.41l.06.14zm-.1-4.97c-.34 1.42 1.07 2.55-1.78 3.81-1.12.5-2.28.72-3.59.74-2.09.23-4.1 1.67-4.13 1.62.08-.14.15-.3.25-.42 2.6-3.6 3.54-4.3 5.28-5.63 1.07-.83 2.24-1.7 2.66-1.95.98-.75 1.73.79 1.31 1.83zm-1.33-2.92c-.47.45-4 3.25-4.69 3.91-.5.5-.96 1.07-1.42 1.62-.68.82-1.37 1.64-2.02 2.49-.59.77-1 1.64-1.44 2.5-.56 1.14-1.2 2.22-1.81 3.32-.48.88-.93 1.78-1.44 2.64-.52.9-1.11 1.75-1.67 2.62-.58.9-1.14 1.8-1.73 2.67-.74 1.08-1.49 2.15-2.26 3.2-.52.72-1.1 1.38-1.64 2.08-.15.19-.3.2-.5.1-.36-.17-.44-.65-.2-1 .9-1.25 1.82-2.5 2.68-3.77.93-1.4 1.81-2.84 2.7-4.27.78-1.25 1.5-2.54 2.33-3.76 1.25-1.85 2.17-3.88 3.22-5.85 2.01-3.94 6.61-7 7.39-7.69 2.08-1.97 2.23-2.91 2.57-3.37.72-1.17 1.03 1.58-.07 2.56zm-.02-5.2c-.2.68-.54 1.39-.8 1.97-.33.65-.64 1.4-1.3 2.16-.3.4-1.85 1.89-2.25 2.26-.42.38-2.42 2.12-3.46 3.22.74-2.1 1.29-3.29 1.87-6.13.37-1.67 1.17-2.66 1.44-3.23.05-.1.46-.73.62-.94l.84-1.11c1.1-1.32 2.21-1.03 2.75-.26.36.5.4 1.7.3 2.06zm.38-4.43c-.23.4-1.15.37-1.34-.07-.13-.28-.2-.61-.22-.92-.01-.38.36-.72.78-.8.28-.06.64.17.8.52l.07.15c.23.38.1.76-.1 1.12zm.24-2.2c-.24.12-.4 0-.5-.22-.09-.2-.12-.42.11-.56.18-.1.48.04.6.3.08.2.02.38-.2.49zm.26-1.32c-.16.07-.35-.02-.43-.2-.07-.17-.06-.33.12-.41.18-.08.53-.07.63.15.1.22-.16.4-.32.46zm.3-1.32c-.1.03-.24.04-.33-.1-.09-.13.02-.32.16-.34.08 0 .24.07.26.14.02.09-.03.27-.1.3z"/><g fill="#FFF"><path d="m195.87 54.2 2.87-.12c.93-.04.95-.84 1.21-1.79.12-.41.28-.81.52-1.17.26-.4.4-.81.4-1.28.03-.68.26-1.3.57-1.9.41-.81.8-1.67 1-2.54.16-.65.17-1.23.56-1.74.24-.32.36-.83.52-1.2.25-.6.56-1.72 1-2.2a6.22 6.22 0 0 0 1.22-2.5l1.2-2.75c.42-.84.84-1.6 1.38-2.36.2-.29.26-.42.6-.2.3.18.3 1.18.17 1.48-.2.46-.4 2.63-.41 3.12-.06 1.8-.67 2.82-.81 4.6-.14 1.74-.58 3.43-.8 5.15-.18 1.27-.36 4.13-.66 5.35-.2.83-.05 1.4.8 1.3a4.87 4.87 0 0 1 2.13.15c1.16.37 2.34-.2 2.7-1.4.49-1.66.92-3.41 1.43-5.66.25-1.14 1.59-3.76.41-2.47-1 1.1.36-2.04.74-2.74 1.25-2.31-.28 1.53.18 1.29.43-.22 1.71-3.88 4.11-8.46.09-.16.44-.42.46-.1.03.33-.51 3.73-.57 4.06-.29 1.56-.35 3.16-.85 4.67-.35 1.07-.5 2.14-.52 3.24 0 .6-.17 1.12-.55 1.6-.37.46-.5 1-.53 1.62-.05 1.17.01 2.36-.35 3.53-.19.61.28.75.88 1.11.95-.04 1.99-1.05 2.96-.22.34.2 1.62-1.03 1.59-1.7-.03-.64-1.25 1.63-.08-2.92.36-1.38.28-2.86.9-4.19.38-.82.84-1.62.63-2.58-.01-.05.02-.12.04-.18.68-1.52 1.05-4.84.97-6.4-.07-1.43.91-4.86-.02-5.93-.55-.55-2.2-.83-2.67-.92-3.23-.65-2.13.8-5.43 7.1-.56 1.08-.76 1.96-1.74 3.14.31-2.06.42-4.17.4-4.5-.18-2.5.4-3.6-.7-5.1a6.77 6.77 0 0 0-1.43-.7c-1.13-.26-1.84-.73-3-.3-.48.17-1.27 1.1-1.94 1.62-.35.22-2.48 2.7-2.63 2.92-.63 1-.19.96-1.05 1.89-.14.14-.64.68-.94 1.33.2-1 .08-2.4.58-3.36.64-1.21.42-2.3.23-3.6-.12-.9-.68-1.25-1.55-1.1-.84.13-1.67.31-2.5.54-.5.14-.48.24-.67.73-.38.94-.39 1.9-.4 2.88-.02.49-.1.95-.22 1.43-.27 1-.62 2.01-.67 3.02a18.5 18.5 0 0 1-.66 3.67c-.16.66-.04 1.36-.32 1.97-.3.67-.38 1.34-.4 2.05 0 .36-.01.72-.13 1.08a11.5 11.5 0 0 0-.7 5.36c.09.58.01 1.14-.28 1.68-.16.3.07 1.06.26 1.35.15.2.35.27.56.26zM252.37 27.67c-.17 0-.34.04-.5.07-1.28.24-2.37 1.01-3.45 1.78-.42.3-.58 1.26-.7 1.79a113.1 113.1 0 0 0-.78 3.58c-.15.71-.42 1.39-.51 2.11-.16 1.23-.1 2.43-.06 3.65.02.75-.03 1.24-.22 1.57l-.04.52c.02.36.01.75-.05 1.17l-.16 1.38v.31c-.07.49-.05 1-.14 1.48-.12 1.74-.62 4.47 0 5.66.1.4 1.05.88 1.59 1 .54.13.29-.33.83-.2.17.04 1.37.28 1.52.18.44-.28.15-.27.25-1.55.36-.43.44.66.87.5.12-.32.13-.22.1-.48-.07-.71-.1-1.57.08-2.28.33-1.37.27-2.81.83-4.12.05-.12.04-.27.04-.4 0-.6.17-1.17.25-1.76.22-1.53.8-8.01.9-9.2.07-.96.57-4.25.68-4.74.29-1.3-.2-2.04-1.33-2.02zM122.94 67.6c-.01-.26-1.44-3.62-2.49-4.39-.68-.5-1.35-1.02-2.09-1.4-.84-.43-3.28-.97-3.56-1.04-.37-.1-.75-.17-1.12-.12-1.42.16-2.3.23-3.66.64-.33.1-.83.44-.88.87.36.68-.21.67.82 1.05 1.33.5.8.38.81 1.45 0 .58-.13 1.15-.17 1.73-.06 1.07-.89 3.96-.92 4.4-.11 1.74-.53 3.44-.9 5.14-.23 1.1-.27 2.24-.65 3.32-.04.13-.03.3.01.43.44 1.3-.43 2.6-.13 3.86.87 3.66.52 3.76 3.42 4.17.33-.07.46-.37.75-.36 1.24-.01.98.36 1.57.14 1.12-.46.7-1 .9-1.64.24-.34.22.17.54.17.44 0 1.26-.54 1.6-.77.97-.65 5.02-5.05 5.96-6.65a.96.96 0 0 0 .13-.41c.04-.63 1.13-3.53.9-4.45-.14-.51-.74-4.6-.84-6.15zm-3.3 6.48c-.44 1.03-.87 2.08-1.28 3.12-.51 1.3-1.97 2.46-3.28 3.12.06-.46.74-3 1.17-3.93.18-.4.23-.84.11-1.28a1.4 1.4 0 0 1 .17-1.09c.74-1.23.93-2.6 1-4 .06-1.01.36-2.65.4-3.67 1.1.7 1.66 1.95 1.73 3.03.03.52.1 1.03.2 1.54.22 1.06.21 2.1-.23 3.16zM116.5 51.15a14.6 14.6 0 0 0 4.04-5.14c.43-.9.71-1.87.99-2.8.4-1.37.79-2.76 1.1-4.16.1-.45-.62-2.83-.65-3.67a5.3 5.3 0 0 0-.68-2.45c-.22-.38-.37-.8-.51-1.21-.45-1.32-1.26-2.24-2.65-2.57-.35-.08-2.77-1.27-3.82-.97-.5.15-2.33-.23-2.74 0-.5.28-2.35.58-2.67.8-.65.42-1.42.3-.75.71.27.17.57.81 2.33 1.4.02.27.03.54-.14 1.07-.73 1.65-1.03 3.67-1.22 4.73-.25 1.38-1.46 5.17-1.48 5.77a9.22 9.22 0 0 1-.29 1.91c-.26 1.05-.8 4.84-1.06 5.65-.1.33-.19.68-.27 1.02-.2.85-.2 1.67.27 2.47.42.73 1.17 1.7 1.37 1.4.42-.47.3-.62.8-.7.42-.04.61.28 1 .3 1.64-.19-.08-1.2 2.1.06.39.25.35-.37.47-.66.4-.96-.05-.91 1.5-1.42.17-.06.58-.18.75-.2.86-.15 1.53-.81 2.2-1.34zm-2.88-3.92c.01-.72.73-2.43.77-2.94.08-1 .57-1.9.82-2.87.17-.68.32-1.37.46-2.06.2-1.06.56-2.1.88-3.13.13-.42.23-.84.2-1.29-.03-.54.2-1.1.32-1.67.14 0 .97 1.08 1.1 1.36.43.95.58 2.32.57 2.4-.27 1.3-.14 2.62-.46 3.91a88.7 88.7 0 0 1-.68 2.64c-.37 1.32-1.25 2.3-2.13 3.28-.21.25-.46.46-.67.7-.19.2-.73.58-1.61.83.22-.43.42-.6.43-1.16zM218.12 61.35c-.27-.01-.54-.02-.8-.07a3.37 3.37 0 0 0-1.79.19c-1.06.38-2.01.96-2.98 1.52a7.3 7.3 0 0 0-2.8 2.73c-.28.5-.53 1.04-.82 1.55-.57 1.02-.62 2.15-.8 3.26-.02.16.05.34.09.5.22.95.35 1.92.68 2.85.38 1.04.71 2.08 1.32 3.01.18.27.37.52.45.84.1.41.34.76.56 1.11.43.66.92 1.27 1.25 2 .44.96.19 2.15-.63 2.7-.7.47-1.2 1.8-2.8-.87-.25-.43-.36-.23.3 1.61.12.48-.47-.25-.85-1.08-.27-.6-.5-1.27-.63-1.5-.28-.46.14 1.94.33 3.02.19 1.1 1.72 2.51 2.88 2.64.74.08 1.5.12 2.24.14.88.01 1.78-.31 2.45-.79 1.15-.8 2.1-1.87 2.29-3.43.06-.52.04-1.02.07-1.54a6.38 6.38 0 0 0-.65-3.57 4.3 4.3 0 0 1-.36-.8 18.92 18.92 0 0 0-1.99-4.71c-.09-.14-.17-.31-.2-.47-.09-.75-.41-1.41-.72-2.08a2.09 2.09 0 0 1-.04-1.58c.49-1.47 1.62-2.42 2.74-3.36.63-.53 1.4-.48 2.16-.35.52.1 1.06.17 1.52-.19.07-.58-.33-.99-.41-1.5-.2-1.14-.92-1.73-2.06-1.78zM133.02 77.46c.68-.07 1.3.1 1.54-.03.33-.17.7-.17 1.04-.11 1.22.2 1.52-.3 2.7.06a5.91 5.91 0 0 0 1.39-1.18c-.04-.3-.2-.42-.4-.5-1.97-.95-3.75-1.39-5.83-.45.17-.72.24-3.38.71-4.44.15-.35.19-.74.2-1.12.05-.91.18-3.01.26-3.92.91-.38.92-.5 2.32-.54.56-.01.77-.14 1.33-.05.32.05.64.15.96.07 1.1-.29 1.28-.38 2.39-.38.23 0 .48.06.62-.22a.67.67 0 0 0-.36-.65c-1-.53-1.06-.85-2.24-1-.98-.12-1.94-.4-2.89-.69-.67-.2-1.35-.4-2.06-.4-1 0-2 .03-2.93-.41-.25-.12-.51-.1-.78-.1l-1.84.1c-1.44.07-1.8 2.12-1.54 2.48.32.43.27.93.1 1.44-.17.56-.2 1.16-.3 1.73-.22 1.27-.1 2.56-.46 3.82-.14.5-.37 1-.42 1.51-.13 1.29-.23 2.57-.78 3.78a.56.56 0 0 0-.04.25c.08 1.05-.45 2.08-.05 3.14.05.12 0 .3-.04.43-.35 1.15-.13 2.33-.2 3.5-.05.65-.02 1.3.5 1.8.1.08.11.26.14.4.2 1.23.44 1.4 1.7 1.17.43-.08.83-.06 1.19.19.63.43 1.28.67 2.06.42.2-.07.46.01.7.03.23.01.47.03.69-.09.4-.22.84-.23 1.28-.23.24 0 .47-.02.68-.14a3.62 3.62 0 0 1 2.22-.44c1.31.15 4.78-1.57 2.8-1.85-.71-.1-.53-.5-1.26-.4-1.29.17-2.58 0-3.87.13-.66.06-1.36.09-1.97-.42-.16-.81-.01-1.67-.2-2.5-.08-.4.23-.78.4-1.16.13-.3.12-.63.08-.95-.03-.27.16-.37.15-.63-.03-.9.15-.93.3-1.45zM142 50.74c-.01.26.19.47.34.68.72 1 1.6 1.85 2.46 2.7.38.38.78.58 1.29.64 1.06.12 2.13-.01 3.18.17.2.03.43-.03.63-.1 1.6-.67 3.17-1.45 4.31-2.86.96-1.18 1.84-2.43 2.75-3.66.3-.4.53-.85.56-1.38.04-.72.48-1.27.67-1.94.7-2.56 1.27-2.95.73-3.74-.16-.24-.04-.58.07-.84.31-.71.41-1.8.23-2.55a51.76 51.76 0 0 0-1.33-4.77c-.6.54.3 2.6.1 3.8-.51-1.86-.9-2.1-1.03-3.15 2.11-.58 2.09-1.37 2.02-2.07-.14-1.43.2-1.08-.94-2.37-.52-.6-1.24-.76-1.4-.8-1.3-.37-2.62-.66-3.91-.04-.8.39-1.57.83-2.26 1.41-2.1 1.79-5.52 5.6-6.47 8.37-.34.97-.6 1.95-.85 2.96-.27 1.08-.95 2.41-1.08 3.96-.02.24-.17 1-.21 1.14-.47 1.5.24 2.96.15 4.45zm5.6-3.43c.21-.56.27-1.23.21-1.88-.01-.15 0-.34.07-.46.64-1 .73-2.2 1.02-3.31.5-1.93 1.6-3.46 2.8-4.93.46-.56.9-1.1 1.34-1.68.28-.37.86-.81 1.36-.76.03.4.18.9.2 1.18.06.74.36.88.49 1.6.23 1.29.1 2.6.13 3.9 0 .23-.14.47-.25.7-.4.82-.75 1.65-.87 2.59a3.6 3.6 0 0 1-.74 1.6c-.54.77-1.01 1.57-1.48 2.38-.7 1.2-2.04 2.7-3.21 3.38a1.73 1.73 0 0 1-1.11-1.59c-.05-.9-.28-1.79.05-2.72zM126.51 51.93c1.88 1.85 4.07 2.41 6.45 2.63.35.03.67-.06.95-.27 2.7-2 4.93-4.4 5.96-7.81.06-.22.73-1.3.7-2.58-.03-1.6.6-3.46-.14-5.08-.28-.74.01-1.14-.5-1.73-1.26-1.47-.9.77-1.25.12-.99-1.59-.95-1.25-.87-.54a8.23 8.23 0 0 1-.24 3.68c-.15.43-.14.93-.17 1.4-.06 1.22-.58 2.27-1.03 3.33a26.48 26.48 0 0 1-1.7 3.22 6.56 6.56 0 0 1-2.76 2.83 2.48 2.48 0 0 1-1.79-1.27c-.65-1.26-.3-2.64-.5-3.95-.05-.3.37-1.51.37-1.8-.02-1.41.64-2.6 1.02-3.88.13-.41.32-.83.58-1.16.97-1.22 1.9-2.47 2.97-3.59a4.27 4.27 0 0 1 3.74-1.38c1.53.16 3-1 3.3-2.53.31-1.5-.87-3.21-2.33-3.18-2.5.05-.84-.53-3.2-.4-.93.06-3.4 1.52-3.94 1.75-.86.36-3.52 3.11-4.17 3.88-.36.4-1.84 3.03-2.36 3.82-.5.74-1.66 2.4-1.74 3.18-.12 1.22-.52 2.33-.56 3.56-.03.93-.03 1.9.22 2.72.57 1.9 1.52 3.58 2.99 5.03zM173.64 51.98c.15-.3.28-.44.38-.61.17-.2.65-.53.1-.58-.06-.02-.5.15-.74.14-.68-.03-1.42-.1-2.31.13-1.06.28-2.13.5-3.23.43-.54-.03-.96-.51-.8-.99.26-.74.09-1.42-.05-2.12-.06-.33-.06-.68.07-.99.48-1.12.42-2.36.8-3.5.24-.75.17-1.6.45-2.29.31-.78.56-1.57.8-2.37.47-1.5.9-3 1.4-4.47.42-1.22.65-2.5 1.24-3.66.16-.31.21-.7.26-1.05.12-.98-.88-2.21-1.75-2.08-1.28.2-2.57.25-3.86.36-1.03.08-1.65.67-1.92 1.7-.06.24-.14.46-.21.7-.39 1.29-1.54 2.3-1.35 3.82 0 .08-.06.16-.1.25-.26.68-.4 1.4-.44 2.12a5.6 5.6 0 0 1-.37 1.76 2.9 2.9 0 0 0-.2 1.42c.08.64.01 1.27-.41 1.8-.2.24-.25.54-.28.85-.22 2.52-.65 5.02-.6 7.57.02 1.02.26 1.82.8 2.58a3.46 3.46 0 0 0 3.3 1.53c.52-.04 1.05-.15 1.57.02.56.2 1.11.1 1.65-.08.42-.15.81-.4 1.25-.48 1.75-.34 2.8-.75 3.18-1.16.45-.47 1.12-.41 1.37-.75zM191.56 53.82c.15.2.2.27.65.45.6.27-.22-.42.22-1.56.25-.6.24-.99.14-1.47-.16-.75-.14-1.22-.28-1.96-.2-1.1-.08-1.66-.42-2.5a4.78 4.78 0 0 1-.4-2.1c1-.48 1.26-.9 1.71-1.3.6-.53.22-.44.17-.9-.12-1.02-.54-.4-.85-.5-.74-.28.73-.5-1.23-.64-.43-.03-.31-1.88-.52-2.25-.58-1.05-.29-2.11-.63-3.3-.96-3.31-.79-4.94-1.87-6.62-.63-.99-.58-1.45-2.54-1.1-2.06.37-3.52 2.82-3.85 3.47-.67 1.33-3.72 9.32-3.81 9.89-.17.99-.42 2-.92 2.85-.16.28-.45.85-.38 1.18.25 1.09.11.61-.6 2.57-.13.36-.38.65-.34 1.05.1.87-.35 1.63-.49 2.45-.02.15-.4 1.42-.04 2 .45.67 2.25.54 2.42.53.6-.04 1.2-.08 1.82-.04.9.06 1.19-.2 1.33-1.08.17-1.06.35-2.1 1-3.01.2-.28.59-3.1.97-3.68 1.31-.33 2.82-.21 4.35-.56.07.35.38 1 .4 1.3a35.78 35.78 0 0 0 1.48 6.32c.19.61.54.04.86.17.4.03.41.51.74.34.43-.23.62-.38.9 0zm-4.86-11.65c-.08.19-.48.27-.68.31-.56.12-1.4.28-2.06.37.13-.45.16-.76.27-1.09.14-.43.33-.85.47-1.29.2-.6.36-1.19.51-1.98.08-.41.13-.79.61-.97.41 0 .4 1.1.43 1.45.06.76.35 1.21.38 2 .03.6 0 .9.07 1.2z"/><path d="M244.3 41.14c-.14-.38-.7-.15-.94-.3-.1-.08-.33-.08-.65.02-.25.12-.56.2-1 .26-.69.1-.98-.03-1.12-.7-.09-.45-.2-.9-.31-1.33a3.42 3.42 0 0 1-.46-1.87l-.17-.8a48.82 48.82 0 0 0-1.79-6.8c-.3-.94-.81-1.04-1.74-1.18-1.17-.18-2.3-.82-3.22-.02a7.95 7.95 0 0 0-2.05 3.5c-.55 1.8-1.3 3.53-2.1 5.24a10.43 10.43 0 0 0-.94 3.41c-.03.37-.09.72-.22 1.07-.46 1.22-1.27 2.34-1.15 3.75.02.2-.06.42-.15.61-.57 1.21-.68 2.54-.86 3.82-.22 1.45.17 3.33 1.36 4.23l1.25-.37c.43-.13.84.1 1.26.1.64 0 .94-.21 1.12-.83.1-.33.4-1.3.63-1.54.28-.27.36-.6.4-.99.15-1.29.5-2.04.65-3.33.09-.8.21-1.47.32-1.85 1.56-.26 3.5-.72 4.46-.84.1.23.28.45.44 1.13.18.74.43 1.45.42 2.24-.01.6.16 1.2.3 1.8.1.42-.02.84.12 1.25.98 2.77-.2 2.6.6 2.93 1.28.02 2.74.47 2.9.1.4-1.16.65-3.37.2-4.58-.06-.14-.09-.3-.09-.45.02-1.25-.23-2.35-.5-3.57-.2-.9-.1-1.25-.23-1.72 2.05-.44 6.4-1.42 6.17-2.05.01-.11-2.62.72-2.91-.34zm-7.97.56c-.6.07-1.09.09-1.44.08-.46 0-.7-.18-1.26-.24.03-.4 0-.73.18-1.1.34-.7.3-1.52.68-2.23.14-.26.16-.59.52-.79.44.25.58.79.7 1.68.1.74.2.7.37 1.4.24.98.11.8.25 1.2zM165.5 61.57c-1.5-.02-2.03-.58-2.71-.34-.3.1-2.35 1.2-2.54.95-.46-.56-.9 1.42-.98 1.95.02 1.56-.26 3.09-.56 4.6-.13.63-.4 1.25-.48 1.9-.09.69-.22 1.36-.36 2.03-.18.85-.39 1.73-.23 2.6.12.64.01 1.2-.32 1.7-.47.7-.6 1.54-.62 2.3-.02.87-.05 1.73-.14 2.59-.09.84-.13 1.68-.33 2.5-.35 1.37-.09 1.94 1.16 2.56.16.07.3.16.47.23 1.22.56 2.44 1.03 3.79.39.37-.18.47-.05.83.12.41.19 1.25.1.82-.47-.58-.77-.41-1.06-.24-1.97.28-1.52.21-3.1.64-4.58.2-.67.33-1.33.22-2.03-.02-.17.04-.36.1-.52.99-2.53 1.03-4.9 1.24-5.9.38-1.75 1.85-8.47 1.8-9.76-.03-.94-.68-.84-1.57-.85zM156.3 63.05l-.04-.04c-.15-.2-.28-.43-.37-.66a1.3 1.3 0 0 0-.99-.83c-.3-.07-.59-.18-.88-.28a2.71 2.71 0 0 0-1.88-.08c-.44.16-.94.2-1.4.2-.97 0-1.8.37-2.62.8-.61.3-1 .9-1.6 1.23a7.73 7.73 0 0 0-2.62 2.57c-.42.6-.67 1.23-.65 1.97 0 .3-.1.55-.23.8-.54 1.1-.4 2.26-.16 3.38.2.9.53 1.78 1 2.58.29.47.21 1.07.51 1.51.37.53.53 1.12.66 1.73.1.41.27.8.44 1.18.48 1.05 1.11 2.03 1.33 3.19.15.8.2 1.88-.52 2.23-.72.34-1.23.38-1.8-.14-.36-.33-1-.37-1.15-.45-.45-.24-.74-.38-1.3-.29-.34.16-1.12.06-.9.4.36.54 1.05 1.22 1.66 1.87a6.5 6.5 0 0 0 2.13 1.62c1.46.6 2.96.48 4.46.29a.9.9 0 0 0 .38-.17A9.14 9.14 0 0 0 153.1 83c.06-.15.06-.33.04-.5-.28-2-.4-4.04-1.54-5.82a1.18 1.18 0 0 1-.16-.47c-.16-1.34-.09-.6-1.21-2.58-.19-.32-.88-1.5-.8-1.88.12-.6-.15-.42-.36-.94a3.84 3.84 0 0 1 .05-1.68c.5-1.58 2.1-5.19 5.77-4.23h.04c.1 0 .2.02.29.03l.01.02a3 3 0 0 1 1.39.56c.97.86.72-.95-.33-2.47zM205.91 62.6a10.56 10.56 0 0 1-1.96-1.88c-.16-.19-.32-.38-.72-.38-.4 0-.56.4-.59.75-.06.86-.35 1.69-.41 2.53-.09 1.06-.61 2.08-.33 3.19.02.1-.02.23-.07.32-.5.98-.44 2.02-.33 3.07.01.17.05.37-.02.5-.24.46-.22.95-.29 1.45-.08.6-.06 1.26-.28 1.8a4.6 4.6 0 0 0-.26 2.35c.07.6-.09 1.19-.65 1.5-.2-.05-.27-.14-.3-.24-.18-.65-.36-1.28-.29-1.97.04-.33.1-.67-.05-.98a2.7 2.7 0 0 1-.24-1.78.79.79 0 0 0-.12-.64c-.37-.5-1.22-3.98-1.77-4.51-.16-.15-.22-.4-.24-.61-.03-.57-.34-.99-.68-1.4-.31-.38-.6-.8-.93-1.15-.82-.84-1.5-1.83-2.62-2.33-1.05-.46-2.91-.09-3.46.92-.4.75-.92 1.43-1.3 2.19-.27.54-.54 1.09-.94 1.56l-.12.16-.22.97c-.02.32-.08.61-.18.9-.54 3.05-.65 6.14-.9 9.22l.05.19c.05.3-.03.53-.14.76l-.1 1.02c.14.44.17.92.18 1.4 0 .4.04.83.13 1.24.16.7.29 1.47.92 1.88.81.52.75 1.02 1.58 2.35.33.52 1.57.9 1.85.33.34-.7.48-2.19.46-2.94-.05-1.34.52-2.68 0-4.03-.1-.28.02-.6.1-.9.16-.54.2-1.08.04-1.64a3.3 3.3 0 0 1 .06-1.81 3.8 3.8 0 0 0 .09-1.65c-.1-.6.7-3.2.77-3.61.45-2.57.19-3.74 1.23-3.22.8.4.45 1.38.75 2.02.54 1.11-.19.34-.09.95.3.67.49 1.9.44 2.62-.05.85.14 1.62.47 2.34.6 1.3.64 2.7.7 4.07a8.3 8.3 0 0 0 .98 3.81c.34.6.61 1.24.53 1.98-.03.26.05.5.21.7.55.7 1.15.84 1.87 1.37.67.5 1.37.92 2.24.43.09-.06.2-.1.3-.1.92.1 1.4-.54 1.85-1.16.47-.67.67-.8.71-1.7.05-.95.26-1.9.4-2.86.07-.5.2-.98.15-1.48-.17-1.36.43-2.65.3-4.01-.03-.23.1-.49.19-.72.13-.34.19-.7.11-1.06-.32-1.52 1.39-10.9 1.27-11.62a.72.72 0 0 0-.33-.47zM182.68 72.6c-.45.07-.5-.49-1.21-.22l-.31.1c-.37.15-.74.29-1.13.2-.35-.07-.66.01-.97.13-.6.23-.68-.25-3.28.37.31-1.06.06-.7.46-1.88.3-.9.5-1.69.94-2.5a7.45 7.45 0 0 1 3.42-3.5c.93-.5 2.93-.64 2.5-1.17-1.25-1.7-1.8-1.45-2.94-2.2-.47-.3-1.03-1.3-1.92-.97-.49.18-.89.2-1.35-.01-.6-.28-1.12-.14-1.68.3-.81.65-1.48 1.45-2.24 2.15-.5.46-.96.95-1.34 1.52-.64.97-1.3 1.92-1.84 2.96-.52.98-1 1.97-.99 3.14.02 1.06-.3 2.09-.5 3.12-.12.72-.1 1.48-.41 2.18-.05.11-.04.3.02.41.31.7.15 1.41.08 2.12-.06.56-.01 1.07.2 1.6.44 1.07.38 2.35 1.16 3.31.07.08.09.22.09.33.02.92.6 1.58.98 2.34.18.36.5.57.87.74 1.13.53 2.27 1.12 3.5 1.21.87.06 1.76-.24 2.64-.39.07 0 .13-.1.19-.16.4-.49.88-1 1.47-1.2.32-.11 2.72-3.62 3.2-6.55.54-3.29 1.62-4.23 1.75-6.06.01-.93.9-1.76-1.36-1.42zm-5.38 8.03c-.13.86-.48 1-.46 1.85 0 .49-.72 1.77-1.37 2.36-.27-.59-.4-1.51-.33-1.98.09-.61 0-1.2-.12-1.78-.07-.37-.09-.73 0-1.1.15-.74.14-1.47-.05-2.2-.16-.61.1-1.18.2-1.93.96.35 1.58 1.12 2.66 1.55.66.2-.29 1.58-.53 3.23z"/></g></svg>