<svg xmlns="http://www.w3.org/2000/svg" viewBox="0 0 260.18 359.7"><g fill="#FFF"><path d="M23.97 303.16c1.66 0 2.48.72 2.48 2.15 0 1.42-.72 2.25-2.14 2.47-6.5.87-11.47 3.84-14.88 8.9-3.2 4.5-4.8 10.16-4.8 16.97v22.1c0 1.53-.77 2.3-2.32 2.3-1.54 0-2.3-.77-2.3-2.3v-50.29c0-1.53.76-2.3 2.3-2.3 1.55 0 2.32.76 2.32 2.28v10.12a27.89 27.89 0 0 1 8.1-8.66c3.75-2.49 7.5-3.74 11.24-3.74zM87.45 303.16c1.54 0 2.31.77 2.31 2.32v50.74c0 1.55-.77 2.32-2.31 2.32s-2.31-.77-2.31-2.3v-9.6c-4.3 8.7-10.7 13.06-19.19 13.06-6.5 0-11.73-2.54-15.7-7.63-3.75-4.64-5.62-10.28-5.62-16.91v-29.68c0-1.55.77-2.32 2.31-2.32s2.32.77 2.32 2.31v29.6c0 5.4 1.38 9.92 4.13 13.55 3.09 4.19 7.28 6.28 12.57 6.28 12.78 0 19.18-10.19 19.18-30.58v-18.85c0-1.54.77-2.31 2.31-2.31zM143.4 302.17c7.5 0 13.9 2.97 19.18 8.92a29 29 0 0 1 7.44 19.85c0 7.71-2.48 14.38-7.43 20-5.3 5.85-11.7 8.76-19.19 8.76-10.25 0-17.96-4.8-23.14-14.38v10.88c0 1.56-.77 2.34-2.32 2.34-1.54 0-2.3-.77-2.3-2.32v-70.59c0-1.54.76-2.3 2.3-2.3 1.55 0 2.32.76 2.32 2.3v31.09c5.18-9.7 12.9-14.55 23.14-14.55zm0 52.74c6.28 0 11.52-2.4 15.71-7.23a24.76 24.76 0 0 0 6.28-16.74c0-6.35-2.1-11.94-6.28-16.75-4.19-4.81-9.43-7.23-15.7-7.23-6.28 0-11.55 2.42-15.8 7.23a24.58 24.58 0 0 0-6.36 16.75c0 6.34 2.12 11.93 6.37 16.74 4.24 4.82 9.5 7.23 15.78 7.23zM197.64 287.12c0 2.43-1.27 3.64-3.8 3.64s-3.8-1.21-3.8-3.64c0-2.53 1.27-3.8 3.8-3.8s3.8 1.27 3.8 3.8zm-3.8 16.04c1.54 0 2.31.77 2.31 2.32v50.4c0 1.56-.77 2.33-2.31 2.33s-2.32-.77-2.31-2.32v-50.4c0-1.56.77-2.33 2.3-2.33zM257.87 302.83c1.54 0 2.31.77 2.31 2.31a3 3 0 0 1-.33 1.33l-16.55 23.9 16.55 24.2c.22.46.33.9.33 1.33 0 1.54-.74 2.31-2.23 2.31-.75 0-1.33-.36-1.76-1.08l-15.6-22.8-15.46 22.89c-.55.66-1.21 1-1.98 1-1.54 0-2.32-.78-2.32-2.34 0-.43.1-.87.32-1.32l16.64-24.34-16.5-23.83a2.2 2.2 0 0 1-.46-1.3c0-1.5.78-2.26 2.32-2.26.77 0 1.44.33 1.98.98l15.36 22.46 15.56-22.44c.44-.67 1.05-1 1.82-1z"/></g><g fill="#FFF"><path d="M176.46 88.94v83.01l83.01.01zM176.46 176.47h83.72v83.72h-83.72zM88.23 176.46h83.72v83.72H88.23zM0 176.47h83.72v83.72H0zM97.41 83.72h73.84L88.23.71v73.92l14.68-5.53zM102.91 102.85l-14.68-5.52v74.62h83.72V88.23H97.41zM69.16 69.1l14.56 5.48V0H0v83.72h74.66zM74.66 88.23H0v83.73l83.72-.01V97.37l-14.56 5.49z"/></g></svg>