<svg xmlns="http://www.w3.org/2000/svg" viewBox="0 0 182.75 122.22"><g fill="#ebebeb"><path d="M128.82 21.3 107.52 0H82.96l33.27 33.27z"/><path d="M182.75 0H158.2L91.38 66.82 70.3 45.74A23.15 23.15 0 0 0 65.23 0H0l6.83 6.83 16.34 16.34h24.55l-5.8-5.8h23.32a5.79 5.79 0 0 1 0 11.57H8.68v62.44l17.36-16.14V46.3H46.3l37.9 37.9 7.18 7.18 7.18-7.18 34.3-34.3 41.48 41.48.41-24.14-29.62-29.62L182.76 0zM8.68 107.39h17.27v2.6H8.68zM8.68 122.22h17.28v-2.6H11.28v-3.52h14.68v-2.6H8.68zM51.19 107.39h-2.6v14.83h17.27v-2.6H51.19zM89.86 107.39h2.6v14.83h-2.6zM118.91 109.99h7.33v12.23h2.6v-12.23h7.34v-2.6h-17.27zM156.91 107.39h17.27v2.6h-17.27zM156.91 122.22h17.27v-2.6h-14.67v-3.52h14.67v-2.6h-17.27z"/></g></svg>