<svg xmlns="http://www.w3.org/2000/svg" viewBox="0 0 437.11 153.56"><path fill="#ebebeb" d="M135.28 149.06c.82 0 1.63.04 2.43 0 .97-.06 1.91-.32 2.41-1.24.3-.54.47-1.17.55-1.79.22-1.57.37-3.14.53-4.71l1.07-10.7c.23-2.38.42-4.75.64-7.13.17-1.82.32-3.64.53-5.45.16-1.29.42-2.56.62-3.84.03-.16.02-.34.01-.51-.06-1.12-.14-2.23-.19-3.35-.03-.63 0-1.26 0-1.9-.05-2.65-1.44-3.92-3.95-4.34-.48-.08-.98-.1-1.47-.15-.31-.03-.63-.03-.94-.09-1.24-.2-1.73-.62-1.86-1.5-.17-1.2.22-2.02 1.2-2.58.58-.34 1.2-.51 1.89-.5 2.7.03 5.42-.03 8.13.05 1.43.04 2.86.25 4.28.47.85.13 1.46.58 1.85 1.48.56 1.3 1.07 2.58 1.37 3.96.13.57.4 1.1.62 1.66a31.56 31.56 0 0 0 2.91 5.87 17.4 17.4 0 0 1 2.08 4.74c.26.93.7 1.81 1.1 2.7.77 1.68 1.56 3.35 2.35 5.03.73 1.54 1.41 3.12 2.24 4.61 1.09 1.98 1.68 4.14 2.43 6.25.26.71.5 1.44.79 2.3l1.77-4.25c.78-1.87 1.52-3.75 2.7-5.43.48-.7.8-1.54 1.17-2.33.81-1.73 1.6-3.47 2.4-5.22.72-1.62 1.4-3.26 2.17-4.87a40.91 40.91 0 0 1 2.2-4.16c.6-.96.8-2.01 1.12-3.04.33-1.07.55-2.15.68-3.26.25-1.98 1.24-3.7 2.27-5.37a2.5 2.5 0 0 1 2.35-1.27c2.14.06 4.29.04 6.43.01 1.27-.01 2.53-.14 3.8-.15.97 0 1.95.07 2.93.18.26.03.55.26.75.47.58.61.59 1.4.55 2.18-.03.57-.4.84-.94.98-1.28.34-2.56.73-3.85 1.05-1.64.4-1.84.55-1.81 2.27.03 1.75.18 3.5.26 5.26.1 2.04.27 4.08.23 6.11-.1 4.82-.09 9.64.24 14.45.33 4.84.7 9.67 1.08 14.5.04.5.2.97.27 1.46.07.43.4.62.75.6.73-.03 1.4-.15 1.99-.76 1.72-1.78 2.8-3.94 3.83-6.14.62-1.3 1.25-2.6 2.28-3.65.26-.27.42-.64.58-.99.73-1.55 1.39-3.13 2.16-4.66.62-1.25 1.4-2.41 2.06-3.64.74-1.38 1.42-2.79 2.13-4.18.14-.28.32-.53.46-.81l1.91-3.74 1.73-3.34 3.09-6.06c.66-1.3 1.26-2.63 1.94-3.92.65-1.22 1.77-1.95 2.9-2.65 1.73-1.06 3.46-2.11 5.2-3.13a4.04 4.04 0 0 1 3.44-.4c.62.2.83.6.91 1.14.09.57.12 1.1-.45 1.5-.6.42-1.17.89-1.74 1.34-.6.48-.87 1.03-.55 1.82.47 1.16.87 2.35 1.3 3.52.48 1.28.94 2.56 1.46 3.82.53 1.32 1.16 2.6 1.68 3.92.58 1.49 1.24 2.94 1.73 4.46.6 1.85 1.44 3.63 2.25 5.4 1.25 2.77 2.73 5.43 3.69 8.33.36 1.1.74 2.18 1.07 3.29.57 1.92 1.57 3.6 2.97 5 .54.53 1.25 1.14 2.22.5.32-.22.89-.1 1.34-.09.87.01 1.8.19 2.44-.61a7.34 7.34 0 0 0 1.52-2.82c.63-2.52.55-5.09.58-7.65.08-6.44.2-12.87.3-19.3 0-.32.03-.65.11-.95a7.52 7.52 0 0 0-1.1-6.6 4.88 4.88 0 0 0-3.07-1.97c-.45-.1-.9-.17-1.36-.2a1.38 1.38 0 0 1-1.23-.84c-.23-.5-.77-.97-.4-1.54.45-.71.88-1.48 1.98-1.47 1.94.01 3.87.01 5.78.36.47.09 1.02.13 1.46-.02 1.97-.65 3.52.23 5.07 1.24 1.04.67 1.65 1.7 2.39 2.63 1.5 1.86 3.06 3.7 4.37 5.7 1.23 1.86 3.08 3.05 4.48 4.7.29.34.75.52 1.06.85.86.9 1.68 1.84 2.54 2.75 1.07 1.15 2.18 2.27 3.24 3.43.32.35.54.8.81 1.19.44.62.78 1.35 1.35 1.83a30.75 30.75 0 0 1 4 4.37c1.09 1.36 2.2 2.71 3.3 4.06.1.12.27.2.5.35.06-.28.11-.47.13-.66l.25-3.04c.02-.2.06-.43.02-.63-.48-2.42-.08-4.84.05-7.26.07-1.15.2-2.3.26-3.47.03-.63-.02-1.26-.04-1.9-.02-1.36-.09-2.73-.06-4.1.02-1.5.08-3.02.22-4.52.24-2.58-1.55-3.59-3.5-3.82a6.24 6.24 0 0 1-1.91-.51c-1.01-.49-1.06-1.66-.2-2.36a3.8 3.8 0 0 1 2.5-.95c1.34.02 2.67.07 4 .2 1.51.14 3 .2 4.52-.05.96-.16 1.97-.2 2.93-.08.62.08 1.23.47 1.75.85.5.38.53 1.47.08 1.92-.37.37-.8.72-1.27.92-.83.36-1.7.63-2.58.88-.33.1-.6.2-.68.56-.15.82-.39 1.64-.41 2.47-.1 3.52-.13 7.03-.21 10.55-.03 1.16-.18 2.31-.25 3.47l-.44 8.1c-.07 1.3-.11 2.58.04 3.88.16 1.32.07 2.67.05 4-.02 1.46.19 2.88.7 4.24a4.15 4.15 0 0 0 2.24 2.36c1.13.52 1.43 2.39.52 3.09-.21.16-.5.3-.76.32-1.25.16-2.51.34-3.77.4-2.39.11-4.2-.8-5.56-2.88a66.7 66.7 0 0 0-4.7-6.24c-1.23-1.46-2.7-2.72-4.06-4.09-.51-.52-.99-1.07-1.48-1.62-.97-1.09-1.9-2.22-2.92-3.27a12.61 12.61 0 0 1-2.77-3.75 4.64 4.64 0 0 0-1.22-1.54 14.4 14.4 0 0 1-1.98-2.27 7.07 7.07 0 0 0-1.51-1.57c-.48-.36-.98-.69-1.4-1.1-1.31-1.3-2.6-2.62-3.87-3.97-.78-.84-1.47-1.76-2.21-2.63a2.7 2.7 0 0 0-.96-.77c-.05 1.56-.13 3.12-.13 4.69 0 1.79.3 3.6.06 5.36a32.9 32.9 0 0 0-.02 7.57c.07.73 0 1.47-.01 2.21-.06 2.32-.17 4.64-.18 6.96-.01.87.12 1.76.31 2.61.26 1.16.84 2 2.21 1.92.56-.03 1.13-.01 1.69.05.24.02.58.12.7.3.37.59.66 1.22 1.01 1.9-1.13.95-2.27 1.78-3.8 1.78-1.8 0-3.59-.08-5.38-.05-2.35.04-4.7.14-7.05.26-1.12.06-2.22.07-3.35-.1-1.42-.2-2.87-.23-4.3-.23-2.61 0-5.21.1-7.81.1-.95.01-1.88-.1-2.73-.6-1.07-.64-1.61-1.94-1.12-3.04.12-.25.44-.43.69-.6.67-.44 1.4-.43 2.12-.18.55.2 1.07.49 1.62.71 1.1.45 2.33-.14 2.29-1.42a6.16 6.16 0 0 0-.6-2.72c-.84-1.65-1.57-3.36-2.35-5.04l-1-2.17c-.25-.57-.68-.9-1.32-.85-1.54.1-3.08.25-4.62.34-.48.03-.96-.01-1.43-.04-.32-.02-.63-.1-.94-.1l-10.24-.1c-1.33 0-1.97.88-2.52 1.9-.76 1.45-1.37 2.97-2.39 4.3-.8 1.04-1.39 2.25-1.83 3.53-.25.75-.78 1.4-1.2 2.08-.5.78-1.06 1.5-1.48 2.31-.7 1.32-.42 1.59.47 2.22.4.29.82.7 1.03 1.15.53 1.18.12 2.28-1.1 2.77-.8.33-1.69.54-2.54.57-3.06.1-6.11 0-9.17-.24-3.04-.22-6.1 0-9.16.06-1.02.02-2.04.19-3.06.15-.83-.03-1.65-.26-2.23-.97-.69-.84-.92-2.14.49-2.93a3.5 3.5 0 0 1 1.78-.47c.77 0 1.55-.04 2.31-.16 1.81-.28 1.76-.7 2.2-2.2.09-.27.09-.56.1-.84l.34-7.15c.02-.25.03-.5 0-.74-.54-3.63-.46-7.27-.3-10.92.08-1.93.16-3.87-.22-5.79-.06-.3-.11-.63-.06-.93.3-1.62.2-3.2-.08-4.82-.14-.78-.06-1.61-.08-2.42 0-.23-.03-.47-.2-.75-.2.4-.43.8-.58 1.23-.67 1.82-1.23 3.7-2.5 5.24-.31.36-.45.86-.65 1.3l-1.95 4.4c-.07.16-.11.33-.17.5-.37 1.05-.71 2.1-1.51 2.95-.37.4-.58.96-.8 1.46-.96 2.13-1.9 4.27-2.84 6.4-.21.49-.34 1-.55 1.48-.75 1.73-1.5 3.44-2.27 5.16-.6 1.34-1.27 2.66-1.82 4.02-.65 1.6-1.67 2.98-2.48 4.48-.65 1.19-1.6 1.44-2.8 1.37-.6-.03-1-.3-1.25-.8-.96-1.94-1.95-3.87-2.84-5.84-.9-2-1.7-4.04-2.51-6.08-.3-.74-.43-1.55-.72-2.29-.28-.7-.62-1.4-1-2.04-1.03-1.71-2.03-3.42-2.4-5.42-.08-.48-.46-.92-.75-1.34-1-1.43-1.9-2.92-2.47-4.58-.49-1.38-1.03-2.74-1.53-4.12-.48-1.33-.94-2.68-1.5-4.29-.05.52-.1.8-.1 1.08 0 1.44-.02 2.87-.44 4.28-.11.35-.07.76-.08 1.15-.04 1.96.12 3.94-.28 5.89-.31 1.5-.62 3.01-.91 4.52-.08.41-.14.83-.14 1.25-.02 1.55-.07 3.1 0 4.64.1 2.23-.24 4.42-.52 6.62-.11.9.06 1.74.34 2.58.28.83.99 1.16 1.77 1.31.69.13 1.39.2 2.09.24.9.06 1.9.83 2.07 1.63.22.96-.23 1.87-1.12 2.38a3.5 3.5 0 0 1-1.8.46c-4.25-.02-8.51-.01-12.77-.05-.89 0-1.65-.4-2.35-.98-.67-.54-.73-1.17-.45-1.88.2-.5.49-1 .78-1.57zm81.97-20.75c.59.05 1.07.12 1.55.12 2.7 0 5.41.02 8.12 0 1.37-.02 2.74-.12 4.1-.21.37-.03.73-.17 1.23-.29-1-2.84-1.88-5.6-2.96-8.27-1.08-2.68-1.92-5.47-3.49-8-.35.57-.53 1.16-.82 1.69a77.43 77.43 0 0 1-2.24 3.89c-.88 1.41-1.82 2.78-2.75 4.17-1.11 1.66-1.73 3.56-2.54 5.36-.18.42-.13.95-.2 1.54zM162.16 78.03c.14-1.45.31-2.74.38-4.03.03-.66-.2-1.33-.19-2 .06-1.92.21-3.85.29-5.78.07-2 .12-4 .15-6 .03-2.22-.06-4.43.33-6.63.24-1.36.11-2.66-.89-3.74a2.7 2.7 0 0 0-1.51-.83c-.96-.2-1.92-.43-2.86-.68-.7-.19-1.03-.7-1.08-1.4-.05-.73.45-1.05.99-1.34a6.46 6.46 0 0 1 3.68-.66c2.92.23 5.83.27 8.74 0 .94-.1 1.89 0 2.7.62.59.47.78 1.61.22 2.12-.48.44-1.03.82-1.62 1.1-.69.33-1.43.54-2.17.74-.58.16-.65.58-.7 1.04a249.4 249.4 0 0 0-.38 4.73c-.11 1.61-.2 3.23-.27 4.84-.02.35-.06.71.01 1.05.32 1.56.01 3.08-.14 4.62-.14 1.4-.27 2.79-.35 4.19-.11 1.9-.18 3.8-.24 5.7-.02.72.03 1.46.05 2.19.02 1.05.07 2.1.09 3.16l.01 2.53a7.8 7.8 0 0 0 1.38 4.24c.3.47.87.8 1.37 1.1 1.04.63 1.41 1.3 1.28 2.48-.09.76-.75.88-1.28 1.08-.41.16-.9.2-1.35.22-1.3.04-2.6.06-3.9.05a3.98 3.98 0 0 1-3.3-1.73c-.82-1.12-1.58-2.29-2.43-3.4-.88-1.15-1.83-2.26-2.75-3.4-1.75-2.15-4.05-3.8-5.72-5.99-1.39-1.81-3.23-3.18-4.55-5.01-.67-.93-1.2-1.95-1.8-2.92-.07-.12-.1-.3-.2-.36-1.37-.72-1.97-2.13-2.94-3.2-.07-.09-.13-.17-.21-.24l-3.77-3.3c-.44-.4-.87-.8-1.25-1.25-1.3-1.5-2.56-3.03-3.85-4.54-.03-.05-.12-.05-.22-.08a20.32 20.32 0 0 0-.2 6.26c.24 1.64.14 3.25-.14 4.9-.29 1.68-.1 3.43-.1 5.15 0 1.5.02 3.01 0 4.52 0 2.29-.1 4.57-.02 6.86.03.88.42 1.76.7 2.62.2.6.68.88 1.3.92.63.04 1.26.08 1.9.08.58 0 1.04.11 1.17.78.03.13.13.25.2.37.84 1.2.55 1.16-.38 1.8-.7.48-1.55.9-2.38.98-1.53.17-3.1.2-4.63.08-2.33-.17-4.63.06-6.95.17-1.19.07-2.38-.03-3.57-.07-1.4-.04-2.8-.15-4.2-.14-2.65 0-5.28.14-7.92.1a7.9 7.9 0 0 1-2.63-.65c-.95-.37-1.47-2-1.05-2.9.37-.8 1.92-1.2 2.92-.82.68.27 1.37.55 2.08.65 1.16.17 1.7-.32 1.8-1.5.04-.35.01-.71-.09-1.04a29.76 29.76 0 0 0-3.08-6.84c-.32-.53-.5-1.15-.76-1.72-.46-.98-.8-1.19-1.9-1.1-.66.05-1.32.15-1.98.25-1.4.23-2.79.23-4.2.2-3.45-.11-6.9-.1-10.34-.13-1.31-.01-2.04.76-2.55 1.84-.7 1.45-1.37 2.9-2.1 4.33-.47.9-1.04 1.73-1.55 2.61-.18.33-.36.68-.46 1.04-.24.91.06 1.51.92 1.85.78.3 1.58.54 2.36.84.25.1.51.22.69.41.7.74.67 1.47-.15 2.04-.6.4-1.26.76-2.05.7-1.2-.1-2.4-.2-3.58-.2-2.22.01-4.43.07-6.65.2-1.03.05-1.75-.16-2.08-1.26-.13-.45-.45-.84-.74-1.37.31-.16.53-.32.78-.38a12.72 12.72 0 0 0 4.15-1.9 5.7 5.7 0 0 0 1.86-2.22c.78-1.48 1.55-2.97 2.28-4.47.56-1.12 1.01-2.3 1.59-3.4.72-1.4 1.54-2.74 2.29-4.12.8-1.46 1.59-2.94 2.36-4.42.76-1.46 1.5-2.92 2.25-4.39l3.04-5.95c1.32-2.61 2.59-5.25 3.97-7.82.35-.65.96-1.24 1.58-1.66 2.06-1.37 4.17-2.67 6.28-3.96a6.99 6.99 0 0 1 1.73-.74c.88-.25 1.7.07 2.34.64.77.7.6 1.73-.3 2.44-.5.4-1 .83-1.54 1.22-.67.5-.77 1.14-.5 1.87.38 1.08.8 2.15 1.22 3.23.5 1.3.98 2.62 1.5 3.91.5 1.23 1.03 2.44 1.54 3.66.45 1.1.92 2.18 1.34 3.28.72 1.9 1.34 3.84 2.14 5.7.73 1.7 1.65 3.3 2.48 4.96.29.56.6 1.12.8 1.7.6 1.7 1.1 3.4 1.7 5.08.68 1.9 1.4 3.8 2.8 5.31.07.08.12.18.2.25.73.62 3.74.97 4.57.5 1.14-.66 1.62-1.77 1.95-2.97.65-2.37.7-4.79.73-7.22.07-6.58.17-13.15.27-19.73.01-.49.1-.98.2-1.46.44-2.3.16-4.5-1.28-6.4a5.25 5.25 0 0 0-3.44-1.84c-.34-.06-.7-.07-1.04-.16a2.06 2.06 0 0 1-1.46-2.07c.05-.7.86-1.63 1.66-1.66 1.4-.04 2.81-.04 4.2.1 1.66.18 3.3.3 4.94-.03.34-.06.74.08 1.1.2a7.38 7.38 0 0 1 4.26 3.14c.67 1.08 1.57 2.02 2.36 3.03 1.12 1.43 2.12 2.96 3.36 4.27 1.6 1.72 3.4 3.27 5.1 4.9.48.46.92.96 1.36 1.44 1.2 1.3 2.35 2.66 3.63 3.88.71.68 1.08 1.52 1.55 2.32.39.64.78 1.24 1.52 1.53.19.08.38.2.5.36 1.46 1.7 2.9 3.38 4.33 5.09.62.75 1.18 1.55 1.78 2.31.15.19.36.32.6.55zm-64.88-22.1c-.35.64-.65 1.06-.85 1.52-.91 2.13-2.18 4.05-3.4 6-.81 1.3-1.73 2.54-2.46 3.88-.66 1.23-1.15 2.55-1.67 3.84-.2.48-.27 1-.07 1.52.22.03.39.08.56.08l13.08-.15c.34 0 .67-.12 1.14-.21l-1.45-4.25c-.46-1.34-.91-2.69-1.4-4.02-.51-1.37-1.01-2.75-1.62-4.08-.6-1.3-1.04-2.69-1.86-4.12zM60.78 75.56c.17-.37.39-.72.5-1.1.34-1.23.9-2.34 1.51-3.45 1.4-2.52 2.91-5 3.87-7.75.6-1.7 1.25-3.4 1.88-5.09l.25-.69c.61-1.52 1.2-3.05 1.83-4.56.26-.64.58-1.26.88-1.89.64-1.36 1.2-2.75 1.5-4.24.08-.44.31-.85.46-1.27.1-.3.17-.59.28-.98-.82-.41-1.66-.46-2.48-.52-.9-.07-1.45-.64-2-1.2-.4-.44-.11-1.62.33-2.1.69-.74 1.5-.97 2.51-.98 4.04-.01 8.09-.1 12.13-.2.89-.02 1.53.33 2.12.94.35.35.44.73.21 1.14-.37.67-.74 1.36-1.19 1.97-.14.2-.54.22-.84.27l-3.5.61c-.55.1-.85.46-1.06.92l-1.05 2.28c-.39.9-.74 1.8-1.14 2.7-.82 1.8-1.7 3.58-2.47 5.4-.83 1.97-1.53 3.97-2.33 5.94-.72 1.78-1.49 3.54-2.23 5.3-.25.62-.5 1.24-.7 1.87-.59 1.89-1.65 3.54-2.54 5.27-.62 1.2-1.14 2.44-1.68 3.67-.27.6-.5 1.23-.76 1.83a336.1 336.1 0 0 1-1.93 4.3c-.19.4-.4.81-.65 1.2-.72 1.12-.76 2.45-1.13 3.68a5.97 5.97 0 0 1-2.13 3.25c-.67.48-1.61.6-2.44.82-.16.05-.4-.1-.56-.23a3.33 3.33 0 0 1-1.45-2.4c-.22-2.2-.74-4.36-1.51-6.42-.31-.84-.47-1.65-.57-2.5-.15-1.23-.61-2.35-1.07-3.5-.66-1.65-1.2-3.34-1.82-5.02-.44-1.21-.88-2.43-1.35-3.63-.44-1.14-.98-2.25-1.35-3.41-.52-1.6-.95-3.22-1.39-4.84-.38-1.44-.73-2.9-1.14-4.58-.27.44-.49.69-.58.99a39.86 39.86 0 0 1-3.3 6.98c-.3.53-.4 1.18-.6 1.78-.19.6-.35 1.2-.6 1.78-.32.77-.65 1.54-1.06 2.26a17.3 17.3 0 0 0-1.88 5.4c-.16.88-.5 1.75-.86 2.58-.63 1.44-1.43 2.8-1.99 4.27-.43 1.13-.69 2.35-.87 3.55a8.77 8.77 0 0 1-.9 2.89c-.54 1.01-1.14 2-1.66 3.02-.47.93-1.3 1.12-2.2 1.17-.98.06-1.47-.68-1.76-1.41-.53-1.33-.89-2.72-1.33-4.07-.12-.4-.28-.78-.43-1.17l-1.26-3.1c-.32-.78-.59-1.58-.93-2.34a13.23 13.23 0 0 1-.96-3.86 5.91 5.91 0 0 0-.9-2.42c-.6-.94-.95-2.03-1.56-2.96-1.03-1.57-1.23-3.42-1.93-5.1a153.5 153.5 0 0 1-1.64-4.06c-.26-.68-.57-1.38-.6-2.09-.1-1.47-.94-2.62-1.47-3.9-.47-1.12-1.08-2.16-1.29-3.4-.29-1.78-1-3.43-1.84-5.02-.33-.61-.67-1.22-1.02-1.82-.57-.97-1.35-1.57-2.54-1.53-.66.02-1.33-.1-2-.1-.77-.03-1.53-.06-2.2.46-.23.17-.6.14-.9.2-.58-.93-.49-2.2-1.52-2.9.58-.6 1.1-1.26 1.73-1.78.35-.28.88-.41 1.34-.46 1.85-.17 3.71-.1 5.58-.04 3.86.1 7.73 0 11.6 0l2.53.03c.93 0 1.8.2 2.66.56 1.03.44 1.38.93 1.27 1.9-.07.67-.85 1.43-1.65 1.52-.8.1-1.61.1-2.42.16-.89.06-1.69.39-2.43.86-.73.45-.82.66-.57 1.44.44 1.36.93 2.7 1.37 4.05.39 1.2.71 2.42 1.1 3.61.23.7.55 1.37.81 2.05.56 1.43 1.08 2.88 1.65 4.3.43 1.06.93 2.1 1.38 3.16.26.61.54 1.22.7 1.86.49 1.9 1.07 3.75 2.11 5.44.34.55.48 1.23.69 1.86.32.96.61 1.93.96 3.04.56-1.2 1.11-2.28 1.57-3.4.93-2.3 1.82-4.63 2.71-6.94.53-1.37.95-2.77 1.54-4.1.93-2.14 2-4.21 2.95-6.34.4-.89.69-1.84 1-2.77.55-1.57 1.1-3.15 1.61-4.73.54-1.68-.25-2.96-2.25-2.97a5.37 5.37 0 0 1-3.45-1.22c-.97-.75-1-1.98-.03-2.72.63-.48 3.8-1.22 4.55-.97 1.61.53 3.27.4 4.9.35 2.98-.08 5.96-.37 8.94-.55.45-.03.91.01 1.36.05 1 .07 1.45.96 1.56 1.7.1.7-.48 1.55-1.21 1.9-.74.37-1.52.5-2.34.5-.98 0-1.82.33-2.44 1.17-.37.5-.49 1-.26 1.57.43 1.07.75 2.2 1.29 3.2a14.76 14.76 0 0 1 1.51 5.2c.09.66.15 1.34.32 1.98.32 1.2.7 2.4 1.07 3.59.24.76.47 1.53.76 2.27.6 1.57 1.24 3.11 1.83 4.68.27.71.45 1.46.68 2.19.1.33.23.66.34 1L60.06 74l.49 1.54.23.02zM285.09 70.47c-.08.66-.2 1.18-.2 1.7.04 2.28.08 4.56.16 6.84.03.66.2 1.32.27 1.98.04.34.05.7.03 1.04-.1 1.12-.22 2.23-.3 3.35-.14 1.74 1 2.9 2.77 2.93.67.02 1.34-.05 2-.06.32-.01.65-.04.94.05.97.3 1.5.94 1.5 2 0 .8-.6 1.35-1.25 1.68-.58.3-1.27.49-1.91.5-2.11.02-4.22-.1-6.33-.1-1.79-.01-3.58.05-5.37.07-1.48.02-2.96.08-4.43 0a4.61 4.61 0 0 1-1.9-.54c-1.34-.73-1.26-1.73-.38-2.59a3.73 3.73 0 0 1 2.73-1.12c.42 0 .84-.04 1.26-.08.95-.09 1.56-.52 1.66-1.46.2-1.95.48-3.94.33-5.88-.1-1.32-.22-2.65-.21-3.97 0-.66.19-1.3.27-1.96.05-.46.1-.91.1-1.37l.01-20.78c0-.74-.05-1.45-.4-2.14-.28-.55-.64-.94-1.2-1.07-.89-.2-1.8-.29-2.7-.45-.58-.1-1.19-.17-1.71-.42-.78-.36-1.08-1.07-.94-1.93.12-.7.58-1.01 1.24-1.26a6.82 6.82 0 0 1 2.38-.37c2.91-.02 5.83.05 8.75-.05 2.38-.07 4.76-.4 7.14-.5 2.35-.1 4.73-.24 7.06 0 1.81.19 3.57.9 5.28 1.66 2.1.93 3.77 2.4 5.36 3.96.55.55.92 1.32 1.22 2.05.63 1.52 1.3 3 1.71 4.6.3 1.21.64 2.38.39 3.6a10.22 10.22 0 0 1-1.03 3.03c-.5.91-1 1.85-1.4 2.8-.79 1.9-2.4 2.84-4.14 3.63-1.51.7-3.03 1.38-4.56 2.07.07.12.1.25.17.3 1.6.85 2.56 2.34 3.67 3.68.6.74 1.04 1.64 1.55 2.47l.34.52c1.54 2.05 3.1 4.09 4.62 6.17.57.78 1 1.66 1.53 2.48.14.21.4.34.61.5.05.04.14.05.2.05 1.7-.07 3.28.59 4.92.86 1.06.18 2.02-.04 2.6-.95.4-.63.67-1.4.81-2.14.15-.78.1-1.6.1-2.41l-.16-10.66c-.04-2.24-.12-4.49-.1-6.74 0-4.18.07-8.37.1-12.55 0-.8-.01-1.62-.1-2.42-.13-1.35-.6-1.8-1.92-1.9-.92-.06-1.83-.05-2.75-.1-.83-.03-1.54-.23-2.01-1.06-.67-1.2-.12-2.7 1.21-2.95.65-.13 1.33-.17 2-.18 2.46-.02 4.94-.25 7.37.04 2.92.34 5.83.2 8.73.45.9.08 1.8.32 2.7.47.4.07.59.3.72.66.53 1.42-.5 2.65-2.09 2.5a18 18 0 0 0-2.3-.1c-.52.02-1.06.15-1.54.34-1.01.4-1.67 1.11-1.72 2.28-.05 1.12-.15 2.24-.17 3.37-.08 4.25-.17 8.5-.2 12.75-.01 2.6.11 5.2.1 7.8-.01 3.34-.1 6.67-.17 10-.01.76.14 1.46.48 2.14.48 1 1.27 1.31 2.31 1.25 1.12-.07 2.25-.12 3.37-.13.5 0 .94.17 1.25.64.72 1.1.31 2.24-.95 2.77-1.74.73-3.56.71-5.4.66-2.24-.06-4.5-.15-6.74-.17-1.2-.02-2.4.07-3.59.12a61.7 61.7 0 0 1-8.4-.37 11.03 11.03 0 0 1-4.92-1.7c-.51-.31-.92-.8-1.34-1.25-2.08-2.21-4.15-4.42-6.2-6.65-.68-.74-1.38-1.49-1.96-2.3-.66-.94-1.2-1.96-1.8-2.93-.25-.41-.5-.86-.85-1.16a12.6 12.6 0 0 1-2.19-2.52 6.22 6.22 0 0 0-4.23-2.79c-.58-.1-1.13-.34-1.86-.58zm-.32-14.12h-.08c.13 2.35.15 4.7.41 7.04a4.37 4.37 0 0 0 2.01 3.28 9.85 9.85 0 0 0 3.92 1.36c1.11.18 2.22.28 3.35.03.65-.15 1.3-.24 1.96-.38 1.2-.27 2.29-.8 2.94-1.85.75-1.2 1.4-2.5 1.95-3.8.68-1.67.9-3.39.04-5.1-.71-1.44-1.3-2.93-2.04-4.35a4.97 4.97 0 0 0-2.22-2.43c-.57-.27-1.2-.4-1.73-.73a2.93 2.93 0 0 0-1.91-.4l-5.85.58c-.67.07-1.16.44-1.53.98a5.83 5.83 0 0 0-.92 2.51c-.16 1.08-.2 2.17-.3 3.26zM182.62 67.34V52.35c0-.88-.02-1.76-.08-2.63-.07-1.1-.48-1.51-1.6-1.5-1.09 0-2.18.1-3.26.2-1.04.09-1.7-.28-2.01-1.23a1.67 1.67 0 0 1 1-2.16 8.8 8.8 0 0 1 2.65-.6c2.07-.08 4.15-.05 6.22-.02.67.01 1.33.24 1.99.24 2.2 0 4.42-.02 6.64-.1 1.79-.06 3.58-.21 5.37-.3 1.61-.1 3.23-.18 4.84-.22 1.76-.04 3.5.05 5.2.65 2.07.74 4.18 1.36 6.23 2.15a10.2 10.2 0 0 1 5.22 4.49 19.42 19.42 0 0 0 2.55 3.25 16.91 16.91 0 0 1 4.02 7.58c.42 1.83.5 3.77.5 5.66 0 2.2-.1 4.44-.47 6.61a18.97 18.97 0 0 1-2.18 6.3c-1.08 1.88-3.7 4.33-5.2 5.52-1.13.88-2.18 1.86-3.37 2.63-1.07.7-2.26 1.21-3.43 1.73a18 18 0 0 1-2.95 1.08c-1.19.3-2.42.46-3.64.58-1.29.13-2.6.18-3.89.19-7.8.02-15.62.04-23.42.01-1.08 0-2.16-.26-3.22-.5-.89-.2-1.28-.98-1.21-2.16.05-.94.63-1.69 1.5-1.75.76-.05 1.53.07 2.3.12.18.01.34.09.52.11 1.7.23 2.54-.28 2.82-1.97.24-1.45.33-2.94.34-4.41.05-4.85.02-9.7.02-14.56zm17.63 20.73c1.73 0 3.21.03 4.69 0 .94-.03 1.94.02 2.82-.26 1.5-.5 2.86-1.34 4-2.44a78.53 78.53 0 0 0 4.45-4.66 14.4 14.4 0 0 0 3.06-5.96c.85-3.24.78-6.55.3-9.84-.26-1.7-.64-3.39-1.54-4.88-1-1.67-2.07-3.3-3.14-4.93-.37-.58-.72-1.22-1.22-1.68a39.92 39.92 0 0 0-5.08-4 6.93 6.93 0 0 0-3.62-1.18c-3.37-.11-6.74-.04-10.12-.04-.82 0-1.44.4-2 .99a4.88 4.88 0 0 0-1.25 3.36c-.12 2.74-.2 5.48-.28 8.22-.08 3.27-.08 6.54-.2 9.8-.07 1.63-.25 3.25.09 4.84.46 2.16.25 4.33.3 6.5.03.78 0 1.55.02 2.32 0 .46 0 .93.08 1.37.13.75.44 1.48 1.18 1.76s1.55.45 2.34.51c1.79.13 3.58.15 5.12.2zM350.17 57.46a21.15 21.15 0 0 0-.22 6.25c.17 1.5.32 2.98-.04 4.5a10 10 0 0 0-.2 3.04c.3 3.8.05 7.6.06 11.39 0 .88.07 1.76.06 2.63 0 1 .4 1.85.8 2.7.26.54.72.75 1.28.77.64.02 1.27.08 1.9.06.5 0 .8.23 1.02.61.27.5.5 1 .77 1.54a4.8 4.8 0 0 1-3.11 1.78c-1.04.12-2.1.14-3.15.14-2.29-.01-4.57-.07-6.86-.1-.84-.02-1.7.02-2.53-.08-.87-.1-1.9-.68-2.05-1.8-.15-1.15.97-2.4 2.07-2.19.17.03.35.03.52.06 1.78.25 2.8-.48 3.5-2.3.82-2.21.85-4.54.93-6.85.1-2.56.08-5.13.12-7.7l.21-13.5c.01-.56.01-1.14.14-1.68.25-1.06.11-2.1-.09-3.13a5.38 5.38 0 0 0-4.39-4.58c-.34-.08-.69-.15-1.04-.2a1.77 1.77 0 0 1-1.4-.96c-.73-1.3 0-2.78 1.5-2.8 1.44-.03 2.89.05 4.32.19 1.5.14 3 .3 4.51 0 .29-.07.61 0 .9.07 1.32.31 2.4 1.1 3.47 1.87.16.13.32.27.44.44.96 1.28 1.9 2.58 2.86 3.85 1.22 1.6 2.42 3.23 3.71 4.77.78.93 1.66 1.8 2.6 2.58 1.85 1.54 3.44 3.31 5.05 5.09.8.88 1.67 1.7 2.44 2.59.43.5.79 1.07 1.08 1.66.39.8.84 1.52 1.68 1.92.16.07.33.16.43.28a562 562 0 0 1 3.17 3.74c.74.88 1.49 1.76 2.21 2.66.47.57.9 1.18 1.36 1.77l.2-.08c.02-.34.03-.68.06-1.01l.2-2.62c.01-.21.04-.43 0-.63-.45-2.53-.11-5.05.09-7.57.16-2 .33-3.97.15-6-.16-1.77.1-3.57.16-5.36.03-.92.07-1.83.05-2.75a2.97 2.97 0 0 0-2.44-2.89c-.85-.2-1.68-.47-2.54-.64-.73-.15-1.07-.6-1.2-1.27-.03-.13-.1-.26-.16-.4.48-1.18 1.55-1.5 2.61-1.61 1.22-.11 2.45.02 3.68.03 2.29.03 4.57.07 6.85.06.97 0 1.88.04 2.71.62.87.62 1 1.57.2 2.26-.48.43-1.05.79-1.64 1.05-.64.28-1.35.36-2 .62-.27.1-.54.43-.65.72-.13.39-.13.83-.14 1.25-.1 2.8.02 5.63-.4 8.42-.05.35-.06.72.01 1.06.34 1.62.04 3.21-.16 4.82-.08.62-.13 1.26-.15 1.89-.1 2.6-.08 5.2-.46 7.78-.11.76.02 1.5.22 2.28.22.83.15 1.74.18 2.62.02 1.02.04 2.04.02 3.06-.03 1.3.39 2.5.99 3.61.25.47.71.84 1.1 1.24.12.12.3.17.46.25 1.36.79 1.6 1.29 1.35 2.94-.68.56-1.48.8-2.34.82-1.26.05-2.53.06-3.8.09-1.92.04-3.17-1.04-4.2-2.51-1.54-2.23-3-4.52-4.87-6.5-1.55-1.64-3.18-3.21-4.74-4.85-.62-.65-1.12-1.4-1.7-2.09-.4-.44-.81-.86-1.24-1.27-1.28-1.23-2.53-2.46-3.26-4.16a3.87 3.87 0 0 0-1.62-2c-.51-.3-.86-.9-1.23-1.4-.64-.87-1.31-1.7-2.16-2.4a34.68 34.68 0 0 1-3.98-3.7c-1.36-1.55-3.02-2.9-4-4.78-.01-.04-.11-.04-.24-.08z"/><path fill="#ebebeb" d="M247.64 44.8c3.09 0 7.56.02 12.02 0 1.09 0 2.08.22 2.98.83.4.27.7.59.7 1.1 0 2.92.01 5.84.05 8.76 0 .85-.44 1.47-.93 2.06-.6.72-1.72.77-2.32.05-.36-.43-.63-1-.77-1.56-.25-.9-.35-1.86-.53-2.79-.4-2.1-1.9-3.25-3.66-4.16-.15-.08-.35-.07-.52-.07-3.1-.04-6.19-.09-9.28-.08-.58 0-1.16.22-1.73.35-.97.21-1.33.96-1.53 1.8-.09.38-.1.77-.1 1.16 0 3.59.02 7.17.03 10.76 0 .18 0 .35.02.53.06.97.16 1.11 1.11 1.14 1.3.03 2.6.02 3.9-.03 1.6-.06 2.09-.54 2.23-2.17.07-.84.06-1.69.1-2.53.02-.38.02-.78.12-1.15.17-.6.38-1.23 1.13-1.38.82-.17 1.55 0 2.1.65a6 6 0 0 1 1.33 3.14c.11.87.12 1.75.14 2.63.02 1.48 0 2.95.04 4.42.02.55.25 1.09.29 1.64.1 1.49.39 3-.18 4.46-.2.51-.34 1.1-.69 1.49-.77.88-2.63.63-3.11-.42-.46-.98-.87-2-1.12-3.05a4.63 4.63 0 0 0-1.37-2.42c-.58-.51-1.51-.69-2.32-.87-.67-.15-1.4-.13-2.1-.13-1.05-.01-1.64.56-1.61 1.59.01.76.12 1.53.18 2.3.02.3 0 .62 0 .94l-.24 5.27c-.07 1.15-.24 2.31-.23 3.47.02 1.33.15 2.66.3 3.98.08.8.69 1.2 1.38 1.4.46.14.97.17 1.46.16 1.58-.02 3.14.22 4.72.35 3.47.3 6.7-.44 9.27-3 .59-.58 1.05-1.3 1.52-2 .93-1.38 1.84-2.78 2.71-4.2.3-.5.52-1.08.63-1.66.14-.75.47-1.37.96-1.94.5-.58 1.23-.73 1.88-.32.62.4 1.05.95 1.24 1.72.45 1.77.13 3.44-.44 5.14-.9 2.68-1.94 5.32-2.58 8.1-.38 1.67-1.23 2.23-2.96 2.21-2.36-.02-4.71-.1-7.07-.15-5.06-.1-10.13-.2-15.2-.28-.76 0-1.54.05-2.3.15-2.56.37-5.13.26-7.7.23-.46 0-.95-.21-1.4-.4-1.05-.48-1.35-.96-1.2-1.83.14-.84.91-1.56 1.8-1.65.5-.05 1 .01 1.48-.04.56-.06 1.12-.14 1.65-.28 1.13-.29 1.65-1.15 1.86-2.19.27-1.37.39-2.75.21-4.18a45.17 45.17 0 0 1-.21-5.58c.02-7.67.08-15.34.12-23 0-.64-.07-1.27-.06-1.9.01-1.84-1.83-2.81-3.46-2.66-.7.07-1.4.2-2.1.18-1.03-.03-1.9-.97-1.95-2-.05-.85.2-1.15 1.02-1.46.77-.3 1.56-.32 2.36-.42 5.52-.63 11.04.18 17.93-.2zM431.65 90.78c-.97.28-1.7-.16-2.44-.42a2.5 2.5 0 0 0-2.03.1c-1.77.82-3.51 1.7-5.31 2.43-2.84 1.15-5.8 1.8-8.85 1.05-2.4-.6-4.84-1.08-7.12-2.13a21.1 21.1 0 0 0-2.54-.94 18.04 18.04 0 0 1-7.78-4.9 20.1 20.1 0 0 1-2.62-3.35c-.6-1-.96-2.15-1.34-3.27-.45-1.29-.93-2.58-1.19-3.92-.39-2.06-1.02-4.1-.79-6.25.19-1.78.31-3.57.61-5.33.21-1.24.66-2.43 1-3.64.43-1.5 1.12-2.86 2.03-4.12 1.13-1.59 2.08-3.35 3.42-4.73 1.55-1.6 3.17-3.23 5.4-4 2.25-.77 4.47-1.59 6.9-1.47 2.11.11 4.23.05 6.33.25 1.59.15 3.16.54 4.72.92 1.57.38 3.11.85 4.65 1.32.66.2 1.16-.16 1.7-.38.7-.3 1.36-.69 2.05-1.03a2.5 2.5 0 0 1 3 .45c.7.74.87 1.97.32 2.92a28 28 0 0 1-1.76 2.72 8.12 8.12 0 0 0-1.37 3.48c-.24 1.24-.48 2.46-.52 3.73-.05 1.52-1.7 2.9-3.21 2.91-.93.01-1.7-.6-2.03-1.49a7.17 7.17 0 0 1-.12-3.65 7.34 7.34 0 0 0-1.08-4.91 3.97 3.97 0 0 0-2.02-1.73c-.74-.3-1.52-.47-2.29-.69-.78-.21-1.54-.48-2.33-.61a17.07 17.07 0 0 0-5.88-.04c-1.05.19-2.04.67-3.06 1.02l-.1.05c-1.92.47-3.05 1.87-4 3.45-.26.44-.44.94-.6 1.44a35.79 35.79 0 0 1-2.37 5.55c-.4.78-.48 1.6-.34 2.46.07.48.06.98 0 1.46-.25 1.89-.4 3.77-.07 5.67.3 1.65.46 3.34.88 4.96a14.4 14.4 0 0 0 2.05 4.54c1 1.45 2.03 2.9 2.94 4.4.49.8 1.17 1.33 1.94 1.67 2.08.91 4.09 1.99 6.33 2.5 1.23.28 2.44.13 3.66.04.5-.04.98-.16 1.47-.13.9.04 1.64-.3 2.34-.8a10.88 10.88 0 0 0 3.59-4.4c.16-.34.3-.73.32-1.1.05-1.97.1-3.94.06-5.9-.02-1.11-.38-1.44-1.48-1.72a5.26 5.26 0 0 0-2.5-.04 3.1 3.1 0 0 1-3.26-1.19c-.75-.93-.55-2.33.48-2.9a5.8 5.8 0 0 1 2.16-.76c1.64-.14 3.3-.12 4.95-.16.1 0 .22-.01.31.02 1.94.74 3.88.22 5.83.06.94-.07 1.9-.06 2.84-.04.97.02 1.85.36 2.65.91.75.53 1.08 1.32.86 2.2-.2.8-.89 1.12-1.6 1.3-.51.12-1.05.11-1.58.16-.71.05-1.21.54-1.26 1.25-.21 2.72-.34 5.46-.67 8.17-.12 1.04.07 2.01.07 3.01 0 .81.02 1.62-.04 2.43-.04.4-.21.79-.31 1.14zM60.31 2.81c.36-.44.67-.92 1.08-1.28.23-.21.63-.3.97-.32.7-.06 1.4-.12 2.1-.05 1.94.19 3.84-.17 5.76-.33C71.76.7 73.3.54 74.85.5c.79-.02 1.6.17 2.38.35.5.12.83.48.83 1.08 0 .59-.3.93-.81 1.08-.53.15-1.1.2-1.63.34-.58.13-1.18.22-1.7.47-.63.31-.74.63-.53 1.32.41 1.4.86 2.8 1.35 4.2.54 1.53 1.14 3.05 1.71 4.58.54 1.44 1.18 2.84 1.6 4.3.4 1.44 1.3 2.62 1.8 4l.46 1.38.46 1.47c.37-.69.68-1.15.88-1.65.89-2.17 1.84-4.3 2.51-6.56.4-1.33 1.1-2.57 1.7-3.84.65-1.42 1.41-2.79 1.7-4.38.18-.98.66-1.9 1.04-2.84.34-.87.17-1.49-.66-1.94-.4-.2-.82-.4-1.25-.46a4.74 4.74 0 0 1-2.13-.8c-.58-.43-.68-1.32-.1-1.77a4.3 4.3 0 0 1 3.61-.73c1.88.4 3.75.51 5.65.38 1.4-.1 2.81-.16 4.22-.21.58-.03 1.1.13 1.37.74.4.9-.13 1.78-1.21 1.97-.24.05-.5.02-.74.05-.34.05-.7.09-1.03.2-.88.29-1.24.74-1.05 1.65.17.84.46 1.7.87 2.44.67 1.24.9 2.58 1.06 3.93a16.8 16.8 0 0 0 1.17 4.34c.62 1.52 1.25 3.04 1.8 4.58.56 1.56 1.03 3.14 1.6 4.94.29-.58.52-.93.63-1.31.36-1.3 1.13-2.38 1.76-3.54a37.87 37.87 0 0 0 2.76-6.34c.63-1.95 1.54-3.82 2.31-5.73.35-.87.66-1.75.97-2.64.2-.58.37-1.17.58-1.83-.38-.07-.72-.12-1.05-.2-.43-.12-.88-.23-1.29-.42-.68-.32-.95-.8-.87-1.4.07-.51.7-1.1 1.31-1.2h.32l8.44-.18c.65-.01 1.28.05 1.74.56.15.17.31.42.3.62-.01.74-1.17 1.86-1.92 1.93-.39.03-.78.09-1.16.09-.96-.01-1.45.61-1.8 1.36-.54 1.17-1.02 2.37-1.53 3.55-.6 1.37-1.22 2.73-1.8 4.11-.63 1.52-1.18 3.07-1.83 4.58-.82 1.92-1.7 3.82-2.56 5.73l-2.71 5.9c-.54 1.18-1.12 2.33-1.64 3.51-.15.34-.18.74-.24 1.12a4.33 4.33 0 0 1-1.83 3.06c-1.32.87-2.67.43-2.93-1.25a19.32 19.32 0 0 0-1.17-4.78c-.1-.25-.1-.55-.17-.82-.24-.95-.42-1.91-.74-2.83-.7-2-1.46-3.99-2.2-5.98-.3-.85-.55-1.73-.93-2.55a15.93 15.93 0 0 1-1.31-4.3c-.1-.67-.37-1.33-.6-2.2-.37.85-.65 1.54-.96 2.2-.58 1.24-1.2 2.45-1.78 3.67-.2.4-.33.84-.5 1.26-.3.77-.62 1.54-.94 2.3-.28.68-.62 1.34-.84 2.03-.34 1.03-.52 2.11-.89 3.13-.39 1.08-.93 2.1-1.39 3.17-.23.54-.52 1.09-.58 1.65a10.82 10.82 0 0 1-1.92 4.93c-.23.36-.61.71-1 .86-.77.28-1.35 0-1.71-.78-.4-.85-.84-1.74-.95-2.65-.13-1.02-.65-1.85-.99-2.76-.53-1.43-1.17-2.83-1.7-4.27-.29-.78-.4-1.63-.7-2.41-.28-.75-.71-1.43-1.07-2.15-.38-.74-.74-1.48-.98-2.3-.41-1.4-.99-2.76-1.48-4.14-.12-.33-.27-.67-.3-1-.06-1.03-.6-1.84-1.05-2.7a8.8 8.8 0 0 1-.86-2.34c-.32-1.65-.97-3.2-1.95-4.59-.18-.26-.57-.56-.85-.54-1.3.1-2.68-.32-3.9.67L60.3 2.81zM195.64 15.94c.64.75 1.3 1.47 1.9 2.22.5.63.96 1.28 1.4 1.95 1.08 1.7 2.18 3.4 3.2 5.15.52.9 1.06 1.76 1.8 2.51a15.91 15.91 0 0 1 3.22 4.6c.56 1.22 1.5 1.62 2.85 1.39.14-.03.28-.06.42-.07.83-.07 1.44.27 1.6.88.17.7-.23 1.52-.95 1.8-.36.13-.76.2-1.13.2-1.83.02-3.66 0-5.49 0-.86 0-1.6-.34-2.1-1a89 89 0 0 1-3-4.16c-.88-1.3-1.64-2.69-2.52-3.99-1.43-2.1-2.92-4.16-4.4-6.22-.36-.5-.77-1-1.21-1.44-.51-.5-1.08-.51-1.56.03-.9 1-1.61 2.07-1.56 3.55.1 2.39.04 4.78.08 7.17.01.74.1 1.47.22 2.2.1.6.48.93 1.09.93.48 0 .97-.13 1.46-.12.59 0 1.18.03 1.76.14.6.11.82.65.88 1.17.03.26-.14.68-.34.8-.78.45-1.56.95-2.52.95-.31 0-.63.05-.94.05-3.45-.01-6.9-.03-10.34-.06-.7 0-1.38-.14-1.96-.6a1.54 1.54 0 0 1-.56-1.66c.2-.64.46-.86 1.26-.88.6 0 1.19.07 1.77.17 1.21.2 1.8-.24 1.9-1.47.5-6.07.48-12.15.4-18.24-.01-.49.02-.98.07-1.47.27-2.24.18-4.17-.33-6.53-.93-.48-1.87-.8-2.96-.3-.88.4-2.13-.4-2-1.47V3.7c0-.1.03-.2.06-.37 1.2-.54 2.47-.9 3.82-.88 2.03.03 4.07.15 6.1.17 1.09 0 2.17-.13 3.26-.18.52-.02 1.06-.04 1.58.02 1.13.11 1.53.6 1.56 1.8-.67.79-1.5 1-2.53.9-1.5-.15-2.23.4-2.48 1.92a11.7 11.7 0 0 0-.16 3.14c.21 1.85-.1 3.64-.23 5.46-.03.4 0 .8 0 1.17.2.03.3.07.33.05 1.07-.88 2.17-1.73 3.2-2.64 1.33-1.17 2.33-2.68 3.96-3.55.65-.35 1.17-1 1.65-1.6.65-.8 1.51-1.32 2.29-1.95l1.28-1.1a2.94 2.94 0 0 0-1.87-.8c-.57-.08-1-.34-1.28-.82-.32-.51-.14-.99.4-1.28a3.88 3.88 0 0 1 2.13-.53c1.68.12 3.36.28 5.04.38 1.05.06 2.1.06 3.15.03.7-.02 1.27.2 1.6.8.14.25.2.75.05.95-.43.54-.96 1.03-1.77.91a6.12 6.12 0 0 0-1.26-.03 2.4 2.4 0 0 0-1.66.77c-.62.64-1.4 1.13-2.1 1.7-1.18.98-2.4 1.91-3.5 2.98-1.24 1.21-2.37 2.54-3.52 3.84-.22.25-.32.61-.51.98zM339.94 22.6c-.9-.13-1.75-.32-2.61-.36-1.65-.08-3.3-.06-4.96-.09l-5.8-.09h-.31c-1.29-.1-1.94.3-1.94 1.81 0 3.2 0 6.4.02 9.6 0 .7.18.88.85 1 1 .16 2 .3 3.01.42.76.09 1.13.33 1.17.82.05.6-.49 1.38-1.08 1.48-.38.06-.77.1-1.15.1l-8.97-.1c-.66-.01-1.34-.06-2-.16a3.1 3.1 0 0 1-1.02-.44c-.44-.26-.83-.64-.67-1.2.16-.56.62-.94 1.2-1.02.48-.07.98.02 1.47.06 1.17.09 1.6-.14 1.71-1.31.16-1.57.19-3.16.23-4.74.06-2.52.09-5.05.13-7.58v-.1c-.03-3.34-.08-6.68-.13-10.02 0-.17 0-.35-.03-.52-.14-.74-.51-1.09-1.25-1.22-.66-.12-1.32-.23-1.97-.38-.76-.18-1.03-.47-.98-1.01.03-.5.55-1.03 1.1-1.13.2-.03.42-.02.63-.02 3.66.06 7.32.12 10.97.2 1.4.03 1.7.38 1.72 1.78-.67.68-1.51.82-2.42.79-.28-.01-.56-.04-.84-.03-.91.02-1.04.18-1.27 1.07-.65 2.5-.35 5.03-.43 7.55-.03.92.2 1.08 1.13 1.16a7345 7345 0 0 0 12.55.23c.31 0 .63 0 .95-.05.7-.1.96-.36 1.05-1.09.25-2.23.5-4.47.33-6.72a4.93 4.93 0 0 0-.46-1.6c-.21-.47-.71-.49-1.18-.55-.83-.1-1.66-.25-2.48-.41-.46-.09-.88-.26-.95-.83-.08-.6.35-.82.74-1.03.3-.15.66-.23 1-.23 1.72 0 3.45.05 5.17.08 1.72.03 3.44.1 5.17.07.83-.02 1.48.34 2.14.72.5.28.5.9.03 1.19-.5.31-1.02.55-1.66.58-2 .1-1.93.14-2.31 2.08-.42 2.12-.33 4.25-.32 6.38.02 4.64 0 9.29 0 13.93v1.37c0 1.45 1 2.24 2.41 1.85.66-.18 1.2-.23 1.76.24.4.33.6.68.53 1.18-.08.55-.46.88-.95 1a7.18 7.18 0 0 1-3.23.26c-1.84-.38-3.68-.4-5.56-.2-1.2.12-2.45-.08-3.66-.27-.62-.1-1.3-.35-1.41-1.2-.1-.77.27-1.33 1.05-1.4.45-.03.9.06 1.36.07.45.02.91.06 1.36 0 .72-.12 1.04-.48 1.07-1.2.07-1.72.11-3.44.13-5.16 0-1.33-.03-2.67-.06-4 0-.5-.05-.98-.08-1.6zM292.78 23.11c0-1.86-.02-3.72.01-5.58.03-1.37.18-2.74.2-4.1 0-1.83 0-3.66-.11-5.48-.07-.99-.31-1.11-1.3-1.13-1.48-.02-2.96.02-4.43-.02a3.07 3.07 0 0 0-2.33 1.03 7.33 7.33 0 0 0-1.62 2.76c-.4 1.05-.79 2.1-.9 3.23a3 3 0 0 1-.61 1.3c-.32.46-.78.69-1.38.56-.6-.14-1.06-.42-1.2-1.03-.1-.37-.16-.76-.15-1.14.07-2.5.13-4.99.26-7.48.08-1.6.69-2.21 2.29-2.3 1.47-.06 2.95-.04 4.43-.05 2.53 0 5.06-.01 7.6.04 1 .02 2.01.24 3.02.28 1.4.06 2.81.05 4.22.02 1.61-.04 3.23-.17 4.84-.2 1.76-.03 3.52.02 5.27.03h.32c1.71.06 2.44.78 2.42 2.48-.02 2-.05 4-.14 6-.03.8-.13 1.61-.33 2.38-.28 1.08-1.85 1.45-2.51.59a3.56 3.56 0 0 1-.83-1.79c-.12-2-1.24-3.54-2.15-5.16a2.7 2.7 0 0 0-1.47-1.07 11.65 11.65 0 0 0-4.6-.39c-.41.04-.82.17-1.22.3-.73.21-1.1.71-1.13 1.47-.01.35-.05.7-.03 1.05.12 2.64 0 5.27-.33 7.89a4.2 4.2 0 0 0-.03.52l-.02 12.98c0 .56.05 1.13.13 1.68.17 1.22.52 1.48 1.74 1.45.77-.01 1.56-.07 2.3.08 1.14.23 1.5 1.53.7 2.35-.18.18-.47.32-.71.35-1.43.15-2.84.33-4.3.22-1.85-.13-3.72 0-5.58-.02a54.9 54.9 0 0 1-4-.22c-.83-.07-1.27-.64-1.23-1.4.04-.78.53-1.25 1.37-1.3.53-.02 1.06.01 1.59 0 1.08 0 1.68-.5 1.85-1.58.06-.42.08-.84.08-1.26V23.1zM147.56 34.73c.14 1.47-.04 1.75-1.29 2.03a7.6 7.6 0 0 1-3.43.03c-.94-.21-1.96-.14-2.94-.13-1.83.01-3.65.1-5.48.09-.7-.01-1.46.04-2.08-.54-.62-.59-.92-1.43-.6-2.04.25-.47 1.17-.73 1.91-.53.4.11.8.24 1.22.34.16.04.34.06.52.06.81.02 1.16-.23 1.12-1.02a6.47 6.47 0 0 0-.45-2.01c-.43-1.1-.98-2.16-1.5-3.22-.28-.6-.58-1.2-.92-1.76-.25-.4-.6-.7-1.13-.6h-.1c-3.65.6-7.3.01-10.95.16-1.78.07-2.7.74-3.3 2.44-.3.8-.78 1.54-1.17 2.31-.33.66-.69 1.3-.97 1.98-.38.93-.09 1.43.85 1.73.52.16 1.04.37 1.52.65.76.43.75.96.12 1.57-.42.4-.9.51-1.44.51h-7.59c-.5 0-.87-.1-1.07-.62-.15-.38-.42-.71-.7-1.17.66-.3 1.28-.67 1.95-.88 1.7-.54 2.69-1.72 3.41-3.3 1.04-2.25 2.23-4.43 3.37-6.63 1.46-2.82 2.88-5.65 4.43-8.42a94 94 0 0 0 3.43-6.82c.43-.94 1.11-1.75 1.7-2.61.08-.14.24-.24.38-.33 1.6-.98 3.18-1.97 4.79-2.93.7-.42 1.48-.64 2.29-.21.82.43.9 1.24.2 1.85-.42.37-.76.82-1.2 1.14-.54.39-.43.82-.26 1.3.36 1.02.7 2.05 1.1 3.05.47 1.16 1 2.3 1.48 3.46.6 1.44 1.27 2.85 1.74 4.36.44 1.43 1.09 2.8 1.73 4.15.72 1.5 1.53 2.96 2.07 4.56.61 1.78 1.35 3.5 2.09 5.24.2.5.55.96.9 1.39.36.46.9.63 1.5.62.97 0 1.84.37 2.75.75zm-15.41-12.47c-1.5-3.97-2.69-7.87-4.55-11.7-.36.63-.67 1.05-.86 1.52a14.15 14.15 0 0 1-1.76 3.19 25 25 0 0 0-3.34 6.02c-.13.34-.12.72-.19 1.2 3.6-.1 7.07.14 10.7-.23zM361.39 19.8c1.15.28 2.35.21 3.52.04.65-.1.83-.72.9-1.3.06-.62.06-1.25.1-1.89.02-.53.03-1.08.68-1.28.54-.16 1.03.1 1.5.67.51.64.65 1.4.71 2.16.06.8-.02 1.62.03 2.42.08 1.2.27 2.38.3 3.57.03.76-.12 1.53-.21 2.29-.08.66-.59.85-1.13.9-.52.04-.96-.15-1.16-.71-.2-.6-.5-1.17-.66-1.78-.5-1.93-2.45-2.59-4.04-2.39-.47.06-.7.46-.69.94.01.77.06 1.54.04 2.32-.06 2-.16 4-.21 6-.02.56.03 1.13.13 1.68.14.82.5 1.19 1.32 1.23 1.82.1 3.65.17 5.47.2 1.39 0 2.65-.5 3.66-1.39.7-.6 1.17-1.47 1.7-2.25.74-1.1 1.4-2.24 1.81-3.52.09-.25.27-.5.47-.68.5-.5.96-.45 1.43.07.6.65.77 1.45.63 2.26-.18 1.06-.49 2.1-.77 3.15-.34 1.25-.72 2.49-1.06 3.73-.25.89-.8 1.38-1.72 1.4-.98 0-1.97-.01-2.95-.04-3.94-.09-7.88-.2-11.82-.26-1.86-.03-3.72.06-5.59.07-.45 0-.9-.07-1.35-.16a.97.97 0 0 1-.81-.98c-.01-.49.06-.92.62-1.21a3.37 3.37 0 0 1 1.62-.34c1.52-.01 2.14-.5 2.23-2.03.07-1.3-.07-2.6-.11-3.9-.04-1.02-.1-2.03-.1-3.05l.13-13.61c.02-1.56-1.07-2.83-2.82-2.45-.75.16-1.47.08-1.93-.7-.4-.67-.26-1.23.47-1.5.3-.1.62-.14.93-.14 1.3-.02 2.6-.05 3.9-.02 4.79.12 9.57.24 14.35.38.77.02 1.55.06 2.3.2.94.15 1.25.46 1.29 1.4.07 1.68.06 3.36.06 5.05 0 .27-.02.61-.17.81-.27.34-.6.72-.99.83-.23.07-.69-.3-.88-.57-.42-.6-.64-1.3-.68-2.07-.09-1.45-1.5-3.13-2.94-3.23-2-.16-4-.2-6-.15-1.24.03-1.75.55-1.76 1.78-.01 2.56.07 5.13.12 7.7 0 .1.07.19.13.36z"/><path fill="#ebebeb" d="M163.3 4.17c-.16.23-.35.41-.42.63-.14.43-.43.5-.81.5-.35 0-.7.04-1.06.03-1.15-.05-1.46.38-1.95 1.53-.15.35-.16.76-.2 1.14-.07.88-.15 1.76-.17 2.63-.01.7.08 1.4.1 2.1.04 1.37.08 2.74.08 4.11l-.03 12.66c0 .95.06 1.88.5 2.77.26.5.6.8 1.12.82 2.07.04 4.15.15 6.21-.01 1-.08 2.03-.56 2.8-1.31.82-.81 1.6-1.67 2.35-2.54.67-.79.94-1.78 1.32-2.72.31-.77.7-1.54 1.19-2.2.72-.95 1.6-.83 2.3.13.54.73.54 1.5.33 2.3-.37 1.43-.7 2.86-1.1 4.28a82.85 82.85 0 0 1-1.21 4c-.3.91-1 1.4-1.95 1.52-.28.04-.56.04-.84.04-5.07-.03-10.13-.08-15.2-.1-2.07 0-4.14.09-6.21.1-1.07.01-1.44-.4-1.52-1.53-.04-.66.5-1.26 1.32-1.35 2.55-.3 2.67-1.03 2.67-3.03l.03-23.73c0-.32-.05-.63-.08-1.02l-2.55-.55c-.27-.06-.55-.1-.79-.22-.5-.27-.79-.93-.66-1.42.14-.55.6-.74 1.07-.9.16-.05.35-.05.52-.04l10.55.05c.97 0 1.78.3 2.28 1.33zM233.7 9.18c1.05 0 2.12-.12 3.16.02 2.86.37 5.47 1.32 7.4 3.64.64.78 1.44 1.44 1.98 2.28.48.74.84 1.62 1 2.5.35 1.85 1.02 3.65.98 5.57-.02 1.05.04 2.13-.15 3.15-.17.91-.56 1.8-.97 2.64-.89 1.85-2.38 3.23-3.76 4.7a10.2 10.2 0 0 1-7.2 3.14c-1.78 0-3.57-.17-5.35-.35-.57-.06-1.13-.33-1.67-.54-1.08-.42-2.18-.78-3.2-1.32a12.38 12.38 0 0 1-5.12-5.06c-.49-.9-.6-2-.96-3-.85-2.37-.6-4.69-.14-7.13.48-2.52 1.76-4.47 3.18-6.45 1.37-1.92 3.38-2.7 5.5-3.38 1.75-.57 3.54-.38 5.32-.41zM224.3 21c.1 2.5.61 5.03 1.68 7.38.59 1.28 1.55 2.39 2.37 3.55.17.25.48.4.74.58.23.15.48.27.72.4 1.37.83 2.8 1.42 4.44 1.37.49 0 .98.12 1.47.09.59-.04 1.22-.05 1.74-.28 1.88-.82 3.44-2 4.36-3.95.9-1.9 1.63-3.79 1.15-5.94a2.8 2.8 0 0 1-.08-.84c.16-1.79-.36-3.47-.77-5.17-.1-.4-.17-.85-.4-1.17a30.27 30.27 0 0 0-2.14-2.79c-.76-.84-1.43-1.83-2.6-2.19-.6-.18-1.2-.35-1.82-.46-1.3-.23-2.61-.55-3.94-.1-.96.32-2.06.44-2.85 1.01a9.11 9.11 0 0 0-3.84 6.09c-.13.76-.15 1.53-.23 2.42zM266.92 18.72c-.76-.37-1.12-.86-1-1.7.15-1.15-.38-2.14-.96-3.06-.24-.37-.75-.69-1.2-.78-2-.44-4.03-.5-6.07-.16-.7.1-1.05.52-1.15 1.16-.08.49-.09.98-.13 1.47-.06.8-.2 1.61-.16 2.41.04.8.25 1.58.4 2.37.03.12.15.25.26.32.94.65 2.65.06 3.05-1.03.18-.49.33-.99.57-1.44.18-.33.42-.67.73-.86.54-.35 1.13-.1 1.33.52.13.43.19.89.2 1.34.06 1.61-.12 3.23.28 4.83.2.77-.15 1.46-.65 2.04-.61.71-1.34.63-1.77-.22-.18-.35-.21-.8-.26-1.21-.08-.68-.3-1.05-.97-1.18-.72-.13-1.46-.15-2.19-.18-.56-.02-.81.31-.8.87.01.92 0 1.83 0 2.74.01 2 0 4 .03 6 .02 1.08.33 1.33 1.45 1.33.63 0 1.27-.1 1.8.49-.11.21-.23.45-.37.68-.45.71-1 1.16-1.95 1.13-2.22-.06-4.43-.01-6.65-.03a5 5 0 0 1-1.25-.16c-.7-.19-.96-.57-.92-1.2.03-.53.24-.74.99-.87.41-.07.84-.04 1.26-.08.72-.07 1.1-.42 1.11-1.12.04-2.46.05-4.92.04-7.38 0-3.27-.04-6.54-.06-9.8 0-.64.03-1.27-.03-1.9-.1-.95-.4-1.2-1.35-1.25-.25-.01-.5 0-.74-.02-1.2-.12-1.53-.7-1.06-1.98.82-.07 1.7-.21 2.56-.22l14.98.02c.18 0 .36 0 .53.02 1.07.12 1.45.46 1.51 1.53.09 1.5.11 3.02.11 4.53 0 .82-.52 1.47-1.5 2.03z"/></svg>